G04 #@! TF.GenerationSoftware,KiCad,Pcbnew,8.0.4*
G04 #@! TF.CreationDate,2024-12-08T00:01:49+02:00*
G04 #@! TF.ProjectId,usb2ps2,75736232-7073-4322-9e6b-696361645f70,1.2*
G04 #@! TF.SameCoordinates,Original*
G04 #@! TF.FileFunction,Legend,Bot*
G04 #@! TF.FilePolarity,Positive*
%FSLAX46Y46*%
G04 Gerber Fmt 4.6, Leading zero omitted, Abs format (unit mm)*
G04 Created by KiCad (PCBNEW 8.0.4) date 2024-12-08 00:01:49*
%MOMM*%
%LPD*%
G01*
G04 APERTURE LIST*
%ADD10C,0.100000*%
%ADD11C,0.300000*%
%ADD12C,0.120000*%
G04 APERTURE END LIST*
D10*
G36*
X134460537Y-83363685D02*
G01*
X134309302Y-83363685D01*
X134309302Y-84114000D01*
X134460537Y-84114000D01*
X134460537Y-83802932D01*
X134728227Y-83802932D01*
X134728227Y-84114000D01*
X134879462Y-84114000D01*
X134879462Y-83363685D01*
X134728227Y-83363685D01*
X134728227Y-83665374D01*
X134460537Y-83665374D01*
X134460537Y-83363685D01*
G37*
G36*
X133407752Y-83363685D02*
G01*
X133252023Y-83363685D01*
X133450348Y-84114000D01*
X133613893Y-84114000D01*
X133738164Y-83605584D01*
X133744808Y-83605584D01*
X133869078Y-84114000D01*
X134031646Y-84114000D01*
X134230949Y-83363685D01*
X134075219Y-83363685D01*
X133953098Y-83879917D01*
X133946454Y-83879917D01*
X133825505Y-83363685D01*
X133656294Y-83363685D01*
X133535345Y-83879917D01*
X133528702Y-83879917D01*
X133407752Y-83363685D01*
G37*
G36*
X132987264Y-84114000D02*
G01*
X132836029Y-84114000D01*
X132836029Y-83838689D01*
X132763147Y-83838689D01*
X132622072Y-84114000D01*
X132454033Y-84114000D01*
X132612107Y-83823057D01*
X132599322Y-83818366D01*
X132564058Y-83800746D01*
X132530315Y-83774932D01*
X132502295Y-83742555D01*
X132488616Y-83720145D01*
X132473404Y-83683001D01*
X132464560Y-83641622D01*
X132462068Y-83601676D01*
X132618750Y-83601676D01*
X132624675Y-83641466D01*
X132645715Y-83675144D01*
X132676978Y-83694635D01*
X132717229Y-83701131D01*
X132836029Y-83701131D01*
X132836029Y-83501243D01*
X132717229Y-83501243D01*
X132679230Y-83507082D01*
X132645715Y-83527817D01*
X132624675Y-83561897D01*
X132618750Y-83601676D01*
X132462068Y-83601676D01*
X132462044Y-83601285D01*
X132463113Y-83574284D01*
X132470125Y-83530617D01*
X132483683Y-83491513D01*
X132503785Y-83456972D01*
X132530432Y-83426993D01*
X132552811Y-83408755D01*
X132587732Y-83388415D01*
X132626841Y-83374134D01*
X132670139Y-83365911D01*
X132710586Y-83363685D01*
X132987264Y-83363685D01*
X132987264Y-84114000D01*
G37*
G36*
X132186605Y-83564932D02*
G01*
X132231605Y-83572566D01*
X132271930Y-83587324D01*
X132307580Y-83609207D01*
X132338555Y-83638214D01*
X132346481Y-83647747D01*
X132370197Y-83684680D01*
X132385538Y-83720758D01*
X132396277Y-83760916D01*
X132402414Y-83805155D01*
X132404012Y-83845137D01*
X132403948Y-83853360D01*
X132401690Y-83892776D01*
X132394725Y-83936334D01*
X132383116Y-83975812D01*
X132363702Y-84016713D01*
X132337969Y-84052060D01*
X132316262Y-84073506D01*
X132282281Y-84097425D01*
X132244112Y-84114218D01*
X132201755Y-84123888D01*
X132162114Y-84126505D01*
X132119042Y-84123366D01*
X132079316Y-84113951D01*
X132042936Y-84098258D01*
X132009902Y-84076288D01*
X131981472Y-84048799D01*
X131958904Y-84016742D01*
X131942198Y-83980118D01*
X131931353Y-83938926D01*
X132077117Y-83938926D01*
X132089977Y-83960810D01*
X132122802Y-83983036D01*
X132162114Y-83988947D01*
X132200156Y-83982722D01*
X132233824Y-83960615D01*
X132247291Y-83941510D01*
X132260741Y-83902726D01*
X132266259Y-83863895D01*
X131928032Y-83863895D01*
X131927091Y-83856641D01*
X131925882Y-83817000D01*
X131926133Y-83802913D01*
X131929894Y-83762632D01*
X131930331Y-83760727D01*
X132062463Y-83760727D01*
X132261765Y-83760727D01*
X132252066Y-83733332D01*
X132226008Y-83702695D01*
X132198393Y-83690493D01*
X132158792Y-83685695D01*
X132148707Y-83685988D01*
X132110031Y-83694561D01*
X132077663Y-83721159D01*
X132062463Y-83760727D01*
X131930331Y-83760727D01*
X131939366Y-83721355D01*
X131954410Y-83683741D01*
X131974663Y-83650395D01*
X132002539Y-83619620D01*
X132036280Y-83595032D01*
X132039618Y-83593109D01*
X132078421Y-83575981D01*
X132117023Y-83566822D01*
X132158792Y-83563769D01*
X132186605Y-83564932D01*
G37*
G36*
X131537243Y-83576274D02*
G01*
X131382686Y-83576274D01*
X131560690Y-84114000D01*
X131714075Y-84114000D01*
X131892274Y-83576274D01*
X131737718Y-83576274D01*
X131641388Y-83913916D01*
X131634549Y-83913916D01*
X131537243Y-83576274D01*
G37*
G36*
X130773642Y-83976442D02*
G01*
X130614591Y-83976442D01*
X130614591Y-84114000D01*
X131100732Y-84114000D01*
X131100732Y-83976442D01*
X130918234Y-83976442D01*
X130918234Y-83562011D01*
X130924877Y-83562011D01*
X131100732Y-83709729D01*
X131100732Y-83535046D01*
X130903579Y-83363685D01*
X130773642Y-83363685D01*
X130773642Y-83976442D01*
G37*
G36*
X130531939Y-84114000D02*
G01*
X130531939Y-83942053D01*
X130359406Y-83942053D01*
X130359406Y-84114000D01*
X130531939Y-84114000D01*
G37*
G36*
X130240997Y-83945179D02*
G01*
X129991088Y-83711487D01*
X129963986Y-83682693D01*
X129941263Y-83651306D01*
X129926743Y-83613383D01*
X129923872Y-83583309D01*
X129931848Y-83543851D01*
X129949078Y-83517265D01*
X129981886Y-83494198D01*
X130013558Y-83488738D01*
X130056109Y-83495523D01*
X130089501Y-83518978D01*
X130107058Y-83554412D01*
X130111060Y-83574516D01*
X130261123Y-83574516D01*
X130255354Y-83533161D01*
X130244031Y-83495266D01*
X130224290Y-83456193D01*
X130197295Y-83421639D01*
X130189413Y-83413706D01*
X130158759Y-83389343D01*
X130123729Y-83370964D01*
X130084323Y-83358569D01*
X130040541Y-83352157D01*
X130013558Y-83351180D01*
X129970999Y-83354119D01*
X129931493Y-83362934D01*
X129895040Y-83377627D01*
X129888115Y-83381271D01*
X129853346Y-83404525D01*
X129824534Y-83433182D01*
X129803510Y-83463923D01*
X129786600Y-83501971D01*
X129776710Y-83543574D01*
X129773810Y-83584481D01*
X129776159Y-83623554D01*
X129784280Y-83663487D01*
X129799913Y-83703183D01*
X129803510Y-83709924D01*
X129826907Y-83745928D01*
X129853346Y-83777496D01*
X129881351Y-83804961D01*
X129888115Y-83810943D01*
X130067292Y-83969799D01*
X130067292Y-83976442D01*
X129777327Y-83976442D01*
X129777327Y-84114000D01*
X130240997Y-84114000D01*
X130240997Y-83945179D01*
G37*
D11*
G36*
X134357397Y-82668447D02*
G01*
X134432687Y-82665003D01*
X134515669Y-82651780D01*
X134590613Y-82628639D01*
X134657520Y-82595580D01*
X134725421Y-82544477D01*
X134742812Y-82527397D01*
X134788879Y-82470154D01*
X134825415Y-82404487D01*
X134852421Y-82330397D01*
X134869894Y-82247884D01*
X134877175Y-82172688D01*
X134878367Y-82124762D01*
X134878367Y-81238161D01*
X134594801Y-81238161D01*
X134594801Y-82097285D01*
X134591389Y-82174954D01*
X134579394Y-82248319D01*
X134553006Y-82317836D01*
X134540212Y-82337620D01*
X134483706Y-82384824D01*
X134409972Y-82407038D01*
X134357397Y-82410526D01*
X134284374Y-82403299D01*
X134215543Y-82375547D01*
X134173848Y-82336521D01*
X134139914Y-82268188D01*
X134123599Y-82191645D01*
X134118378Y-82117582D01*
X134118161Y-82097285D01*
X134118161Y-81238161D01*
X133836427Y-81238161D01*
X133836427Y-82124762D01*
X133839736Y-82203468D01*
X133849664Y-82276324D01*
X133870315Y-82356030D01*
X133900497Y-82427312D01*
X133940211Y-82490171D01*
X133971981Y-82527397D01*
X134036756Y-82582357D01*
X134100985Y-82618721D01*
X134173250Y-82645168D01*
X134253552Y-82661697D01*
X134326611Y-82667896D01*
X134357397Y-82668447D01*
G37*
G36*
X133164515Y-82668447D02*
G01*
X133243151Y-82664596D01*
X133326689Y-82650368D01*
X133401392Y-82625657D01*
X133467259Y-82590462D01*
X133508897Y-82558904D01*
X133565225Y-82498179D01*
X133603543Y-82435277D01*
X133631623Y-82363260D01*
X133649465Y-82282126D01*
X133653977Y-82244563D01*
X133372609Y-82244563D01*
X133346140Y-82317172D01*
X133295998Y-82374060D01*
X133224295Y-82404692D01*
X133164515Y-82410526D01*
X133088128Y-82399627D01*
X133031158Y-82366929D01*
X132991697Y-82304954D01*
X132983897Y-82250792D01*
X132999925Y-82177662D01*
X133024930Y-82144912D01*
X133089543Y-82104527D01*
X133152058Y-82082997D01*
X133313625Y-82036102D01*
X133388294Y-82010502D01*
X133459872Y-81972616D01*
X133518292Y-81925108D01*
X133549930Y-81888091D01*
X133590308Y-81819684D01*
X133615732Y-81744980D01*
X133625827Y-81672362D01*
X133626500Y-81647023D01*
X133620668Y-81569815D01*
X133603173Y-81498474D01*
X133570456Y-81426776D01*
X133566782Y-81420610D01*
X133520359Y-81358346D01*
X133463199Y-81306558D01*
X133401919Y-81268569D01*
X133333769Y-81240169D01*
X133260754Y-81222287D01*
X133182873Y-81214924D01*
X133166713Y-81214713D01*
X133091858Y-81218603D01*
X133012570Y-81232974D01*
X132941942Y-81257933D01*
X132871830Y-81299424D01*
X132841015Y-81325355D01*
X132788258Y-81386034D01*
X132747592Y-81457430D01*
X132721926Y-81528691D01*
X132705517Y-81608157D01*
X132702529Y-81632369D01*
X132979867Y-81632369D01*
X133002124Y-81561844D01*
X133039584Y-81512201D01*
X133106141Y-81479164D01*
X133166713Y-81472634D01*
X133241558Y-81486196D01*
X133288712Y-81515498D01*
X133329957Y-81579355D01*
X133336706Y-81627972D01*
X133320454Y-81701122D01*
X133298970Y-81728356D01*
X133233058Y-81768105D01*
X133193824Y-81781479D01*
X133032257Y-81826175D01*
X132957702Y-81851019D01*
X132891573Y-81884153D01*
X132827250Y-81931335D01*
X132784595Y-81975286D01*
X132740851Y-82039145D01*
X132711424Y-82109959D01*
X132696312Y-82187728D01*
X132694103Y-82233939D01*
X132700149Y-82314467D01*
X132718289Y-82387984D01*
X132752209Y-82460752D01*
X132756018Y-82466946D01*
X132803953Y-82528951D01*
X132862625Y-82579960D01*
X132925279Y-82616789D01*
X132994609Y-82644031D01*
X133068876Y-82661182D01*
X133148081Y-82668245D01*
X133164515Y-82668447D01*
G37*
G36*
X132495167Y-82645000D02*
G01*
X131972365Y-82645000D01*
X131932721Y-82644043D01*
X131859150Y-82636392D01*
X131782955Y-82617797D01*
X131708583Y-82583794D01*
X131647766Y-82536189D01*
X131600483Y-82477548D01*
X131566708Y-82410801D01*
X131546444Y-82335948D01*
X131539689Y-82252990D01*
X131541231Y-82221849D01*
X131833513Y-82221849D01*
X131840829Y-82279392D01*
X131877843Y-82343482D01*
X131931790Y-82376180D01*
X132005704Y-82387079D01*
X132211601Y-82387079D01*
X132211601Y-82061015D01*
X132005704Y-82061015D01*
X131945370Y-82068089D01*
X131878942Y-82103879D01*
X131847887Y-82147557D01*
X131833513Y-82221849D01*
X131541231Y-82221849D01*
X131542003Y-82206272D01*
X131556738Y-82132547D01*
X131588049Y-82061748D01*
X131607463Y-82032489D01*
X131659249Y-81978550D01*
X131724337Y-81937550D01*
X131724337Y-81929124D01*
X131694987Y-81909902D01*
X131640234Y-81859861D01*
X131597575Y-81798332D01*
X131579873Y-81760968D01*
X131558534Y-81685532D01*
X131555445Y-81648489D01*
X131846336Y-81648489D01*
X131852261Y-81696883D01*
X131888468Y-81760596D01*
X131926937Y-81788112D01*
X131999476Y-81803094D01*
X132211601Y-81803094D01*
X132211601Y-81496081D01*
X131999476Y-81496081D01*
X131955118Y-81501016D01*
X131888468Y-81537847D01*
X131861189Y-81576079D01*
X131846336Y-81648489D01*
X131555445Y-81648489D01*
X131552145Y-81608921D01*
X131555765Y-81550455D01*
X131571850Y-81478670D01*
X131605329Y-81406343D01*
X131655094Y-81342941D01*
X131668356Y-81330253D01*
X131729275Y-81287686D01*
X131802789Y-81258216D01*
X131877444Y-81243175D01*
X131961741Y-81238161D01*
X132495167Y-81238161D01*
X132495167Y-82645000D01*
G37*
G36*
X130738450Y-81937184D02*
G01*
X131381053Y-81716632D01*
X131381053Y-81460544D01*
X130421545Y-81826175D01*
X130421545Y-82059183D01*
X131381053Y-82426646D01*
X131381053Y-82170558D01*
X130738450Y-81950006D01*
X130738450Y-81937184D01*
G37*
G36*
X130236898Y-82645000D02*
G01*
X129953332Y-82645000D01*
X129953332Y-82169092D01*
X129714096Y-82169092D01*
X129663343Y-82167175D01*
X129580641Y-82154590D01*
X129505723Y-82130259D01*
X129438589Y-82094183D01*
X129379239Y-82046360D01*
X129342615Y-82005558D01*
X129301770Y-81940590D01*
X129273092Y-81866471D01*
X129256580Y-81783201D01*
X129252110Y-81704542D01*
X129545935Y-81704542D01*
X129546141Y-81716514D01*
X129559124Y-81791096D01*
X129598691Y-81856584D01*
X129658958Y-81897525D01*
X129734979Y-81911172D01*
X129953332Y-81911172D01*
X129953332Y-81496081D01*
X129734979Y-81496081D01*
X129663248Y-81508156D01*
X129598691Y-81551036D01*
X129586326Y-81565376D01*
X129554641Y-81631487D01*
X129545935Y-81704542D01*
X129252110Y-81704542D01*
X129255214Y-81638615D01*
X129267132Y-81565594D01*
X129292335Y-81488803D01*
X129329703Y-81421057D01*
X129379239Y-81362358D01*
X129420838Y-81326579D01*
X129485748Y-81286675D01*
X129558442Y-81258658D01*
X129638920Y-81242527D01*
X129714096Y-81238161D01*
X130236898Y-81238161D01*
X130236898Y-82645000D01*
G37*
G36*
X128655303Y-82668447D02*
G01*
X128733940Y-82664596D01*
X128817478Y-82650368D01*
X128892180Y-82625657D01*
X128958047Y-82590462D01*
X128999685Y-82558904D01*
X129056014Y-82498179D01*
X129094332Y-82435277D01*
X129122412Y-82363260D01*
X129140253Y-82282126D01*
X129144766Y-82244563D01*
X128863398Y-82244563D01*
X128836928Y-82317172D01*
X128786786Y-82374060D01*
X128715083Y-82404692D01*
X128655303Y-82410526D01*
X128578916Y-82399627D01*
X128521946Y-82366929D01*
X128482485Y-82304954D01*
X128474685Y-82250792D01*
X128490714Y-82177662D01*
X128515718Y-82144912D01*
X128580331Y-82104527D01*
X128642847Y-82082997D01*
X128804413Y-82036102D01*
X128879083Y-82010502D01*
X128950660Y-81972616D01*
X129009081Y-81925108D01*
X129040718Y-81888091D01*
X129081097Y-81819684D01*
X129106521Y-81744980D01*
X129116615Y-81672362D01*
X129117288Y-81647023D01*
X129111457Y-81569815D01*
X129093961Y-81498474D01*
X129061245Y-81426776D01*
X129057571Y-81420610D01*
X129011147Y-81358346D01*
X128953987Y-81306558D01*
X128892707Y-81268569D01*
X128824558Y-81240169D01*
X128751542Y-81222287D01*
X128673661Y-81214924D01*
X128657501Y-81214713D01*
X128582647Y-81218603D01*
X128503359Y-81232974D01*
X128432731Y-81257933D01*
X128362618Y-81299424D01*
X128331803Y-81325355D01*
X128279047Y-81386034D01*
X128238381Y-81457430D01*
X128212715Y-81528691D01*
X128196306Y-81608157D01*
X128193318Y-81632369D01*
X128470655Y-81632369D01*
X128492912Y-81561844D01*
X128530373Y-81512201D01*
X128596930Y-81479164D01*
X128657501Y-81472634D01*
X128732347Y-81486196D01*
X128779501Y-81515498D01*
X128820745Y-81579355D01*
X128827494Y-81627972D01*
X128811243Y-81701122D01*
X128789759Y-81728356D01*
X128723846Y-81768105D01*
X128684612Y-81781479D01*
X128523046Y-81826175D01*
X128448490Y-81851019D01*
X128382362Y-81884153D01*
X128318039Y-81931335D01*
X128275383Y-81975286D01*
X128231640Y-82039145D01*
X128202212Y-82109959D01*
X128187101Y-82187728D01*
X128184891Y-82233939D01*
X128190938Y-82314467D01*
X128209077Y-82387984D01*
X128242998Y-82460752D01*
X128246807Y-82466946D01*
X128294742Y-82528951D01*
X128353413Y-82579960D01*
X128416067Y-82616789D01*
X128485397Y-82644031D01*
X128559665Y-82661182D01*
X128638870Y-82668245D01*
X128655303Y-82668447D01*
G37*
G36*
X127840875Y-82809131D02*
G01*
X128078279Y-82809131D01*
X127528000Y-81120924D01*
X127292794Y-81120924D01*
X127840875Y-82809131D01*
G37*
G36*
X127133426Y-82328461D02*
G01*
X126664846Y-81890289D01*
X126614029Y-81836300D01*
X126571423Y-81777449D01*
X126544198Y-81706344D01*
X126538817Y-81649954D01*
X126553770Y-81575971D01*
X126586078Y-81526123D01*
X126647593Y-81482872D01*
X126706978Y-81472634D01*
X126786760Y-81485356D01*
X126849371Y-81529334D01*
X126882289Y-81595772D01*
X126889794Y-81633468D01*
X127171161Y-81633468D01*
X127160345Y-81555928D01*
X127139115Y-81484874D01*
X127102100Y-81411613D01*
X127051485Y-81346823D01*
X127036706Y-81331950D01*
X126979229Y-81286269D01*
X126913547Y-81251808D01*
X126839661Y-81228567D01*
X126757570Y-81216545D01*
X126706978Y-81214713D01*
X126627179Y-81220223D01*
X126553105Y-81236752D01*
X126484755Y-81264301D01*
X126471772Y-81271133D01*
X126406580Y-81314735D01*
X126352556Y-81368468D01*
X126313136Y-81426106D01*
X126281431Y-81497445D01*
X126262887Y-81575452D01*
X126257449Y-81652152D01*
X126261854Y-81725414D01*
X126277081Y-81800289D01*
X126306393Y-81874719D01*
X126313136Y-81887358D01*
X126357006Y-81954865D01*
X126406580Y-82014055D01*
X126459088Y-82065553D01*
X126471772Y-82076769D01*
X126807728Y-82374623D01*
X126807728Y-82387079D01*
X126264043Y-82387079D01*
X126264043Y-82645000D01*
X127133426Y-82645000D01*
X127133426Y-82328461D01*
G37*
D12*
X98200000Y-96429998D02*
X105050000Y-96429998D01*
X105050000Y-83169998D02*
X98200000Y-83169998D01*
X113850000Y-94699998D02*
X113850000Y-84899998D01*
X141300000Y-97400000D02*
X154300000Y-97400000D01*
X141300000Y-97400000D02*
X141300000Y-81200000D01*
X154300000Y-97400000D02*
X154300000Y-81200000D01*
X141300000Y-81200000D02*
X154300000Y-81200000D01*
D10*
X131300000Y-71920000D02*
X131300000Y-73630000D01*
X131310000Y-75374988D02*
X131310000Y-77525011D01*
X139520000Y-79200000D02*
X132040000Y-79200000D01*
X140250000Y-75389977D02*
X140250000Y-77540000D01*
X140260000Y-71905000D02*
X131300000Y-71920000D01*
X140260000Y-71905000D02*
X140260000Y-73615000D01*
D12*
X117150000Y-101780000D02*
X109490000Y-101780000D01*
X109490000Y-99120000D02*
X109490000Y-101780000D01*
X117150000Y-99120000D02*
X117150000Y-101780000D01*
X117150000Y-99120000D02*
X109490000Y-99120000D01*
M02*
