G04 #@! TF.GenerationSoftware,KiCad,Pcbnew,8.0.4*
G04 #@! TF.CreationDate,2024-12-08T00:01:49+02:00*
G04 #@! TF.ProjectId,usb2ps2,75736232-7073-4322-9e6b-696361645f70,1.2*
G04 #@! TF.SameCoordinates,Original*
G04 #@! TF.FileFunction,Soldermask,Bot*
G04 #@! TF.FilePolarity,Negative*
%FSLAX46Y46*%
G04 Gerber Fmt 4.6, Leading zero omitted, Abs format (unit mm)*
G04 Created by KiCad (PCBNEW 8.0.4) date 2024-12-08 00:01:49*
%MOMM*%
%LPD*%
G01*
G04 APERTURE LIST*
%ADD10C,0.100000*%
%ADD11C,2.100000*%
%ADD12R,1.700000X1.700000*%
%ADD13O,1.700000X1.700000*%
%ADD14R,1.500000X1.500000*%
%ADD15C,1.500000*%
%ADD16C,3.500000*%
%ADD17R,1.600000X1.600000*%
%ADD18C,1.600000*%
%ADD19O,3.500000X2.000000*%
%ADD20O,2.000000X4.000000*%
%ADD21C,0.650000*%
%ADD22O,1.000000X2.100000*%
%ADD23O,1.000000X1.600000*%
%ADD24C,1.700000*%
G04 APERTURE END LIST*
D10*
G36*
X108169588Y-104676274D02*
G01*
X108131486Y-104681941D01*
X108131486Y-104815981D01*
X108170760Y-104813832D01*
X108211134Y-104816718D01*
X108250296Y-104828739D01*
X108264745Y-104838256D01*
X108287461Y-104872313D01*
X108293830Y-104912534D01*
X108293859Y-104915828D01*
X108293859Y-105214000D01*
X108438450Y-105214000D01*
X108438450Y-104676274D01*
X108302847Y-104676274D01*
X108302847Y-104742318D01*
X108296203Y-104742318D01*
X108272108Y-104710171D01*
X108244619Y-104691515D01*
X108207289Y-104679623D01*
X108169588Y-104676274D01*
G37*
G36*
X107765512Y-104663769D02*
G01*
X107718116Y-104668597D01*
X107678753Y-104683080D01*
X107647423Y-104707218D01*
X107624126Y-104741011D01*
X107608863Y-104784460D01*
X107602436Y-104826170D01*
X107600990Y-104861508D01*
X107600990Y-105214000D01*
X107745387Y-105214000D01*
X107745387Y-104884956D01*
X107750966Y-104844530D01*
X107775765Y-104811209D01*
X107815924Y-104801327D01*
X107855360Y-104809488D01*
X107882554Y-104830245D01*
X107902221Y-104866112D01*
X107907759Y-104906644D01*
X107907759Y-105214000D01*
X108052351Y-105214000D01*
X108052351Y-104463685D01*
X107907759Y-104463685D01*
X107907759Y-104733330D01*
X107901116Y-104733330D01*
X107876249Y-104702782D01*
X107846796Y-104682332D01*
X107808792Y-104668410D01*
X107768372Y-104663787D01*
X107765512Y-104663769D01*
G37*
G36*
X107149825Y-105076442D02*
G01*
X106990774Y-105076442D01*
X106990774Y-105214000D01*
X107476915Y-105214000D01*
X107476915Y-105076442D01*
X107294417Y-105076442D01*
X107294417Y-104662011D01*
X107301060Y-104662011D01*
X107476915Y-104809729D01*
X107476915Y-104635046D01*
X107279762Y-104463685D01*
X107149825Y-104463685D01*
X107149825Y-105076442D01*
G37*
G36*
X106908122Y-105214000D02*
G01*
X106908122Y-105042053D01*
X106735589Y-105042053D01*
X106735589Y-105214000D01*
X106908122Y-105214000D01*
G37*
G36*
X106296147Y-104736651D02*
G01*
X106302791Y-104736651D01*
X106325720Y-104708235D01*
X106358869Y-104683504D01*
X106361043Y-104682290D01*
X106399145Y-104668105D01*
X106440544Y-104663769D01*
X106452705Y-104664065D01*
X106492539Y-104669751D01*
X106532867Y-104685111D01*
X106567650Y-104709923D01*
X106593538Y-104739387D01*
X106596879Y-104744154D01*
X106617302Y-104780530D01*
X106632527Y-104822159D01*
X106641439Y-104862024D01*
X106646531Y-104905750D01*
X106647857Y-104945137D01*
X106645947Y-104992087D01*
X106640218Y-105035189D01*
X106630670Y-105074445D01*
X106614703Y-105115382D01*
X106593538Y-105151083D01*
X106590099Y-105155723D01*
X106559474Y-105187542D01*
X106523305Y-105209932D01*
X106481591Y-105222896D01*
X106440544Y-105226505D01*
X106431001Y-105226323D01*
X106389872Y-105220659D01*
X106352030Y-105205793D01*
X106349739Y-105204467D01*
X106317535Y-105178120D01*
X106294975Y-105144635D01*
X106287159Y-105144635D01*
X106287159Y-105214000D01*
X106151556Y-105214000D01*
X106151556Y-104945137D01*
X106294975Y-104945137D01*
X106296587Y-104978207D01*
X106304068Y-105016820D01*
X106320767Y-105052213D01*
X106325828Y-105058778D01*
X106357882Y-105081916D01*
X106397948Y-105088947D01*
X106433009Y-105083891D01*
X106468473Y-105061421D01*
X106488925Y-105027013D01*
X106498597Y-104986567D01*
X106501116Y-104945137D01*
X106499504Y-104911431D01*
X106491041Y-104869300D01*
X106471999Y-104832926D01*
X106438147Y-104808208D01*
X106397948Y-104801327D01*
X106388537Y-104801650D01*
X106350571Y-104811694D01*
X106320767Y-104838061D01*
X106307166Y-104864302D01*
X106297494Y-104904455D01*
X106294975Y-104945137D01*
X106151556Y-104945137D01*
X106151556Y-104463685D01*
X106296147Y-104463685D01*
X106296147Y-104736651D01*
G37*
G36*
X105838210Y-104664932D02*
G01*
X105883210Y-104672566D01*
X105923535Y-104687324D01*
X105959185Y-104709207D01*
X105990160Y-104738214D01*
X105998086Y-104747747D01*
X106021802Y-104784680D01*
X106037143Y-104820758D01*
X106047882Y-104860916D01*
X106054019Y-104905155D01*
X106055617Y-104945137D01*
X106055553Y-104953360D01*
X106053295Y-104992776D01*
X106046330Y-105036334D01*
X106034721Y-105075812D01*
X106015307Y-105116713D01*
X105989574Y-105152060D01*
X105967867Y-105173506D01*
X105933886Y-105197425D01*
X105895717Y-105214218D01*
X105853360Y-105223888D01*
X105813719Y-105226505D01*
X105770647Y-105223366D01*
X105730921Y-105213951D01*
X105694541Y-105198258D01*
X105661507Y-105176288D01*
X105633077Y-105148799D01*
X105610509Y-105116742D01*
X105593803Y-105080118D01*
X105582958Y-105038926D01*
X105728722Y-105038926D01*
X105741582Y-105060810D01*
X105774408Y-105083036D01*
X105813719Y-105088947D01*
X105851761Y-105082722D01*
X105885429Y-105060615D01*
X105898896Y-105041510D01*
X105912346Y-105002726D01*
X105917864Y-104963895D01*
X105579637Y-104963895D01*
X105578696Y-104956641D01*
X105577487Y-104917000D01*
X105577738Y-104902913D01*
X105581499Y-104862632D01*
X105581936Y-104860727D01*
X105714068Y-104860727D01*
X105913370Y-104860727D01*
X105903671Y-104833332D01*
X105877613Y-104802695D01*
X105849998Y-104790493D01*
X105810397Y-104785695D01*
X105800312Y-104785988D01*
X105761636Y-104794561D01*
X105729268Y-104821159D01*
X105714068Y-104860727D01*
X105581936Y-104860727D01*
X105590971Y-104821355D01*
X105606015Y-104783741D01*
X105626268Y-104750395D01*
X105654144Y-104719620D01*
X105687885Y-104695032D01*
X105691223Y-104693109D01*
X105730026Y-104675981D01*
X105768628Y-104666822D01*
X105810397Y-104663769D01*
X105838210Y-104664932D01*
G37*
G36*
X105188848Y-104676274D02*
G01*
X105034291Y-104676274D01*
X105212295Y-105214000D01*
X105365680Y-105214000D01*
X105543879Y-104676274D01*
X105389323Y-104676274D01*
X105292993Y-105013916D01*
X105286154Y-105013916D01*
X105188848Y-104676274D01*
G37*
D11*
X151850000Y-75700000D03*
X151850000Y-104000000D03*
X102250000Y-104000000D03*
X102250000Y-75700000D03*
D12*
X143900000Y-79000000D03*
D13*
X146440000Y-79000000D03*
X148980000Y-79000000D03*
X151520000Y-79000000D03*
D12*
X143925000Y-75350000D03*
D13*
X146465000Y-75350000D03*
X149005000Y-75350000D03*
D14*
X109780000Y-86299998D03*
D15*
X109780000Y-88799998D03*
X109780000Y-90799998D03*
X109780000Y-93299998D03*
X112400000Y-86299998D03*
X112400000Y-88799998D03*
X112400000Y-90799998D03*
X112400000Y-93299998D03*
D16*
X107070000Y-83229998D03*
X107070000Y-96369998D03*
X112750000Y-83229998D03*
X112750000Y-96369998D03*
D17*
X145700000Y-88000000D03*
D18*
X145700000Y-90600000D03*
D19*
X148550000Y-96150000D03*
D20*
X149350000Y-89300000D03*
D18*
X145700000Y-85900000D03*
D19*
X148550000Y-82450000D03*
D18*
X145700000Y-92700000D03*
X142900000Y-85900000D03*
X142900000Y-92700000D03*
D21*
X138670000Y-78150000D03*
X132890000Y-78150000D03*
D22*
X140100000Y-78680000D03*
D23*
X140100000Y-74500000D03*
D22*
X131460000Y-78680000D03*
D23*
X131460000Y-74500000D03*
D12*
X110820000Y-100450000D03*
D13*
X113360000Y-100450000D03*
D24*
X115900000Y-100450000D03*
M02*
