G04 #@! TF.GenerationSoftware,KiCad,Pcbnew,8.0.4*
G04 #@! TF.CreationDate,2024-12-08T00:01:49+02:00*
G04 #@! TF.ProjectId,usb2ps2,75736232-7073-4322-9e6b-696361645f70,1.2*
G04 #@! TF.SameCoordinates,Original*
G04 #@! TF.FileFunction,Copper,L2,Bot*
G04 #@! TF.FilePolarity,Positive*
%FSLAX46Y46*%
G04 Gerber Fmt 4.6, Leading zero omitted, Abs format (unit mm)*
G04 Created by KiCad (PCBNEW 8.0.4) date 2024-12-08 00:01:49*
%MOMM*%
%LPD*%
G01*
G04 APERTURE LIST*
%ADD10C,0.300000*%
G04 #@! TA.AperFunction,NonConductor*
%ADD11C,0.300000*%
G04 #@! TD*
G04 #@! TA.AperFunction,ComponentPad*
%ADD12R,1.700000X1.700000*%
G04 #@! TD*
G04 #@! TA.AperFunction,ComponentPad*
%ADD13O,1.700000X1.700000*%
G04 #@! TD*
G04 #@! TA.AperFunction,ComponentPad*
%ADD14R,1.500000X1.500000*%
G04 #@! TD*
G04 #@! TA.AperFunction,ComponentPad*
%ADD15C,1.500000*%
G04 #@! TD*
G04 #@! TA.AperFunction,ComponentPad*
%ADD16C,3.500000*%
G04 #@! TD*
G04 #@! TA.AperFunction,ComponentPad*
%ADD17C,0.600000*%
G04 #@! TD*
G04 #@! TA.AperFunction,ComponentPad*
%ADD18R,1.600000X1.600000*%
G04 #@! TD*
G04 #@! TA.AperFunction,ComponentPad*
%ADD19C,1.600000*%
G04 #@! TD*
G04 #@! TA.AperFunction,ComponentPad*
%ADD20O,3.500000X2.000000*%
G04 #@! TD*
G04 #@! TA.AperFunction,ComponentPad*
%ADD21O,2.000000X4.000000*%
G04 #@! TD*
G04 #@! TA.AperFunction,ComponentPad*
%ADD22O,1.000000X2.100000*%
G04 #@! TD*
G04 #@! TA.AperFunction,ComponentPad*
%ADD23O,1.000000X1.600000*%
G04 #@! TD*
G04 #@! TA.AperFunction,ComponentPad*
%ADD24C,1.700000*%
G04 #@! TD*
G04 #@! TA.AperFunction,ViaPad*
%ADD25C,0.600000*%
G04 #@! TD*
G04 #@! TA.AperFunction,Conductor*
%ADD26C,0.200000*%
G04 #@! TD*
G04 #@! TA.AperFunction,Conductor*
%ADD27C,0.500000*%
G04 #@! TD*
G04 #@! TA.AperFunction,Conductor*
%ADD28C,0.300000*%
G04 #@! TD*
G04 #@! TA.AperFunction,Conductor*
%ADD29C,0.400000*%
G04 #@! TD*
G04 APERTURE END LIST*
D10*
D11*
G36*
X134407397Y-82718447D02*
G01*
X134482687Y-82715003D01*
X134565669Y-82701780D01*
X134640613Y-82678639D01*
X134707520Y-82645580D01*
X134775421Y-82594477D01*
X134792812Y-82577397D01*
X134838879Y-82520154D01*
X134875415Y-82454487D01*
X134902421Y-82380397D01*
X134919894Y-82297884D01*
X134927175Y-82222688D01*
X134928367Y-82174762D01*
X134928367Y-81288161D01*
X134644801Y-81288161D01*
X134644801Y-82147285D01*
X134641389Y-82224954D01*
X134629394Y-82298319D01*
X134603006Y-82367836D01*
X134590212Y-82387620D01*
X134533706Y-82434824D01*
X134459972Y-82457038D01*
X134407397Y-82460526D01*
X134334374Y-82453299D01*
X134265543Y-82425547D01*
X134223848Y-82386521D01*
X134189914Y-82318188D01*
X134173599Y-82241645D01*
X134168378Y-82167582D01*
X134168161Y-82147285D01*
X134168161Y-81288161D01*
X133886427Y-81288161D01*
X133886427Y-82174762D01*
X133889736Y-82253468D01*
X133899664Y-82326324D01*
X133920315Y-82406030D01*
X133950497Y-82477312D01*
X133990211Y-82540171D01*
X134021981Y-82577397D01*
X134086756Y-82632357D01*
X134150985Y-82668721D01*
X134223250Y-82695168D01*
X134303552Y-82711697D01*
X134376611Y-82717896D01*
X134407397Y-82718447D01*
G37*
G36*
X133214515Y-82718447D02*
G01*
X133293151Y-82714596D01*
X133376689Y-82700368D01*
X133451392Y-82675657D01*
X133517259Y-82640462D01*
X133558897Y-82608904D01*
X133615225Y-82548179D01*
X133653543Y-82485277D01*
X133681623Y-82413260D01*
X133699465Y-82332126D01*
X133703977Y-82294563D01*
X133422609Y-82294563D01*
X133396140Y-82367172D01*
X133345998Y-82424060D01*
X133274295Y-82454692D01*
X133214515Y-82460526D01*
X133138128Y-82449627D01*
X133081158Y-82416929D01*
X133041697Y-82354954D01*
X133033897Y-82300792D01*
X133049925Y-82227662D01*
X133074930Y-82194912D01*
X133139543Y-82154527D01*
X133202058Y-82132997D01*
X133363625Y-82086102D01*
X133438294Y-82060502D01*
X133509872Y-82022616D01*
X133568292Y-81975108D01*
X133599930Y-81938091D01*
X133640308Y-81869684D01*
X133665732Y-81794980D01*
X133675827Y-81722362D01*
X133676500Y-81697023D01*
X133670668Y-81619815D01*
X133653173Y-81548474D01*
X133620456Y-81476776D01*
X133616782Y-81470610D01*
X133570359Y-81408346D01*
X133513199Y-81356558D01*
X133451919Y-81318569D01*
X133383769Y-81290169D01*
X133310754Y-81272287D01*
X133232873Y-81264924D01*
X133216713Y-81264713D01*
X133141858Y-81268603D01*
X133062570Y-81282974D01*
X132991942Y-81307933D01*
X132921830Y-81349424D01*
X132891015Y-81375355D01*
X132838258Y-81436034D01*
X132797592Y-81507430D01*
X132771926Y-81578691D01*
X132755517Y-81658157D01*
X132752529Y-81682369D01*
X133029867Y-81682369D01*
X133052124Y-81611844D01*
X133089584Y-81562201D01*
X133156141Y-81529164D01*
X133216713Y-81522634D01*
X133291558Y-81536196D01*
X133338712Y-81565498D01*
X133379957Y-81629355D01*
X133386706Y-81677972D01*
X133370454Y-81751122D01*
X133348970Y-81778356D01*
X133283058Y-81818105D01*
X133243824Y-81831479D01*
X133082257Y-81876175D01*
X133007702Y-81901019D01*
X132941573Y-81934153D01*
X132877250Y-81981335D01*
X132834595Y-82025286D01*
X132790851Y-82089145D01*
X132761424Y-82159959D01*
X132746312Y-82237728D01*
X132744103Y-82283939D01*
X132750149Y-82364467D01*
X132768289Y-82437984D01*
X132802209Y-82510752D01*
X132806018Y-82516946D01*
X132853953Y-82578951D01*
X132912625Y-82629960D01*
X132975279Y-82666789D01*
X133044609Y-82694031D01*
X133118876Y-82711182D01*
X133198081Y-82718245D01*
X133214515Y-82718447D01*
G37*
G36*
X132545167Y-82695000D02*
G01*
X132022365Y-82695000D01*
X131982721Y-82694043D01*
X131909150Y-82686392D01*
X131832955Y-82667797D01*
X131758583Y-82633794D01*
X131697766Y-82586189D01*
X131650483Y-82527548D01*
X131616708Y-82460801D01*
X131596444Y-82385948D01*
X131589689Y-82302990D01*
X131591231Y-82271849D01*
X131883513Y-82271849D01*
X131890829Y-82329392D01*
X131927843Y-82393482D01*
X131981790Y-82426180D01*
X132055704Y-82437079D01*
X132261601Y-82437079D01*
X132261601Y-82111015D01*
X132055704Y-82111015D01*
X131995370Y-82118089D01*
X131928942Y-82153879D01*
X131897887Y-82197557D01*
X131883513Y-82271849D01*
X131591231Y-82271849D01*
X131592003Y-82256272D01*
X131606738Y-82182547D01*
X131638049Y-82111748D01*
X131657463Y-82082489D01*
X131709249Y-82028550D01*
X131774337Y-81987550D01*
X131774337Y-81979124D01*
X131744987Y-81959902D01*
X131690234Y-81909861D01*
X131647575Y-81848332D01*
X131629873Y-81810968D01*
X131608534Y-81735532D01*
X131605445Y-81698489D01*
X131896336Y-81698489D01*
X131902261Y-81746883D01*
X131938468Y-81810596D01*
X131976937Y-81838112D01*
X132049476Y-81853094D01*
X132261601Y-81853094D01*
X132261601Y-81546081D01*
X132049476Y-81546081D01*
X132005118Y-81551016D01*
X131938468Y-81587847D01*
X131911189Y-81626079D01*
X131896336Y-81698489D01*
X131605445Y-81698489D01*
X131602145Y-81658921D01*
X131605765Y-81600455D01*
X131621850Y-81528670D01*
X131655329Y-81456343D01*
X131705094Y-81392941D01*
X131718356Y-81380253D01*
X131779275Y-81337686D01*
X131852789Y-81308216D01*
X131927444Y-81293175D01*
X132011741Y-81288161D01*
X132545167Y-81288161D01*
X132545167Y-82695000D01*
G37*
G36*
X130788450Y-81987184D02*
G01*
X131431053Y-81766632D01*
X131431053Y-81510544D01*
X130471545Y-81876175D01*
X130471545Y-82109183D01*
X131431053Y-82476646D01*
X131431053Y-82220558D01*
X130788450Y-82000006D01*
X130788450Y-81987184D01*
G37*
G36*
X130286898Y-82695000D02*
G01*
X130003332Y-82695000D01*
X130003332Y-82219092D01*
X129764096Y-82219092D01*
X129713343Y-82217175D01*
X129630641Y-82204590D01*
X129555723Y-82180259D01*
X129488589Y-82144183D01*
X129429239Y-82096360D01*
X129392615Y-82055558D01*
X129351770Y-81990590D01*
X129323092Y-81916471D01*
X129306580Y-81833201D01*
X129302110Y-81754542D01*
X129595935Y-81754542D01*
X129596141Y-81766514D01*
X129609124Y-81841096D01*
X129648691Y-81906584D01*
X129708958Y-81947525D01*
X129784979Y-81961172D01*
X130003332Y-81961172D01*
X130003332Y-81546081D01*
X129784979Y-81546081D01*
X129713248Y-81558156D01*
X129648691Y-81601036D01*
X129636326Y-81615376D01*
X129604641Y-81681487D01*
X129595935Y-81754542D01*
X129302110Y-81754542D01*
X129305214Y-81688615D01*
X129317132Y-81615594D01*
X129342335Y-81538803D01*
X129379703Y-81471057D01*
X129429239Y-81412358D01*
X129470838Y-81376579D01*
X129535748Y-81336675D01*
X129608442Y-81308658D01*
X129688920Y-81292527D01*
X129764096Y-81288161D01*
X130286898Y-81288161D01*
X130286898Y-82695000D01*
G37*
G36*
X128705303Y-82718447D02*
G01*
X128783940Y-82714596D01*
X128867478Y-82700368D01*
X128942180Y-82675657D01*
X129008047Y-82640462D01*
X129049685Y-82608904D01*
X129106014Y-82548179D01*
X129144332Y-82485277D01*
X129172412Y-82413260D01*
X129190253Y-82332126D01*
X129194766Y-82294563D01*
X128913398Y-82294563D01*
X128886928Y-82367172D01*
X128836786Y-82424060D01*
X128765083Y-82454692D01*
X128705303Y-82460526D01*
X128628916Y-82449627D01*
X128571946Y-82416929D01*
X128532485Y-82354954D01*
X128524685Y-82300792D01*
X128540714Y-82227662D01*
X128565718Y-82194912D01*
X128630331Y-82154527D01*
X128692847Y-82132997D01*
X128854413Y-82086102D01*
X128929083Y-82060502D01*
X129000660Y-82022616D01*
X129059081Y-81975108D01*
X129090718Y-81938091D01*
X129131097Y-81869684D01*
X129156521Y-81794980D01*
X129166615Y-81722362D01*
X129167288Y-81697023D01*
X129161457Y-81619815D01*
X129143961Y-81548474D01*
X129111245Y-81476776D01*
X129107571Y-81470610D01*
X129061147Y-81408346D01*
X129003987Y-81356558D01*
X128942707Y-81318569D01*
X128874558Y-81290169D01*
X128801542Y-81272287D01*
X128723661Y-81264924D01*
X128707501Y-81264713D01*
X128632647Y-81268603D01*
X128553359Y-81282974D01*
X128482731Y-81307933D01*
X128412618Y-81349424D01*
X128381803Y-81375355D01*
X128329047Y-81436034D01*
X128288381Y-81507430D01*
X128262715Y-81578691D01*
X128246306Y-81658157D01*
X128243318Y-81682369D01*
X128520655Y-81682369D01*
X128542912Y-81611844D01*
X128580373Y-81562201D01*
X128646930Y-81529164D01*
X128707501Y-81522634D01*
X128782347Y-81536196D01*
X128829501Y-81565498D01*
X128870745Y-81629355D01*
X128877494Y-81677972D01*
X128861243Y-81751122D01*
X128839759Y-81778356D01*
X128773846Y-81818105D01*
X128734612Y-81831479D01*
X128573046Y-81876175D01*
X128498490Y-81901019D01*
X128432362Y-81934153D01*
X128368039Y-81981335D01*
X128325383Y-82025286D01*
X128281640Y-82089145D01*
X128252212Y-82159959D01*
X128237101Y-82237728D01*
X128234891Y-82283939D01*
X128240938Y-82364467D01*
X128259077Y-82437984D01*
X128292998Y-82510752D01*
X128296807Y-82516946D01*
X128344742Y-82578951D01*
X128403413Y-82629960D01*
X128466067Y-82666789D01*
X128535397Y-82694031D01*
X128609665Y-82711182D01*
X128688870Y-82718245D01*
X128705303Y-82718447D01*
G37*
G36*
X127890875Y-82859131D02*
G01*
X128128279Y-82859131D01*
X127578000Y-81170924D01*
X127342794Y-81170924D01*
X127890875Y-82859131D01*
G37*
G36*
X127183426Y-82378461D02*
G01*
X126714846Y-81940289D01*
X126664029Y-81886300D01*
X126621423Y-81827449D01*
X126594198Y-81756344D01*
X126588817Y-81699954D01*
X126603770Y-81625971D01*
X126636078Y-81576123D01*
X126697593Y-81532872D01*
X126756978Y-81522634D01*
X126836760Y-81535356D01*
X126899371Y-81579334D01*
X126932289Y-81645772D01*
X126939794Y-81683468D01*
X127221161Y-81683468D01*
X127210345Y-81605928D01*
X127189115Y-81534874D01*
X127152100Y-81461613D01*
X127101485Y-81396823D01*
X127086706Y-81381950D01*
X127029229Y-81336269D01*
X126963547Y-81301808D01*
X126889661Y-81278567D01*
X126807570Y-81266545D01*
X126756978Y-81264713D01*
X126677179Y-81270223D01*
X126603105Y-81286752D01*
X126534755Y-81314301D01*
X126521772Y-81321133D01*
X126456580Y-81364735D01*
X126402556Y-81418468D01*
X126363136Y-81476106D01*
X126331431Y-81547445D01*
X126312887Y-81625452D01*
X126307449Y-81702152D01*
X126311854Y-81775414D01*
X126327081Y-81850289D01*
X126356393Y-81924719D01*
X126363136Y-81937358D01*
X126407006Y-82004865D01*
X126456580Y-82064055D01*
X126509088Y-82115553D01*
X126521772Y-82126769D01*
X126857728Y-82424623D01*
X126857728Y-82437079D01*
X126314043Y-82437079D01*
X126314043Y-82695000D01*
X127183426Y-82695000D01*
X127183426Y-82378461D01*
G37*
D12*
X143900000Y-79000000D03*
D13*
X146440000Y-79000000D03*
X148980000Y-79000000D03*
X151520000Y-79000000D03*
D12*
X143925000Y-75350000D03*
D13*
X146465000Y-75350000D03*
X149005000Y-75350000D03*
D14*
X109780000Y-86299998D03*
D15*
X109780000Y-88799998D03*
X109780000Y-90799998D03*
X109780000Y-93299998D03*
X112400000Y-86299998D03*
X112400000Y-88799998D03*
X112400000Y-90799998D03*
X112400000Y-93299998D03*
D16*
X107070000Y-83229998D03*
X107070000Y-96369998D03*
X112750000Y-83229998D03*
X112750000Y-96369998D03*
D17*
X126925000Y-92900000D03*
X126925000Y-94175000D03*
X126925000Y-95450000D03*
X128200000Y-92900000D03*
X128200000Y-94175000D03*
X128200000Y-95450000D03*
X129475000Y-92900000D03*
X129475000Y-94175000D03*
X129475000Y-95450000D03*
D18*
X145700000Y-88000000D03*
D19*
X145700000Y-90600000D03*
D20*
X148550000Y-96150000D03*
D21*
X149350000Y-89300000D03*
D19*
X145700000Y-85900000D03*
D20*
X148550000Y-82450000D03*
D19*
X145700000Y-92700000D03*
X142900000Y-85900000D03*
X142900000Y-92700000D03*
D22*
X140100000Y-78680000D03*
D23*
X140100000Y-74500000D03*
D22*
X131460000Y-78680000D03*
D23*
X131460000Y-74500000D03*
D12*
X110820000Y-100450000D03*
D13*
X113360000Y-100450000D03*
D24*
X115900000Y-100450000D03*
D25*
X125000000Y-99250000D03*
X128250000Y-99200000D03*
X129850000Y-74000000D03*
X114850000Y-99450000D03*
X139800000Y-84900000D03*
X137050000Y-81900000D03*
X135850000Y-77950000D03*
X117050000Y-93900000D03*
X121550000Y-95750000D03*
X138000000Y-105150000D03*
X150150000Y-99850000D03*
X143700000Y-95200000D03*
X144000000Y-90950000D03*
X123200000Y-85800000D03*
X121250000Y-87750000D03*
X107200000Y-77500000D03*
X120050000Y-100350000D03*
X126600000Y-96600000D03*
X118250000Y-94650000D03*
X118500000Y-97000000D03*
X124300000Y-102150000D03*
X122150000Y-100400000D03*
X109500000Y-75550000D03*
X109500000Y-77500000D03*
X111750000Y-77550000D03*
X105250000Y-103450000D03*
X103250000Y-99150000D03*
X122600000Y-95750000D03*
X122200000Y-95100000D03*
X122650000Y-94350000D03*
X122600000Y-93600000D03*
X122706308Y-92854847D03*
X122450000Y-92150000D03*
X107500000Y-101500000D03*
X127500000Y-75050000D03*
X146900000Y-102550000D03*
X146900000Y-104650000D03*
X140700000Y-104750000D03*
X136800000Y-100950000D03*
X144800000Y-102500000D03*
X144850000Y-100400000D03*
X134750000Y-100900000D03*
X137050000Y-78100000D03*
X136800000Y-88800000D03*
X138250000Y-88150000D03*
X130550000Y-100450000D03*
X133150000Y-97850000D03*
X134800000Y-102900000D03*
X134950000Y-104550000D03*
X140700000Y-100400000D03*
X125900000Y-99100000D03*
X122150000Y-102200000D03*
X125700000Y-96300000D03*
X126700000Y-98900000D03*
X130700000Y-98900000D03*
X121400000Y-85538909D03*
X119950000Y-85538909D03*
X121997233Y-85992579D03*
X129892525Y-88629657D03*
X119900000Y-86300000D03*
X131072792Y-89500000D03*
X130422857Y-88099325D03*
X131798833Y-89268933D03*
X124950000Y-75400000D03*
X136725000Y-96750000D03*
X134725000Y-98800000D03*
X137600000Y-86400000D03*
X127450000Y-77150000D03*
X125000000Y-80000000D03*
X132050000Y-90350000D03*
X127600000Y-87850000D03*
X130400000Y-96400000D03*
X124600000Y-89950000D03*
X117350000Y-82250000D03*
X121750000Y-76300000D03*
X116750000Y-77850000D03*
X133000000Y-92300000D03*
X132950000Y-94300000D03*
X146900000Y-100400000D03*
D26*
X122200000Y-95100000D02*
X122727818Y-95100000D01*
X122727818Y-95100000D02*
X123150000Y-95522182D01*
X123150000Y-95522182D02*
X123150000Y-95977818D01*
X123150000Y-95977818D02*
X122827818Y-96300000D01*
X122827818Y-96300000D02*
X122544974Y-96300000D01*
X122544974Y-96300000D02*
X115394974Y-103450000D01*
X115394974Y-103450000D02*
X105250000Y-103450000D01*
X125700000Y-96300000D02*
X125700000Y-97000000D01*
X125700000Y-97000000D02*
X122700000Y-100000000D01*
X122700000Y-100000000D02*
X122700000Y-101650000D01*
X122700000Y-101650000D02*
X122150000Y-102200000D01*
X126700000Y-98900000D02*
X127200000Y-98400000D01*
X127200000Y-98400000D02*
X130200000Y-98400000D01*
X130200000Y-98400000D02*
X130700000Y-98900000D01*
X109780000Y-88799998D02*
X109780000Y-87880758D01*
X110860760Y-86799998D02*
X111485786Y-86799998D01*
X111985786Y-87299998D02*
X112814214Y-87299998D01*
X109780000Y-87880758D02*
X110360760Y-87299998D01*
X110360760Y-87299998D02*
X110780000Y-87299998D01*
X112814214Y-87299998D02*
X113400000Y-86714212D01*
X110780000Y-87299998D02*
X110780000Y-86880758D01*
X110780000Y-86880758D02*
X110860760Y-86799998D01*
X108800000Y-77900000D02*
X108800000Y-76250000D01*
X111485786Y-86799998D02*
X111985786Y-87299998D01*
X113400000Y-85885784D02*
X112744214Y-85229998D01*
X113400000Y-86714212D02*
X113400000Y-85885784D01*
X112744214Y-85229998D02*
X106241572Y-85229998D01*
X106241572Y-85229998D02*
X105070000Y-84058426D01*
X108800000Y-76250000D02*
X109500000Y-75550000D01*
X105070000Y-84058426D02*
X105070000Y-81630000D01*
X105070000Y-81630000D02*
X108800000Y-77900000D01*
X122706308Y-92854847D02*
X123000000Y-92561155D01*
X123000000Y-92561155D02*
X123000000Y-91922182D01*
X117700000Y-95200000D02*
X113360000Y-99540000D01*
X123000000Y-91922182D02*
X122677818Y-91600000D01*
X122677818Y-91600000D02*
X120522182Y-91600000D01*
X120522182Y-91600000D02*
X117700000Y-94422182D01*
X117700000Y-94422182D02*
X117700000Y-95200000D01*
X113360000Y-99540000D02*
X113360000Y-100450000D01*
X145000000Y-77900000D02*
X146895635Y-77900000D01*
X151150000Y-82037258D02*
X151150000Y-100682844D01*
X146895635Y-77900000D02*
X147540000Y-78544365D01*
X147540000Y-78544365D02*
X147540000Y-79605026D01*
X147232844Y-104600000D02*
X146950000Y-104600000D01*
X147540000Y-79605026D02*
X148784974Y-80850000D01*
X143900000Y-79000000D02*
X145000000Y-77900000D01*
X148784974Y-80850000D02*
X149962742Y-80850000D01*
X151150000Y-100682844D02*
X147232844Y-104600000D01*
X149962742Y-80850000D02*
X151150000Y-82037258D01*
X145700000Y-90600000D02*
X144450000Y-91850000D01*
X144450000Y-91850000D02*
X144450000Y-99222182D01*
X144450000Y-99222182D02*
X145400000Y-100172182D01*
X145400000Y-100172182D02*
X145400000Y-101850000D01*
X145400000Y-101850000D02*
X144800000Y-102450000D01*
X122600000Y-93600000D02*
X122738973Y-93600000D01*
X122600000Y-87950000D02*
X122600000Y-87850000D01*
X122738973Y-93600000D02*
X123350000Y-92988973D01*
X119672182Y-86850000D02*
X111750000Y-78927818D01*
X123350000Y-88700000D02*
X122600000Y-87950000D01*
X122600000Y-87850000D02*
X121600000Y-86850000D01*
X123350000Y-92988973D02*
X123350000Y-88700000D01*
X111750000Y-78927818D02*
X111750000Y-77550000D01*
X121600000Y-86850000D02*
X119672182Y-86850000D01*
X122650000Y-94350000D02*
X123700000Y-93300000D01*
X113782472Y-77000000D02*
X110100000Y-77000000D01*
X123700000Y-93300000D02*
X123700000Y-88400000D01*
X123700000Y-88400000D02*
X122225051Y-86925051D01*
X122547233Y-85764761D02*
X113782472Y-77000000D01*
X122225051Y-86542579D02*
X122547233Y-86220397D01*
X122225051Y-86925051D02*
X122225051Y-86542579D01*
X122547233Y-86220397D02*
X122547233Y-85764761D01*
X110100000Y-77000000D02*
X109600000Y-77500000D01*
D27*
X126600000Y-96600000D02*
X126600000Y-95775000D01*
X126600000Y-95775000D02*
X126925000Y-95450000D01*
X107070000Y-96369998D02*
X112750000Y-96369998D01*
X107070000Y-83229998D02*
X112750000Y-83229998D01*
D26*
X122600000Y-95750000D02*
X116300000Y-102050000D01*
X116300000Y-102050000D02*
X107272182Y-102050000D01*
X107272182Y-102050000D02*
X106950000Y-101727818D01*
X106950000Y-101607106D02*
X104542894Y-99200000D01*
X106950000Y-101727818D02*
X106950000Y-101607106D01*
X104542894Y-99200000D02*
X103250000Y-99200000D01*
X109500000Y-77600000D02*
X109600000Y-77500000D01*
X109500000Y-77500000D02*
X109500000Y-77600000D01*
X109600000Y-77500000D02*
X109500000Y-77500000D01*
X103200000Y-99150000D02*
X103250000Y-99200000D01*
X103250000Y-99150000D02*
X103200000Y-99150000D01*
X103250000Y-99200000D02*
X103250000Y-99150000D01*
X122450000Y-92150000D02*
X115900000Y-98700000D01*
X115900000Y-98700000D02*
X115900000Y-100450000D01*
D27*
X107550000Y-101500000D02*
X107500000Y-101450000D01*
X107500000Y-101500000D02*
X107550000Y-101500000D01*
X107500000Y-101450000D02*
X107500000Y-101500000D01*
X104920000Y-98870000D02*
X107500000Y-101450000D01*
X104920000Y-92033652D02*
X104920000Y-98870000D01*
X110653654Y-86299998D02*
X104920000Y-92033652D01*
X112400000Y-86299998D02*
X110653654Y-86299998D01*
X124950000Y-75400000D02*
X127150000Y-75400000D01*
X127150000Y-75400000D02*
X127500000Y-75050000D01*
D26*
X146350000Y-103100000D02*
X146900000Y-102550000D01*
X146350000Y-104877818D02*
X146350000Y-103100000D01*
X151520000Y-79000000D02*
X151520000Y-100807818D01*
X147127818Y-105200000D02*
X146672182Y-105200000D01*
X146672182Y-105200000D02*
X146350000Y-104877818D01*
X151520000Y-100807818D02*
X147127818Y-105200000D01*
X143900000Y-104750000D02*
X140700000Y-104750000D01*
X150660050Y-82042283D02*
X150660050Y-97989950D01*
X150660050Y-97989950D02*
X143900000Y-104750000D01*
X149817767Y-81200000D02*
X150660050Y-82042283D01*
X148640000Y-81200000D02*
X149817767Y-81200000D01*
X146440000Y-79000000D02*
X148640000Y-81200000D01*
X136800000Y-101000000D02*
X136850000Y-100950000D01*
X136800000Y-100950000D02*
X136800000Y-101000000D01*
X136850000Y-100950000D02*
X136800000Y-100950000D01*
X137275000Y-100525000D02*
X136850000Y-100950000D01*
X137275000Y-96425000D02*
X137275000Y-100525000D01*
X145700000Y-88000000D02*
X137275000Y-96425000D01*
X144750000Y-102500000D02*
X144800000Y-102450000D01*
X144800000Y-102500000D02*
X144750000Y-102500000D01*
X144800000Y-102450000D02*
X144800000Y-102500000D01*
X142900000Y-98450000D02*
X144850000Y-100400000D01*
X142900000Y-92700000D02*
X142900000Y-98450000D01*
X134750000Y-100950000D02*
X134800000Y-100900000D01*
X134750000Y-100900000D02*
X134750000Y-100950000D01*
X134800000Y-100900000D02*
X134750000Y-100900000D01*
X135275000Y-100425000D02*
X134800000Y-100900000D01*
X135275000Y-93525000D02*
X135275000Y-100425000D01*
X142900000Y-85900000D02*
X135275000Y-93525000D01*
D28*
X137050000Y-78100000D02*
X138650000Y-76500000D01*
X138650000Y-76500000D02*
X147855000Y-76500000D01*
X147855000Y-76500000D02*
X149005000Y-75350000D01*
D26*
X136750000Y-88800000D02*
X136800000Y-88750000D01*
X136800000Y-88800000D02*
X136750000Y-88800000D01*
X136800000Y-88750000D02*
X136800000Y-88800000D01*
X137400000Y-88150000D02*
X136800000Y-88750000D01*
X138250000Y-88150000D02*
X137400000Y-88150000D01*
D29*
X130550000Y-100450000D02*
X133150000Y-97850000D01*
D26*
X125900000Y-99100000D02*
X131950000Y-105150000D01*
X131950000Y-105150000D02*
X135950000Y-105150000D01*
X135950000Y-105150000D02*
X140700000Y-100400000D01*
X134800000Y-102900000D02*
X134850000Y-102950000D01*
X134950000Y-103050000D02*
X134800000Y-102900000D01*
X134950000Y-104550000D02*
X134950000Y-103050000D01*
X121400000Y-85538909D02*
X119950000Y-85538909D01*
X121997233Y-85992579D02*
X121724148Y-85992579D01*
X121724148Y-85992579D02*
X121416727Y-86300000D01*
X121416727Y-86300000D02*
X119900000Y-86300000D01*
X130762868Y-89500000D02*
X129892525Y-88629657D01*
X131072792Y-89500000D02*
X130762868Y-89500000D01*
X130422857Y-88099325D02*
X130629225Y-88099325D01*
X130629225Y-88099325D02*
X131798833Y-89268933D01*
X146900000Y-100400000D02*
X146900000Y-100450000D01*
X148980000Y-79000000D02*
X148250000Y-79000000D01*
X146850000Y-100400000D02*
X146900000Y-100400000D01*
X146900000Y-100450000D02*
X146850000Y-100400000D01*
X147040609Y-77550000D02*
X144855026Y-77550000D01*
X144855026Y-77550000D02*
X144505026Y-77900000D01*
X148250000Y-78759391D02*
X147040609Y-77550000D01*
X148250000Y-79000000D02*
X148250000Y-78759391D01*
X146550000Y-95632233D02*
X146550000Y-100100000D01*
X146550000Y-100100000D02*
X146850000Y-100400000D01*
X144505026Y-77900000D02*
X142800000Y-77900000D01*
X146750000Y-95432233D02*
X146550000Y-95632233D01*
X146750000Y-84050000D02*
X146750000Y-95432233D01*
X142800000Y-77900000D02*
X142800000Y-80100000D01*
X142800000Y-80100000D02*
X146750000Y-84050000D01*
G04 #@! TA.AperFunction,Conductor*
G36*
X150818834Y-98287941D02*
G01*
X150874767Y-98329813D01*
X150899184Y-98395277D01*
X150899500Y-98404123D01*
X150899500Y-100527720D01*
X150879815Y-100594759D01*
X150863181Y-100615401D01*
X147253183Y-104225398D01*
X147191860Y-104258883D01*
X147122168Y-104253899D01*
X147098464Y-104242034D01*
X147089069Y-104235996D01*
X147089067Y-104235995D01*
X147089065Y-104235994D01*
X146964774Y-104199500D01*
X146964772Y-104199500D01*
X146835228Y-104199500D01*
X146759433Y-104221754D01*
X146689563Y-104221753D01*
X146630786Y-104183977D01*
X146601762Y-104120421D01*
X146600500Y-104102776D01*
X146600500Y-103255122D01*
X146620185Y-103188083D01*
X146636815Y-103167445D01*
X146767441Y-103036818D01*
X146828764Y-103003334D01*
X146855122Y-103000500D01*
X146964773Y-103000500D01*
X146964773Y-103000499D01*
X147089069Y-102964004D01*
X147198049Y-102893967D01*
X147282882Y-102796063D01*
X147336697Y-102678226D01*
X147355133Y-102550000D01*
X147336697Y-102421774D01*
X147282882Y-102303937D01*
X147198049Y-102206033D01*
X147089069Y-102135996D01*
X147089065Y-102135994D01*
X147084097Y-102132802D01*
X147038342Y-102079998D01*
X147028398Y-102010840D01*
X147057422Y-101947284D01*
X147063441Y-101940819D01*
X150687819Y-98316442D01*
X150749142Y-98282957D01*
X150818834Y-98287941D01*
G37*
G04 #@! TD.AperFunction*
G04 #@! TA.AperFunction,Conductor*
G36*
X146442539Y-88970185D02*
G01*
X146488294Y-89022989D01*
X146499500Y-89074500D01*
X146499500Y-89764347D01*
X146479815Y-89831386D01*
X146427011Y-89877141D01*
X146357853Y-89887085D01*
X146296836Y-89860201D01*
X146230625Y-89805864D01*
X146230623Y-89805862D01*
X146065502Y-89717604D01*
X145886333Y-89663253D01*
X145886331Y-89663252D01*
X145700000Y-89644901D01*
X145513668Y-89663252D01*
X145513666Y-89663253D01*
X145334497Y-89717604D01*
X145169376Y-89805862D01*
X145169373Y-89805864D01*
X145024642Y-89924642D01*
X144905864Y-90069373D01*
X144905862Y-90069376D01*
X144817604Y-90234497D01*
X144763253Y-90413666D01*
X144763252Y-90413668D01*
X144744901Y-90600000D01*
X144763252Y-90786331D01*
X144763253Y-90786333D01*
X144817602Y-90965497D01*
X144817603Y-90965500D01*
X144830902Y-90990380D01*
X144845143Y-91058783D01*
X144820142Y-91124027D01*
X144809224Y-91136513D01*
X144290662Y-91655076D01*
X144290661Y-91655076D01*
X144290662Y-91655077D01*
X144237636Y-91708103D01*
X144199500Y-91800170D01*
X144199500Y-99095877D01*
X144179815Y-99162916D01*
X144127011Y-99208671D01*
X144057853Y-99218615D01*
X143994297Y-99189590D01*
X143987819Y-99183558D01*
X143186819Y-98382558D01*
X143153334Y-98321235D01*
X143150500Y-98294877D01*
X143150500Y-93709245D01*
X143170185Y-93642206D01*
X143222989Y-93596451D01*
X143238500Y-93590586D01*
X143265501Y-93582396D01*
X143430625Y-93494136D01*
X143575357Y-93375357D01*
X143694136Y-93230625D01*
X143782396Y-93065501D01*
X143836747Y-92886331D01*
X143855099Y-92700000D01*
X143836747Y-92513669D01*
X143782396Y-92334499D01*
X143710262Y-92199545D01*
X143694137Y-92169376D01*
X143694135Y-92169373D01*
X143575357Y-92024642D01*
X143430624Y-91905863D01*
X143430623Y-91905862D01*
X143265502Y-91817604D01*
X143086333Y-91763253D01*
X143086331Y-91763252D01*
X142900000Y-91744901D01*
X142713670Y-91763252D01*
X142580685Y-91803593D01*
X142510818Y-91804216D01*
X142451705Y-91766968D01*
X142422114Y-91703673D01*
X142431441Y-91634429D01*
X142457006Y-91597254D01*
X145067442Y-88986819D01*
X145128765Y-88953334D01*
X145155123Y-88950500D01*
X146375500Y-88950500D01*
X146442539Y-88970185D01*
G37*
G04 #@! TD.AperFunction*
G04 #@! TA.AperFunction,Conductor*
G36*
X147334075Y-95957007D02*
G01*
X147300000Y-96084174D01*
X147300000Y-96215826D01*
X147334075Y-96342993D01*
X147366988Y-96400000D01*
X146924500Y-96400000D01*
X146857461Y-96380315D01*
X146811706Y-96327511D01*
X146800500Y-96276000D01*
X146800500Y-96024000D01*
X146820185Y-95956961D01*
X146872989Y-95911206D01*
X146924500Y-95900000D01*
X147366988Y-95900000D01*
X147334075Y-95957007D01*
G37*
G04 #@! TD.AperFunction*
G04 #@! TA.AperFunction,Conductor*
G36*
X148800000Y-83950000D02*
G01*
X149418052Y-83950000D01*
X149651247Y-83913065D01*
X149875802Y-83840102D01*
X150086171Y-83732914D01*
X150212664Y-83641012D01*
X150278471Y-83617532D01*
X150346525Y-83633357D01*
X150395220Y-83683463D01*
X150409550Y-83741330D01*
X150409550Y-86972342D01*
X150389865Y-87039381D01*
X150337061Y-87085136D01*
X150267903Y-87095080D01*
X150212665Y-87072660D01*
X150136175Y-87017087D01*
X149925802Y-86909897D01*
X149701247Y-86836934D01*
X149600000Y-86820897D01*
X149600000Y-87866988D01*
X149542993Y-87834075D01*
X149415826Y-87800000D01*
X149284174Y-87800000D01*
X149157007Y-87834075D01*
X149100000Y-87866988D01*
X149100000Y-86820897D01*
X148998752Y-86836934D01*
X148774197Y-86909897D01*
X148563828Y-87017085D01*
X148372813Y-87155866D01*
X148205866Y-87322813D01*
X148067085Y-87513828D01*
X147959897Y-87724197D01*
X147886934Y-87948752D01*
X147850000Y-88181947D01*
X147850000Y-89050000D01*
X148850000Y-89050000D01*
X148850000Y-89550000D01*
X147850000Y-89550000D01*
X147850000Y-90418052D01*
X147886934Y-90651247D01*
X147959897Y-90875802D01*
X148067085Y-91086171D01*
X148205866Y-91277186D01*
X148372813Y-91444133D01*
X148563828Y-91582914D01*
X148774195Y-91690102D01*
X148998744Y-91763063D01*
X148998750Y-91763065D01*
X149100000Y-91779101D01*
X149100000Y-90733012D01*
X149157007Y-90765925D01*
X149284174Y-90800000D01*
X149415826Y-90800000D01*
X149542993Y-90765925D01*
X149600000Y-90733012D01*
X149600000Y-91779100D01*
X149701249Y-91763065D01*
X149701255Y-91763063D01*
X149925804Y-91690102D01*
X150136171Y-91582914D01*
X150212664Y-91527339D01*
X150278470Y-91503859D01*
X150346524Y-91519684D01*
X150395219Y-91569790D01*
X150409550Y-91627657D01*
X150409550Y-94858669D01*
X150389865Y-94925708D01*
X150337061Y-94971463D01*
X150267903Y-94981407D01*
X150212665Y-94958987D01*
X150086174Y-94867087D01*
X149875802Y-94759897D01*
X149651247Y-94686934D01*
X149651248Y-94686934D01*
X149418052Y-94650000D01*
X148800000Y-94650000D01*
X148800000Y-95650000D01*
X148300000Y-95650000D01*
X148300000Y-94650000D01*
X147681948Y-94650000D01*
X147448752Y-94686934D01*
X147224197Y-94759897D01*
X147180793Y-94782012D01*
X147112124Y-94794907D01*
X147047384Y-94768630D01*
X147007128Y-94711523D01*
X147000500Y-94671526D01*
X147000500Y-85956459D01*
X147000972Y-85945651D01*
X147004966Y-85900000D01*
X147004966Y-85899997D01*
X147000972Y-85854346D01*
X147000500Y-85843539D01*
X147000500Y-84114270D01*
X147000501Y-84114261D01*
X147000501Y-84000174D01*
X147000500Y-84000170D01*
X146985246Y-83963344D01*
X146977777Y-83893875D01*
X147009052Y-83831396D01*
X147069140Y-83795743D01*
X147138965Y-83798236D01*
X147156102Y-83805406D01*
X147224197Y-83840102D01*
X147448752Y-83913065D01*
X147448751Y-83913065D01*
X147681948Y-83950000D01*
X148300000Y-83950000D01*
X148300000Y-82950000D01*
X148800000Y-82950000D01*
X148800000Y-83950000D01*
G37*
G04 #@! TD.AperFunction*
G04 #@! TA.AperFunction,Conductor*
G36*
X145647739Y-78170185D02*
G01*
X145693494Y-78222989D01*
X145703438Y-78292147D01*
X145676553Y-78353165D01*
X145604090Y-78441460D01*
X145604086Y-78441467D01*
X145511188Y-78615266D01*
X145453975Y-78803870D01*
X145434659Y-79000000D01*
X145453975Y-79196129D01*
X145511188Y-79384733D01*
X145604086Y-79558532D01*
X145604090Y-79558539D01*
X145729116Y-79710883D01*
X145881460Y-79835909D01*
X145881467Y-79835913D01*
X146055266Y-79928811D01*
X146055269Y-79928811D01*
X146055273Y-79928814D01*
X146243868Y-79986024D01*
X146440000Y-80005341D01*
X146636132Y-79986024D01*
X146824727Y-79928814D01*
X146867324Y-79906044D01*
X146935727Y-79891802D01*
X147000971Y-79916801D01*
X147013460Y-79927721D01*
X147685239Y-80599500D01*
X147824059Y-80738319D01*
X147857544Y-80799642D01*
X147852560Y-80869333D01*
X147810688Y-80925267D01*
X147745224Y-80949684D01*
X147736378Y-80950000D01*
X147681948Y-80950000D01*
X147448752Y-80986934D01*
X147224197Y-81059897D01*
X147013828Y-81167085D01*
X146822813Y-81305866D01*
X146655866Y-81472813D01*
X146517085Y-81663828D01*
X146409897Y-81874197D01*
X146336934Y-82098752D01*
X146320898Y-82200000D01*
X147366988Y-82200000D01*
X147334075Y-82257007D01*
X147300000Y-82384174D01*
X147300000Y-82515826D01*
X147334075Y-82642993D01*
X147366988Y-82700000D01*
X146320898Y-82700000D01*
X146336934Y-82801247D01*
X146409042Y-83023170D01*
X146411037Y-83093011D01*
X146374957Y-83152844D01*
X146312256Y-83183672D01*
X146242842Y-83175707D01*
X146203430Y-83149169D01*
X143266442Y-80212181D01*
X143232957Y-80150858D01*
X143237941Y-80081166D01*
X143279813Y-80025233D01*
X143345277Y-80000816D01*
X143354123Y-80000500D01*
X144764822Y-80000500D01*
X144808717Y-79991768D01*
X144808717Y-79991767D01*
X144808722Y-79991767D01*
X144858504Y-79958504D01*
X144891767Y-79908722D01*
X144899974Y-79867466D01*
X144900500Y-79864822D01*
X144900500Y-78405122D01*
X144920185Y-78338083D01*
X144936819Y-78317441D01*
X145067441Y-78186819D01*
X145128764Y-78153334D01*
X145155122Y-78150500D01*
X145580700Y-78150500D01*
X145647739Y-78170185D01*
G37*
G04 #@! TD.AperFunction*
G04 #@! TA.AperFunction,Conductor*
G36*
X115144455Y-82682782D02*
G01*
X115170776Y-82702855D01*
X119459818Y-86991897D01*
X119530285Y-87062364D01*
X119622354Y-87100500D01*
X121444877Y-87100500D01*
X121511916Y-87120185D01*
X121532558Y-87136819D01*
X122313181Y-87917441D01*
X122346666Y-87978764D01*
X122348260Y-87993596D01*
X122349500Y-87999829D01*
X122387636Y-88091897D01*
X123063181Y-88767442D01*
X123096666Y-88828765D01*
X123099500Y-88855123D01*
X123099500Y-91368059D01*
X123079815Y-91435098D01*
X123027011Y-91480853D01*
X122957853Y-91490797D01*
X122894297Y-91461772D01*
X122887819Y-91455740D01*
X122819715Y-91387636D01*
X122727647Y-91349500D01*
X122727646Y-91349500D01*
X120572010Y-91349500D01*
X120472354Y-91349500D01*
X120472352Y-91349500D01*
X120380284Y-91387636D01*
X117487636Y-94280284D01*
X117449500Y-94372352D01*
X117449500Y-95044876D01*
X117429815Y-95111915D01*
X117413181Y-95132557D01*
X114896659Y-97649079D01*
X114835336Y-97682564D01*
X114765644Y-97677580D01*
X114709711Y-97635708D01*
X114685294Y-97570244D01*
X114700146Y-97501971D01*
X114701594Y-97499392D01*
X114702742Y-97497403D01*
X114833187Y-97232886D01*
X114927994Y-96953597D01*
X114927998Y-96953582D01*
X114985535Y-96664322D01*
X114985537Y-96664310D01*
X115004827Y-96369998D01*
X114985537Y-96075685D01*
X114985535Y-96075673D01*
X114927998Y-95786413D01*
X114927994Y-95786398D01*
X114833187Y-95507109D01*
X114702741Y-95242591D01*
X114702734Y-95242578D01*
X114538876Y-94997348D01*
X114509593Y-94963956D01*
X113722086Y-95751463D01*
X113627171Y-95620823D01*
X113499175Y-95492827D01*
X113368533Y-95397910D01*
X114156040Y-94610403D01*
X114122649Y-94581121D01*
X113877419Y-94417263D01*
X113877406Y-94417256D01*
X113612888Y-94286810D01*
X113464096Y-94236301D01*
X113406942Y-94196112D01*
X113380589Y-94131402D01*
X113393404Y-94062718D01*
X113402381Y-94047758D01*
X113486662Y-93927392D01*
X113486666Y-93927386D01*
X113579101Y-93729157D01*
X113579105Y-93729148D01*
X113635710Y-93517892D01*
X113635712Y-93517882D01*
X113654775Y-93299998D01*
X113654775Y-93299997D01*
X113635712Y-93082113D01*
X113635710Y-93082103D01*
X113579105Y-92870847D01*
X113579101Y-92870838D01*
X113486667Y-92672612D01*
X113486666Y-92672610D01*
X113443124Y-92610426D01*
X113443124Y-92610425D01*
X112850302Y-93203247D01*
X112828651Y-93122445D01*
X112768091Y-93017552D01*
X112682446Y-92931907D01*
X112577553Y-92871347D01*
X112496749Y-92849695D01*
X113089571Y-92256872D01*
X113027387Y-92213331D01*
X112829159Y-92120896D01*
X112829150Y-92120892D01*
X112617894Y-92064287D01*
X112617884Y-92064285D01*
X112400001Y-92045223D01*
X112399999Y-92045223D01*
X112182115Y-92064285D01*
X112182105Y-92064287D01*
X111970849Y-92120892D01*
X111970840Y-92120896D01*
X111772613Y-92213331D01*
X111710428Y-92256872D01*
X112303251Y-92849695D01*
X112222447Y-92871347D01*
X112117554Y-92931907D01*
X112031909Y-93017552D01*
X111971349Y-93122445D01*
X111949697Y-93203249D01*
X111356874Y-92610426D01*
X111313333Y-92672611D01*
X111220898Y-92870838D01*
X111220894Y-92870847D01*
X111209775Y-92912347D01*
X111173410Y-92972008D01*
X111110563Y-93002537D01*
X111041188Y-92994242D01*
X110987310Y-92949757D01*
X110970225Y-92912347D01*
X110959105Y-92870847D01*
X110959101Y-92870838D01*
X110866667Y-92672612D01*
X110866666Y-92672610D01*
X110823124Y-92610426D01*
X110823124Y-92610425D01*
X110230302Y-93203247D01*
X110208651Y-93122445D01*
X110148091Y-93017552D01*
X110062446Y-92931907D01*
X109957553Y-92871347D01*
X109876749Y-92849695D01*
X110469571Y-92256872D01*
X110407387Y-92213331D01*
X110209159Y-92120896D01*
X110209150Y-92120892D01*
X109997894Y-92064287D01*
X109997884Y-92064285D01*
X109780001Y-92045223D01*
X109779999Y-92045223D01*
X109562115Y-92064285D01*
X109562105Y-92064287D01*
X109350849Y-92120892D01*
X109350840Y-92120896D01*
X109152613Y-92213331D01*
X109090428Y-92256872D01*
X109683251Y-92849695D01*
X109602447Y-92871347D01*
X109497554Y-92931907D01*
X109411909Y-93017552D01*
X109351349Y-93122445D01*
X109329697Y-93203249D01*
X108736874Y-92610426D01*
X108693333Y-92672611D01*
X108600898Y-92870838D01*
X108600894Y-92870847D01*
X108544289Y-93082103D01*
X108544287Y-93082113D01*
X108525225Y-93299997D01*
X108525225Y-93299998D01*
X108544287Y-93517882D01*
X108544289Y-93517892D01*
X108600894Y-93729148D01*
X108600898Y-93729157D01*
X108693333Y-93927385D01*
X108736874Y-93989569D01*
X109329697Y-93396746D01*
X109351349Y-93477551D01*
X109411909Y-93582444D01*
X109497554Y-93668089D01*
X109602447Y-93728649D01*
X109683250Y-93750300D01*
X109090427Y-94343122D01*
X109152612Y-94386664D01*
X109350840Y-94479099D01*
X109350849Y-94479103D01*
X109562105Y-94535708D01*
X109562115Y-94535710D01*
X109779999Y-94554773D01*
X109780001Y-94554773D01*
X109997884Y-94535710D01*
X109997894Y-94535708D01*
X110209150Y-94479103D01*
X110209164Y-94479098D01*
X110407383Y-94386667D01*
X110407385Y-94386666D01*
X110469571Y-94343122D01*
X109876750Y-93750300D01*
X109957553Y-93728649D01*
X110062446Y-93668089D01*
X110148091Y-93582444D01*
X110208651Y-93477551D01*
X110230302Y-93396747D01*
X110823124Y-93989568D01*
X110866668Y-93927383D01*
X110866669Y-93927381D01*
X110959100Y-93729162D01*
X110959105Y-93729148D01*
X110970225Y-93687648D01*
X111006589Y-93627988D01*
X111069436Y-93597458D01*
X111138812Y-93605752D01*
X111192690Y-93650237D01*
X111209775Y-93687648D01*
X111220894Y-93729148D01*
X111220898Y-93729157D01*
X111313333Y-93927385D01*
X111356874Y-93989569D01*
X111949697Y-93396746D01*
X111971349Y-93477551D01*
X112031909Y-93582444D01*
X112117554Y-93668089D01*
X112222447Y-93728649D01*
X112303250Y-93750300D01*
X111669541Y-94384009D01*
X111667417Y-94381885D01*
X111643228Y-94406852D01*
X111636941Y-94410180D01*
X111622585Y-94417260D01*
X111377346Y-94581124D01*
X111377339Y-94581129D01*
X111343959Y-94610401D01*
X111343959Y-94610403D01*
X112131466Y-95397910D01*
X112000825Y-95492827D01*
X111872829Y-95620823D01*
X111777913Y-95751464D01*
X110990405Y-94963957D01*
X110990403Y-94963957D01*
X110961131Y-94997337D01*
X110961126Y-94997344D01*
X110797265Y-95242578D01*
X110797258Y-95242591D01*
X110666812Y-95507109D01*
X110572005Y-95786398D01*
X110572001Y-95786413D01*
X110514464Y-96075673D01*
X110514462Y-96075685D01*
X110495172Y-96369998D01*
X110514462Y-96664310D01*
X110514464Y-96664322D01*
X110572001Y-96953582D01*
X110572005Y-96953597D01*
X110666812Y-97232886D01*
X110797258Y-97497404D01*
X110797265Y-97497417D01*
X110961123Y-97742647D01*
X110990405Y-97776038D01*
X111777912Y-96988530D01*
X111872829Y-97119173D01*
X112000825Y-97247169D01*
X112131465Y-97342084D01*
X111343958Y-98129591D01*
X111377350Y-98158874D01*
X111622580Y-98322732D01*
X111622593Y-98322739D01*
X111887111Y-98453185D01*
X112166400Y-98547992D01*
X112166415Y-98547996D01*
X112455675Y-98605533D01*
X112455687Y-98605535D01*
X112750000Y-98624825D01*
X113044312Y-98605535D01*
X113044324Y-98605533D01*
X113333584Y-98547996D01*
X113333599Y-98547992D01*
X113612888Y-98453185D01*
X113877398Y-98322743D01*
X113879384Y-98321597D01*
X113880053Y-98321434D01*
X113881054Y-98320941D01*
X113881164Y-98321164D01*
X113947282Y-98305116D01*
X114013312Y-98327959D01*
X114056510Y-98382874D01*
X114063161Y-98452427D01*
X114031154Y-98514534D01*
X114029080Y-98516657D01*
X113200662Y-99345076D01*
X113147637Y-99398100D01*
X113136540Y-99424891D01*
X113092698Y-99479294D01*
X113057976Y-99496097D01*
X112975273Y-99521185D01*
X112975269Y-99521187D01*
X112801467Y-99614086D01*
X112801460Y-99614090D01*
X112649116Y-99739116D01*
X112524090Y-99891460D01*
X112524086Y-99891467D01*
X112431186Y-100065271D01*
X112412660Y-100126343D01*
X112374363Y-100184781D01*
X112310550Y-100213238D01*
X112241483Y-100202677D01*
X112189090Y-100156452D01*
X112170000Y-100090347D01*
X112170000Y-99552172D01*
X112169999Y-99552155D01*
X112163598Y-99492627D01*
X112163596Y-99492620D01*
X112113354Y-99357913D01*
X112113350Y-99357906D01*
X112027190Y-99242812D01*
X112027187Y-99242809D01*
X111912093Y-99156649D01*
X111912086Y-99156645D01*
X111777379Y-99106403D01*
X111777372Y-99106401D01*
X111717844Y-99100000D01*
X111070000Y-99100000D01*
X111070000Y-100016988D01*
X111012993Y-99984075D01*
X110885826Y-99950000D01*
X110754174Y-99950000D01*
X110627007Y-99984075D01*
X110570000Y-100016988D01*
X110570000Y-99100000D01*
X109922155Y-99100000D01*
X109862627Y-99106401D01*
X109862620Y-99106403D01*
X109727913Y-99156645D01*
X109727906Y-99156649D01*
X109612812Y-99242809D01*
X109612809Y-99242812D01*
X109526649Y-99357906D01*
X109526645Y-99357913D01*
X109476403Y-99492620D01*
X109476401Y-99492627D01*
X109470000Y-99552155D01*
X109470000Y-100200000D01*
X110386988Y-100200000D01*
X110354075Y-100257007D01*
X110320000Y-100384174D01*
X110320000Y-100515826D01*
X110354075Y-100642993D01*
X110386988Y-100700000D01*
X109470000Y-100700000D01*
X109470000Y-101347844D01*
X109476401Y-101407372D01*
X109476403Y-101407379D01*
X109526645Y-101542086D01*
X109526647Y-101542089D01*
X109570889Y-101601188D01*
X109595307Y-101666652D01*
X109580456Y-101734926D01*
X109531051Y-101784331D01*
X109471623Y-101799500D01*
X108051427Y-101799500D01*
X107984388Y-101779815D01*
X107938633Y-101727011D01*
X107928689Y-101657853D01*
X107934833Y-101636925D01*
X107934198Y-101636739D01*
X107936696Y-101628228D01*
X107936695Y-101628228D01*
X107936697Y-101628226D01*
X107943085Y-101583787D01*
X107946050Y-101569337D01*
X107950501Y-101552728D01*
X107950501Y-101541085D01*
X107951763Y-101523438D01*
X107955133Y-101499999D01*
X107951763Y-101476559D01*
X107950501Y-101458913D01*
X107950501Y-101447273D01*
X107946049Y-101430661D01*
X107943085Y-101416208D01*
X107940827Y-101400500D01*
X107936697Y-101371774D01*
X107882882Y-101253937D01*
X107798049Y-101156033D01*
X107737555Y-101117156D01*
X107716917Y-101100524D01*
X105356819Y-98740426D01*
X105323334Y-98679103D01*
X105320500Y-98652745D01*
X105320500Y-97817306D01*
X105340185Y-97750267D01*
X105356819Y-97729625D01*
X106097912Y-96988531D01*
X106192829Y-97119173D01*
X106320825Y-97247169D01*
X106451465Y-97342084D01*
X105663958Y-98129591D01*
X105697350Y-98158874D01*
X105942580Y-98322732D01*
X105942593Y-98322739D01*
X106207111Y-98453185D01*
X106486400Y-98547992D01*
X106486415Y-98547996D01*
X106775675Y-98605533D01*
X106775687Y-98605535D01*
X107070000Y-98624825D01*
X107364312Y-98605535D01*
X107364324Y-98605533D01*
X107653584Y-98547996D01*
X107653599Y-98547992D01*
X107932888Y-98453185D01*
X108197406Y-98322739D01*
X108197419Y-98322732D01*
X108442648Y-98158875D01*
X108476039Y-98129591D01*
X107688533Y-97342084D01*
X107819175Y-97247169D01*
X107947171Y-97119173D01*
X108042086Y-96988531D01*
X108829593Y-97776037D01*
X108858877Y-97742646D01*
X109022734Y-97497417D01*
X109022741Y-97497404D01*
X109153187Y-97232886D01*
X109247994Y-96953597D01*
X109247998Y-96953582D01*
X109305535Y-96664322D01*
X109305537Y-96664310D01*
X109324827Y-96369998D01*
X109305537Y-96075685D01*
X109305535Y-96075673D01*
X109247998Y-95786413D01*
X109247994Y-95786398D01*
X109153187Y-95507109D01*
X109022741Y-95242591D01*
X109022734Y-95242578D01*
X108858876Y-94997348D01*
X108829593Y-94963956D01*
X108042086Y-95751463D01*
X107947171Y-95620823D01*
X107819175Y-95492827D01*
X107688533Y-95397910D01*
X108476040Y-94610403D01*
X108442649Y-94581121D01*
X108197419Y-94417263D01*
X108197406Y-94417256D01*
X107932888Y-94286810D01*
X107653599Y-94192003D01*
X107653584Y-94191999D01*
X107364324Y-94134462D01*
X107364312Y-94134460D01*
X107070000Y-94115170D01*
X106775687Y-94134460D01*
X106775675Y-94134462D01*
X106486415Y-94191999D01*
X106486400Y-94192003D01*
X106207111Y-94286810D01*
X105942593Y-94417256D01*
X105942580Y-94417263D01*
X105697346Y-94581124D01*
X105697339Y-94581129D01*
X105663959Y-94610401D01*
X105663959Y-94610403D01*
X106451466Y-95397910D01*
X106320825Y-95492827D01*
X106192829Y-95620823D01*
X106097913Y-95751464D01*
X105356819Y-95010370D01*
X105323334Y-94949047D01*
X105320500Y-94922689D01*
X105320500Y-92250906D01*
X105340185Y-92183867D01*
X105356814Y-92163230D01*
X108676019Y-88844024D01*
X108737342Y-88810540D01*
X108807034Y-88815524D01*
X108862967Y-88857396D01*
X108887020Y-88918741D01*
X108894326Y-88988254D01*
X108894327Y-88988257D01*
X108952818Y-89168275D01*
X108952821Y-89168282D01*
X109047467Y-89332214D01*
X109105943Y-89397158D01*
X109174129Y-89472886D01*
X109327265Y-89584146D01*
X109327270Y-89584149D01*
X109500192Y-89661140D01*
X109500197Y-89661142D01*
X109582839Y-89678708D01*
X109644321Y-89711900D01*
X109678097Y-89773063D01*
X109673445Y-89842778D01*
X109631840Y-89898910D01*
X109582839Y-89921288D01*
X109500197Y-89938853D01*
X109500192Y-89938855D01*
X109327270Y-90015846D01*
X109327265Y-90015849D01*
X109174129Y-90127109D01*
X109047466Y-90267783D01*
X108952821Y-90431713D01*
X108952818Y-90431720D01*
X108894327Y-90611738D01*
X108894326Y-90611742D01*
X108874540Y-90799998D01*
X108894326Y-90988254D01*
X108894327Y-90988257D01*
X108952818Y-91168275D01*
X108952821Y-91168282D01*
X109047467Y-91332214D01*
X109140603Y-91435652D01*
X109174129Y-91472886D01*
X109327265Y-91584146D01*
X109327270Y-91584149D01*
X109500192Y-91661140D01*
X109500197Y-91661142D01*
X109685354Y-91700498D01*
X109685355Y-91700498D01*
X109874644Y-91700498D01*
X109874646Y-91700498D01*
X110059803Y-91661142D01*
X110232730Y-91584149D01*
X110385871Y-91472886D01*
X110512533Y-91332214D01*
X110607179Y-91168282D01*
X110665674Y-90988254D01*
X110685460Y-90799998D01*
X110665674Y-90611742D01*
X110607179Y-90431714D01*
X110512533Y-90267782D01*
X110385871Y-90127110D01*
X110385870Y-90127109D01*
X110232734Y-90015849D01*
X110232729Y-90015846D01*
X110059807Y-89938855D01*
X110059800Y-89938853D01*
X109977161Y-89921288D01*
X109915679Y-89888096D01*
X109881902Y-89826933D01*
X109886554Y-89757219D01*
X109928158Y-89701086D01*
X109977161Y-89678708D01*
X109991058Y-89675754D01*
X110059803Y-89661142D01*
X110232730Y-89584149D01*
X110385871Y-89472886D01*
X110512533Y-89332214D01*
X110607179Y-89168282D01*
X110665674Y-88988254D01*
X110685460Y-88799998D01*
X111494540Y-88799998D01*
X111514326Y-88988254D01*
X111514327Y-88988257D01*
X111572818Y-89168275D01*
X111572821Y-89168282D01*
X111667467Y-89332214D01*
X111725943Y-89397158D01*
X111794129Y-89472886D01*
X111947265Y-89584146D01*
X111947270Y-89584149D01*
X112120192Y-89661140D01*
X112120197Y-89661142D01*
X112202839Y-89678708D01*
X112264321Y-89711900D01*
X112298097Y-89773063D01*
X112293445Y-89842778D01*
X112251840Y-89898910D01*
X112202839Y-89921288D01*
X112120197Y-89938853D01*
X112120192Y-89938855D01*
X111947270Y-90015846D01*
X111947265Y-90015849D01*
X111794129Y-90127109D01*
X111667466Y-90267783D01*
X111572821Y-90431713D01*
X111572818Y-90431720D01*
X111514327Y-90611738D01*
X111514326Y-90611742D01*
X111494540Y-90799998D01*
X111514326Y-90988254D01*
X111514327Y-90988257D01*
X111572818Y-91168275D01*
X111572821Y-91168282D01*
X111667467Y-91332214D01*
X111760603Y-91435652D01*
X111794129Y-91472886D01*
X111947265Y-91584146D01*
X111947270Y-91584149D01*
X112120192Y-91661140D01*
X112120197Y-91661142D01*
X112305354Y-91700498D01*
X112305355Y-91700498D01*
X112494644Y-91700498D01*
X112494646Y-91700498D01*
X112679803Y-91661142D01*
X112852730Y-91584149D01*
X113005871Y-91472886D01*
X113132533Y-91332214D01*
X113227179Y-91168282D01*
X113285674Y-90988254D01*
X113305460Y-90799998D01*
X113285674Y-90611742D01*
X113227179Y-90431714D01*
X113132533Y-90267782D01*
X113005871Y-90127110D01*
X113005870Y-90127109D01*
X112852734Y-90015849D01*
X112852729Y-90015846D01*
X112679807Y-89938855D01*
X112679800Y-89938853D01*
X112597161Y-89921288D01*
X112535679Y-89888096D01*
X112501902Y-89826933D01*
X112506554Y-89757219D01*
X112548158Y-89701086D01*
X112597161Y-89678708D01*
X112611058Y-89675754D01*
X112679803Y-89661142D01*
X112852730Y-89584149D01*
X113005871Y-89472886D01*
X113132533Y-89332214D01*
X113227179Y-89168282D01*
X113285674Y-88988254D01*
X113305460Y-88799998D01*
X113285674Y-88611742D01*
X113227179Y-88431714D01*
X113132533Y-88267782D01*
X113005871Y-88127110D01*
X113005870Y-88127109D01*
X112852734Y-88015849D01*
X112852729Y-88015846D01*
X112679807Y-87938855D01*
X112679802Y-87938853D01*
X112521439Y-87905193D01*
X112494646Y-87899498D01*
X112305354Y-87899498D01*
X112278561Y-87905193D01*
X112120197Y-87938853D01*
X112120192Y-87938855D01*
X111947270Y-88015846D01*
X111947265Y-88015849D01*
X111794129Y-88127109D01*
X111667466Y-88267783D01*
X111572821Y-88431713D01*
X111572818Y-88431720D01*
X111514327Y-88611738D01*
X111514326Y-88611742D01*
X111494540Y-88799998D01*
X110685460Y-88799998D01*
X110665674Y-88611742D01*
X110607179Y-88431714D01*
X110512533Y-88267782D01*
X110385871Y-88127110D01*
X110385870Y-88127109D01*
X110232727Y-88015844D01*
X110227104Y-88012598D01*
X110228202Y-88010694D01*
X110182715Y-87972040D01*
X110162386Y-87905193D01*
X110181424Y-87837967D01*
X110198695Y-87816322D01*
X110428201Y-87586817D01*
X110489524Y-87553332D01*
X110515882Y-87550498D01*
X110829826Y-87550498D01*
X110829828Y-87550498D01*
X110921897Y-87512362D01*
X110992364Y-87441895D01*
X111030500Y-87349826D01*
X111030500Y-87174498D01*
X111050185Y-87107459D01*
X111102989Y-87061704D01*
X111154500Y-87050498D01*
X111330663Y-87050498D01*
X111397702Y-87070183D01*
X111418344Y-87086817D01*
X111766351Y-87434823D01*
X111766354Y-87434827D01*
X111766355Y-87434827D01*
X111773421Y-87441893D01*
X111773422Y-87441895D01*
X111843888Y-87512361D01*
X111843889Y-87512362D01*
X111870854Y-87523532D01*
X111935955Y-87550498D01*
X111935956Y-87550498D01*
X111935958Y-87550499D01*
X111935959Y-87550499D01*
X112050048Y-87550499D01*
X112050056Y-87550498D01*
X112864040Y-87550498D01*
X112864042Y-87550498D01*
X112956111Y-87512362D01*
X113524455Y-86944015D01*
X113524458Y-86944014D01*
X113541896Y-86926576D01*
X113541897Y-86926576D01*
X113612364Y-86856109D01*
X113642897Y-86782396D01*
X113650501Y-86764039D01*
X113650501Y-86664384D01*
X113650501Y-86654395D01*
X113650500Y-86654381D01*
X113650500Y-85835957D01*
X113650499Y-85835954D01*
X113633300Y-85794432D01*
X113612364Y-85743887D01*
X113541897Y-85673420D01*
X113431949Y-85563472D01*
X113398464Y-85502149D01*
X113403448Y-85432457D01*
X113445320Y-85376524D01*
X113479772Y-85358371D01*
X113612893Y-85313183D01*
X113877406Y-85182739D01*
X113877419Y-85182732D01*
X114122648Y-85018875D01*
X114156039Y-84989591D01*
X113368533Y-84202084D01*
X113499175Y-84107169D01*
X113627171Y-83979173D01*
X113722086Y-83848531D01*
X114509593Y-84636037D01*
X114538877Y-84602646D01*
X114702734Y-84357417D01*
X114702741Y-84357404D01*
X114833187Y-84092886D01*
X114927994Y-83813597D01*
X114927998Y-83813582D01*
X114985535Y-83524322D01*
X114985537Y-83524310D01*
X115004827Y-83229998D01*
X114985537Y-82935685D01*
X114985536Y-82935673D01*
X114961478Y-82814727D01*
X114967705Y-82745136D01*
X115010568Y-82689958D01*
X115076458Y-82666714D01*
X115144455Y-82682782D01*
G37*
G04 #@! TD.AperFunction*
G04 #@! TA.AperFunction,Conductor*
G36*
X121965613Y-91870185D02*
G01*
X122011368Y-91922989D01*
X122021312Y-91992147D01*
X122015164Y-92013080D01*
X122015801Y-92013267D01*
X122013302Y-92021773D01*
X121994867Y-92150000D01*
X121994867Y-92150002D01*
X121998713Y-92176756D01*
X121988768Y-92245915D01*
X121963656Y-92282082D01*
X115740661Y-98505076D01*
X115740662Y-98505077D01*
X115687636Y-98558103D01*
X115649500Y-98650170D01*
X115649500Y-99388504D01*
X115629815Y-99455543D01*
X115577011Y-99501298D01*
X115561496Y-99507164D01*
X115515271Y-99521186D01*
X115341467Y-99614086D01*
X115341460Y-99614090D01*
X115189116Y-99739116D01*
X115064090Y-99891460D01*
X115064086Y-99891467D01*
X114971188Y-100065266D01*
X114913975Y-100253870D01*
X114894659Y-100450000D01*
X114913975Y-100646129D01*
X114971188Y-100834733D01*
X115064086Y-101008532D01*
X115064090Y-101008539D01*
X115189116Y-101160883D01*
X115341460Y-101285909D01*
X115341467Y-101285913D01*
X115515266Y-101378811D01*
X115515269Y-101378811D01*
X115515273Y-101378814D01*
X115703868Y-101436024D01*
X115900000Y-101455341D01*
X116096132Y-101436024D01*
X116284727Y-101378814D01*
X116284727Y-101378813D01*
X116287855Y-101377865D01*
X116357722Y-101377241D01*
X116416835Y-101414489D01*
X116446426Y-101477783D01*
X116437101Y-101547027D01*
X116411532Y-101584206D01*
X116232558Y-101763181D01*
X116171235Y-101796666D01*
X116144877Y-101799500D01*
X112168377Y-101799500D01*
X112101338Y-101779815D01*
X112055583Y-101727011D01*
X112045639Y-101657853D01*
X112069111Y-101601188D01*
X112113352Y-101542089D01*
X112113354Y-101542086D01*
X112163596Y-101407379D01*
X112163598Y-101407372D01*
X112169999Y-101347844D01*
X112170000Y-101347827D01*
X112170000Y-100809652D01*
X112189685Y-100742613D01*
X112242489Y-100696858D01*
X112311647Y-100686914D01*
X112375203Y-100715939D01*
X112412661Y-100773657D01*
X112431187Y-100834731D01*
X112524086Y-101008532D01*
X112524090Y-101008539D01*
X112649116Y-101160883D01*
X112801460Y-101285909D01*
X112801467Y-101285913D01*
X112975266Y-101378811D01*
X112975269Y-101378811D01*
X112975273Y-101378814D01*
X113163868Y-101436024D01*
X113360000Y-101455341D01*
X113556132Y-101436024D01*
X113744727Y-101378814D01*
X113746503Y-101377865D01*
X113918532Y-101285913D01*
X113918538Y-101285910D01*
X114070883Y-101160883D01*
X114195910Y-101008538D01*
X114262771Y-100883450D01*
X114288811Y-100834733D01*
X114288812Y-100834731D01*
X114288814Y-100834727D01*
X114346024Y-100646132D01*
X114365341Y-100450000D01*
X114346024Y-100253868D01*
X114288814Y-100065273D01*
X114288811Y-100065269D01*
X114288811Y-100065266D01*
X114195913Y-99891467D01*
X114195909Y-99891460D01*
X114070883Y-99739116D01*
X113918539Y-99614090D01*
X113918532Y-99614086D01*
X113884585Y-99595941D01*
X113834741Y-99546979D01*
X113819280Y-99478842D01*
X113843111Y-99413162D01*
X113855351Y-99398908D01*
X117824455Y-95429803D01*
X117824458Y-95429802D01*
X117841896Y-95412364D01*
X117841897Y-95412364D01*
X117912364Y-95341897D01*
X117950500Y-95249828D01*
X117950500Y-94577305D01*
X117970185Y-94510266D01*
X117986819Y-94489624D01*
X120589624Y-91886819D01*
X120650947Y-91853334D01*
X120677305Y-91850500D01*
X121898574Y-91850500D01*
X121965613Y-91870185D01*
G37*
G04 #@! TD.AperFunction*
G04 #@! TA.AperFunction,Conductor*
G36*
X122187947Y-92868825D02*
G01*
X122243880Y-92910697D01*
X122267350Y-92967356D01*
X122269609Y-92983068D01*
X122269610Y-92983071D01*
X122327110Y-93108977D01*
X122325117Y-93109887D01*
X122341372Y-93165241D01*
X122321689Y-93232281D01*
X122307279Y-93248914D01*
X122307759Y-93249330D01*
X122217118Y-93353937D01*
X122217117Y-93353938D01*
X122163302Y-93471774D01*
X122144867Y-93600000D01*
X122163302Y-93728225D01*
X122163496Y-93728649D01*
X122217118Y-93846063D01*
X122283480Y-93922650D01*
X122312504Y-93986206D01*
X122302560Y-94055364D01*
X122283480Y-94085054D01*
X122267118Y-94103936D01*
X122267117Y-94103938D01*
X122213302Y-94221774D01*
X122194867Y-94350000D01*
X122213302Y-94478224D01*
X122213303Y-94478226D01*
X122213594Y-94478863D01*
X122213694Y-94479558D01*
X122215801Y-94486733D01*
X122214769Y-94487036D01*
X122223537Y-94548021D01*
X122194511Y-94611576D01*
X122135734Y-94649350D01*
X122010934Y-94685994D01*
X121901950Y-94756033D01*
X121817118Y-94853937D01*
X121817117Y-94853938D01*
X121763302Y-94971774D01*
X121744867Y-95100000D01*
X121763302Y-95228225D01*
X121798023Y-95304251D01*
X121817118Y-95346063D01*
X121901951Y-95443967D01*
X122010931Y-95514004D01*
X122024084Y-95517866D01*
X122068902Y-95531026D01*
X122127680Y-95568800D01*
X122156706Y-95632355D01*
X122156706Y-95667648D01*
X122144867Y-95749997D01*
X122144867Y-95750002D01*
X122148713Y-95776755D01*
X122138769Y-95845913D01*
X122113656Y-95882081D01*
X117034206Y-100961532D01*
X116972883Y-100995017D01*
X116903191Y-100990033D01*
X116847258Y-100948161D01*
X116822841Y-100882697D01*
X116827865Y-100837855D01*
X116847339Y-100773657D01*
X116886024Y-100646132D01*
X116905341Y-100450000D01*
X116886024Y-100253868D01*
X116828814Y-100065273D01*
X116828811Y-100065269D01*
X116828811Y-100065266D01*
X116735913Y-99891467D01*
X116735909Y-99891460D01*
X116610883Y-99739116D01*
X116458539Y-99614090D01*
X116458532Y-99614086D01*
X116284728Y-99521186D01*
X116238504Y-99507164D01*
X116180066Y-99468867D01*
X116151609Y-99405054D01*
X116150500Y-99388504D01*
X116150500Y-98855121D01*
X116170185Y-98788082D01*
X116186814Y-98767445D01*
X122056934Y-92897324D01*
X122118255Y-92863841D01*
X122187947Y-92868825D01*
G37*
G04 #@! TD.AperFunction*
G04 #@! TA.AperFunction,Conductor*
G36*
X113694388Y-77270185D02*
G01*
X113715030Y-77286819D01*
X117595296Y-81167085D01*
X121327669Y-84899457D01*
X121361154Y-84960780D01*
X121356170Y-85030472D01*
X121314298Y-85086405D01*
X121274923Y-85106115D01*
X121210934Y-85124903D01*
X121101950Y-85194942D01*
X121058047Y-85245611D01*
X120999269Y-85283386D01*
X120964333Y-85288409D01*
X120385667Y-85288409D01*
X120318628Y-85268724D01*
X120291953Y-85245611D01*
X120248049Y-85194942D01*
X120139069Y-85124905D01*
X120139065Y-85124903D01*
X120139064Y-85124903D01*
X120014774Y-85088409D01*
X120014772Y-85088409D01*
X119885228Y-85088409D01*
X119885226Y-85088409D01*
X119760935Y-85124903D01*
X119760932Y-85124904D01*
X119760931Y-85124905D01*
X119709677Y-85157843D01*
X119651950Y-85194942D01*
X119567118Y-85292846D01*
X119567117Y-85292847D01*
X119513302Y-85410683D01*
X119494867Y-85538909D01*
X119513302Y-85667134D01*
X119567117Y-85784970D01*
X119567120Y-85784976D01*
X119588284Y-85809400D01*
X119617309Y-85872956D01*
X119607365Y-85942114D01*
X119588285Y-85971804D01*
X119517118Y-86053936D01*
X119517117Y-86053937D01*
X119501411Y-86088328D01*
X119455655Y-86141130D01*
X119388614Y-86160813D01*
X119321576Y-86141127D01*
X119300937Y-86124494D01*
X112036819Y-78860376D01*
X112003334Y-78799053D01*
X112000500Y-78772695D01*
X112000500Y-77991796D01*
X112020185Y-77924757D01*
X112043302Y-77898079D01*
X112048038Y-77893973D01*
X112048049Y-77893967D01*
X112110900Y-77821431D01*
X112132879Y-77796067D01*
X112132879Y-77796065D01*
X112132882Y-77796063D01*
X112186697Y-77678226D01*
X112205133Y-77550000D01*
X112186697Y-77421774D01*
X112186697Y-77421773D01*
X112184199Y-77413267D01*
X112186695Y-77412533D01*
X112178687Y-77356862D01*
X112207707Y-77293304D01*
X112266482Y-77255526D01*
X112301426Y-77250500D01*
X113627349Y-77250500D01*
X113694388Y-77270185D01*
G37*
G04 #@! TD.AperFunction*
G04 #@! TA.AperFunction,Conductor*
G36*
X111265613Y-77270185D02*
G01*
X111311368Y-77322989D01*
X111321312Y-77392147D01*
X111315164Y-77413080D01*
X111315801Y-77413267D01*
X111313302Y-77421773D01*
X111294867Y-77550000D01*
X111313302Y-77678225D01*
X111367117Y-77796061D01*
X111367120Y-77796067D01*
X111436265Y-77875865D01*
X111451951Y-77893967D01*
X111451957Y-77893971D01*
X111456698Y-77898079D01*
X111494475Y-77956856D01*
X111499500Y-77991796D01*
X111499500Y-78977647D01*
X111537636Y-79069715D01*
X113277142Y-80809221D01*
X113310627Y-80870544D01*
X113305643Y-80940236D01*
X113263771Y-80996169D01*
X113198307Y-81020586D01*
X113165270Y-81018519D01*
X113044324Y-80994462D01*
X113044312Y-80994460D01*
X112750000Y-80975170D01*
X112455687Y-80994460D01*
X112455675Y-80994462D01*
X112166415Y-81051999D01*
X112166400Y-81052003D01*
X111887111Y-81146810D01*
X111622593Y-81277256D01*
X111622580Y-81277263D01*
X111377346Y-81441124D01*
X111377339Y-81441129D01*
X111343959Y-81470401D01*
X111343959Y-81470403D01*
X112131466Y-82257911D01*
X112000825Y-82352827D01*
X111872829Y-82480823D01*
X111777913Y-82611464D01*
X110990405Y-81823957D01*
X110990403Y-81823957D01*
X110961131Y-81857337D01*
X110961126Y-81857344D01*
X110797265Y-82102578D01*
X110797258Y-82102591D01*
X110666812Y-82367109D01*
X110572005Y-82646398D01*
X110572001Y-82646413D01*
X110514464Y-82935673D01*
X110514462Y-82935685D01*
X110495172Y-83229998D01*
X110514462Y-83524310D01*
X110514464Y-83524322D01*
X110572001Y-83813582D01*
X110572005Y-83813597D01*
X110666812Y-84092886D01*
X110797258Y-84357404D01*
X110797265Y-84357417D01*
X110961123Y-84602647D01*
X110990405Y-84636038D01*
X111777912Y-83848530D01*
X111872829Y-83979173D01*
X112000825Y-84107169D01*
X112131466Y-84202084D01*
X111390373Y-84943179D01*
X111329050Y-84976664D01*
X111302692Y-84979498D01*
X108517308Y-84979498D01*
X108450269Y-84959813D01*
X108429627Y-84943179D01*
X107688533Y-84202084D01*
X107819175Y-84107169D01*
X107947171Y-83979173D01*
X108042086Y-83848531D01*
X108829593Y-84636037D01*
X108858877Y-84602646D01*
X109022734Y-84357417D01*
X109022741Y-84357404D01*
X109153187Y-84092886D01*
X109247994Y-83813597D01*
X109247998Y-83813582D01*
X109305535Y-83524322D01*
X109305537Y-83524310D01*
X109324827Y-83229998D01*
X109305537Y-82935685D01*
X109305535Y-82935673D01*
X109247998Y-82646413D01*
X109247994Y-82646398D01*
X109153187Y-82367109D01*
X109022741Y-82102591D01*
X109022734Y-82102578D01*
X108858876Y-81857348D01*
X108829593Y-81823956D01*
X108042086Y-82611463D01*
X107947171Y-82480823D01*
X107819175Y-82352827D01*
X107688533Y-82257910D01*
X108476039Y-81470404D01*
X108476039Y-81470403D01*
X108442649Y-81441120D01*
X108197419Y-81277263D01*
X108197406Y-81277256D01*
X107932888Y-81146810D01*
X107653599Y-81052003D01*
X107653584Y-81051999D01*
X107364324Y-80994462D01*
X107364312Y-80994460D01*
X107070000Y-80975170D01*
X106775687Y-80994460D01*
X106775675Y-80994462D01*
X106486415Y-81051999D01*
X106486400Y-81052003D01*
X106257037Y-81129862D01*
X106187227Y-81132772D01*
X106126927Y-81097477D01*
X106095281Y-81035185D01*
X106102337Y-80965673D01*
X106129495Y-80924764D01*
X108924455Y-78129803D01*
X108924458Y-78129802D01*
X108941896Y-78112364D01*
X108941897Y-78112364D01*
X109012364Y-78041897D01*
X109036341Y-77984012D01*
X109050501Y-77949827D01*
X109050501Y-77949825D01*
X109050822Y-77948214D01*
X109052490Y-77945024D01*
X109055175Y-77938543D01*
X109055754Y-77938783D01*
X109083204Y-77886302D01*
X109143918Y-77851725D01*
X109213688Y-77855461D01*
X109239474Y-77868081D01*
X109310931Y-77914004D01*
X109310932Y-77914004D01*
X109310935Y-77914006D01*
X109416578Y-77945024D01*
X109427442Y-77948214D01*
X109435225Y-77950499D01*
X109435227Y-77950500D01*
X109435228Y-77950500D01*
X109564773Y-77950500D01*
X109564773Y-77950499D01*
X109689069Y-77914004D01*
X109798049Y-77843967D01*
X109882882Y-77746063D01*
X109936697Y-77628226D01*
X109949406Y-77539830D01*
X109978431Y-77476275D01*
X109984449Y-77469810D01*
X110167441Y-77286819D01*
X110228764Y-77253334D01*
X110255122Y-77250500D01*
X111198574Y-77250500D01*
X111265613Y-77270185D01*
G37*
G04 #@! TD.AperFunction*
G04 #@! TA.AperFunction,Conductor*
G36*
X106192829Y-83979173D02*
G01*
X106320825Y-84107169D01*
X106451466Y-84202084D01*
X106097374Y-84556177D01*
X106036051Y-84589662D01*
X105966359Y-84584678D01*
X105922012Y-84556177D01*
X105743820Y-84377985D01*
X105710335Y-84316662D01*
X105715319Y-84246970D01*
X105743820Y-84202623D01*
X106097912Y-83848530D01*
X106192829Y-83979173D01*
G37*
G04 #@! TD.AperFunction*
G04 #@! TA.AperFunction,Conductor*
G36*
X130507388Y-73620185D02*
G01*
X130553143Y-73672989D01*
X130563087Y-73742147D01*
X130554910Y-73771952D01*
X130498430Y-73908306D01*
X130498427Y-73908318D01*
X130460000Y-74101504D01*
X130460000Y-74250000D01*
X131160000Y-74250000D01*
X131160000Y-74750000D01*
X130460000Y-74750000D01*
X130460000Y-74898495D01*
X130498427Y-75091681D01*
X130498430Y-75091693D01*
X130573807Y-75273671D01*
X130573814Y-75273684D01*
X130683248Y-75437462D01*
X130683251Y-75437466D01*
X130822533Y-75576748D01*
X130822537Y-75576751D01*
X130986315Y-75686185D01*
X130986328Y-75686192D01*
X131168308Y-75761569D01*
X131210000Y-75769862D01*
X131210000Y-74966988D01*
X131219940Y-74984205D01*
X131275795Y-75040060D01*
X131344204Y-75079556D01*
X131420504Y-75100000D01*
X131499496Y-75100000D01*
X131575796Y-75079556D01*
X131644205Y-75040060D01*
X131700060Y-74984205D01*
X131710000Y-74966988D01*
X131710000Y-75769862D01*
X131751690Y-75761569D01*
X131751692Y-75761569D01*
X131933671Y-75686192D01*
X131933684Y-75686185D01*
X132097462Y-75576751D01*
X132097466Y-75576748D01*
X132236748Y-75437466D01*
X132236751Y-75437462D01*
X132346185Y-75273684D01*
X132346192Y-75273671D01*
X132421569Y-75091693D01*
X132421572Y-75091681D01*
X132459999Y-74898495D01*
X132460000Y-74898492D01*
X132460000Y-74750000D01*
X131760000Y-74750000D01*
X131760000Y-74250000D01*
X132460000Y-74250000D01*
X132460000Y-74101508D01*
X132459999Y-74101504D01*
X132421572Y-73908318D01*
X132421569Y-73908306D01*
X132365090Y-73771952D01*
X132357621Y-73702483D01*
X132388896Y-73640004D01*
X132448985Y-73604352D01*
X132479651Y-73600500D01*
X139080349Y-73600500D01*
X139147388Y-73620185D01*
X139193143Y-73672989D01*
X139203087Y-73742147D01*
X139194910Y-73771952D01*
X139138430Y-73908306D01*
X139138427Y-73908318D01*
X139100000Y-74101504D01*
X139100000Y-74250000D01*
X139800000Y-74250000D01*
X139800000Y-74750000D01*
X139100000Y-74750000D01*
X139100000Y-74898495D01*
X139138427Y-75091681D01*
X139138430Y-75091693D01*
X139213807Y-75273671D01*
X139213814Y-75273684D01*
X139323248Y-75437462D01*
X139323251Y-75437466D01*
X139462533Y-75576748D01*
X139462537Y-75576751D01*
X139626315Y-75686185D01*
X139626328Y-75686192D01*
X139808308Y-75761569D01*
X139850000Y-75769862D01*
X139850000Y-74966988D01*
X139859940Y-74984205D01*
X139915795Y-75040060D01*
X139984204Y-75079556D01*
X140060504Y-75100000D01*
X140139496Y-75100000D01*
X140215796Y-75079556D01*
X140284205Y-75040060D01*
X140340060Y-74984205D01*
X140350000Y-74966988D01*
X140350000Y-75769862D01*
X140391690Y-75761569D01*
X140391692Y-75761569D01*
X140573671Y-75686192D01*
X140573684Y-75686185D01*
X140737462Y-75576751D01*
X140737466Y-75576748D01*
X140876748Y-75437466D01*
X140876751Y-75437462D01*
X140986185Y-75273684D01*
X140986192Y-75273671D01*
X141061569Y-75091693D01*
X141061572Y-75091681D01*
X141099999Y-74898495D01*
X141100000Y-74898492D01*
X141100000Y-74750000D01*
X140400000Y-74750000D01*
X140400000Y-74250000D01*
X141100000Y-74250000D01*
X141100000Y-74101508D01*
X141099999Y-74101504D01*
X141061572Y-73908318D01*
X141061569Y-73908306D01*
X141005090Y-73771952D01*
X140997621Y-73702483D01*
X141028896Y-73640004D01*
X141088985Y-73604352D01*
X141119651Y-73600500D01*
X151702405Y-73600500D01*
X151746249Y-73600500D01*
X151753736Y-73600726D01*
X152007638Y-73616084D01*
X152022495Y-73617888D01*
X152269000Y-73663061D01*
X152283536Y-73666644D01*
X152522791Y-73741200D01*
X152536788Y-73746508D01*
X152765319Y-73849361D01*
X152778578Y-73856320D01*
X152884652Y-73920444D01*
X152993045Y-73985970D01*
X153005356Y-73994468D01*
X153202636Y-74149027D01*
X153213844Y-74158957D01*
X153391042Y-74336155D01*
X153400972Y-74347363D01*
X153531591Y-74514086D01*
X153555527Y-74544637D01*
X153564033Y-74556960D01*
X153693679Y-74771421D01*
X153700638Y-74784680D01*
X153803491Y-75013211D01*
X153808800Y-75027211D01*
X153883354Y-75266461D01*
X153886938Y-75281001D01*
X153932110Y-75527500D01*
X153933915Y-75542364D01*
X153949274Y-75796263D01*
X153949500Y-75803750D01*
X153949500Y-103896249D01*
X153949274Y-103903736D01*
X153933915Y-104157635D01*
X153932110Y-104172499D01*
X153886938Y-104418998D01*
X153883354Y-104433538D01*
X153808800Y-104672788D01*
X153803491Y-104686788D01*
X153700638Y-104915319D01*
X153693679Y-104928578D01*
X153564033Y-105143039D01*
X153555527Y-105155362D01*
X153400972Y-105352636D01*
X153391042Y-105363844D01*
X153213844Y-105541042D01*
X153202636Y-105550972D01*
X153005362Y-105705527D01*
X152993039Y-105714033D01*
X152778578Y-105843679D01*
X152765319Y-105850638D01*
X152536788Y-105953491D01*
X152522788Y-105958800D01*
X152283538Y-106033354D01*
X152268998Y-106036938D01*
X152022499Y-106082110D01*
X152007635Y-106083915D01*
X151753736Y-106099274D01*
X151746249Y-106099500D01*
X102353751Y-106099500D01*
X102346264Y-106099274D01*
X102092364Y-106083915D01*
X102077500Y-106082110D01*
X101831001Y-106036938D01*
X101816461Y-106033354D01*
X101577211Y-105958800D01*
X101563211Y-105953491D01*
X101334680Y-105850638D01*
X101321421Y-105843679D01*
X101106960Y-105714033D01*
X101094637Y-105705527D01*
X100897363Y-105550972D01*
X100886155Y-105541042D01*
X100708957Y-105363844D01*
X100699027Y-105352636D01*
X100651441Y-105291897D01*
X100544468Y-105155356D01*
X100535970Y-105143045D01*
X100426744Y-104962364D01*
X100406320Y-104928578D01*
X100399361Y-104915319D01*
X100296508Y-104686788D01*
X100291199Y-104672788D01*
X100252936Y-104550000D01*
X100216644Y-104433536D01*
X100213061Y-104418998D01*
X100197850Y-104335994D01*
X100167888Y-104172495D01*
X100166084Y-104157635D01*
X100150726Y-103903736D01*
X100150542Y-103897648D01*
X100949500Y-103897648D01*
X100949500Y-104102351D01*
X100981522Y-104304534D01*
X101044781Y-104499223D01*
X101070654Y-104550000D01*
X101135988Y-104678225D01*
X101137715Y-104681613D01*
X101258028Y-104847213D01*
X101402786Y-104991971D01*
X101543173Y-105093966D01*
X101568390Y-105112287D01*
X101669890Y-105164004D01*
X101750776Y-105205218D01*
X101750778Y-105205218D01*
X101750781Y-105205220D01*
X101855137Y-105239127D01*
X101945465Y-105268477D01*
X102046557Y-105284488D01*
X102147648Y-105300500D01*
X102147649Y-105300500D01*
X102352351Y-105300500D01*
X102352352Y-105300500D01*
X102554534Y-105268477D01*
X102749219Y-105205220D01*
X102931610Y-105112287D01*
X103026566Y-105043298D01*
X103097213Y-104991971D01*
X103097215Y-104991968D01*
X103097219Y-104991966D01*
X103241966Y-104847219D01*
X103241968Y-104847215D01*
X103241971Y-104847213D01*
X103312599Y-104750000D01*
X103362287Y-104681610D01*
X103455220Y-104499219D01*
X103518477Y-104304534D01*
X103550500Y-104102352D01*
X103550500Y-103897648D01*
X103518572Y-103696063D01*
X103518477Y-103695465D01*
X103455218Y-103500776D01*
X103411604Y-103415180D01*
X103362287Y-103318390D01*
X103354556Y-103307749D01*
X103241971Y-103152786D01*
X103097213Y-103008028D01*
X102931613Y-102887715D01*
X102931612Y-102887714D01*
X102931610Y-102887713D01*
X102845752Y-102843966D01*
X102749223Y-102794781D01*
X102554534Y-102731522D01*
X102379995Y-102703878D01*
X102352352Y-102699500D01*
X102147648Y-102699500D01*
X102123329Y-102703351D01*
X101945465Y-102731522D01*
X101750776Y-102794781D01*
X101568386Y-102887715D01*
X101402786Y-103008028D01*
X101258028Y-103152786D01*
X101137715Y-103318386D01*
X101044781Y-103500776D01*
X100981522Y-103695465D01*
X100949500Y-103897648D01*
X100150542Y-103897648D01*
X100150500Y-103896249D01*
X100150500Y-99150000D01*
X102794867Y-99150000D01*
X102813302Y-99278225D01*
X102844283Y-99346062D01*
X102867118Y-99396063D01*
X102918640Y-99455523D01*
X102951369Y-99493296D01*
X102951951Y-99493967D01*
X103060931Y-99564004D01*
X103185225Y-99600499D01*
X103185227Y-99600500D01*
X103185228Y-99600500D01*
X103314773Y-99600500D01*
X103314773Y-99600499D01*
X103439069Y-99564004D01*
X103548049Y-99493967D01*
X103548374Y-99493591D01*
X103548631Y-99493296D01*
X103549379Y-99492815D01*
X103554754Y-99488158D01*
X103555423Y-99488930D01*
X103607409Y-99455523D01*
X103642343Y-99450500D01*
X104387771Y-99450500D01*
X104454810Y-99470185D01*
X104475452Y-99486819D01*
X106663181Y-101674547D01*
X106696666Y-101735870D01*
X106699500Y-101762228D01*
X106699500Y-101777647D01*
X106731969Y-101856033D01*
X106737636Y-101869715D01*
X107130285Y-102262364D01*
X107222354Y-102300500D01*
X107322010Y-102300500D01*
X115890851Y-102300500D01*
X115957890Y-102320185D01*
X116003645Y-102372989D01*
X116013589Y-102442147D01*
X115984564Y-102505703D01*
X115978532Y-102512181D01*
X115327532Y-103163181D01*
X115266209Y-103196666D01*
X115239851Y-103199500D01*
X105685667Y-103199500D01*
X105618628Y-103179815D01*
X105591953Y-103156702D01*
X105582734Y-103146063D01*
X105548049Y-103106033D01*
X105439069Y-103035996D01*
X105439065Y-103035994D01*
X105439064Y-103035994D01*
X105314774Y-102999500D01*
X105314772Y-102999500D01*
X105185228Y-102999500D01*
X105185226Y-102999500D01*
X105060935Y-103035994D01*
X105060932Y-103035995D01*
X105060931Y-103035996D01*
X105038873Y-103050172D01*
X104951950Y-103106033D01*
X104867118Y-103203937D01*
X104867117Y-103203938D01*
X104813302Y-103321774D01*
X104794867Y-103450000D01*
X104813302Y-103578225D01*
X104851728Y-103662364D01*
X104867118Y-103696063D01*
X104951951Y-103793967D01*
X105060931Y-103864004D01*
X105185225Y-103900499D01*
X105185227Y-103900500D01*
X105185228Y-103900500D01*
X105314773Y-103900500D01*
X105314773Y-103900499D01*
X105439069Y-103864004D01*
X105548049Y-103793967D01*
X105591953Y-103743297D01*
X105650731Y-103705523D01*
X105685667Y-103700500D01*
X115444800Y-103700500D01*
X115444802Y-103700500D01*
X115536871Y-103662364D01*
X116999235Y-102200000D01*
X121694867Y-102200000D01*
X121713302Y-102328225D01*
X121767117Y-102446061D01*
X121767118Y-102446063D01*
X121851951Y-102543967D01*
X121960931Y-102614004D01*
X122085225Y-102650499D01*
X122085227Y-102650500D01*
X122085228Y-102650500D01*
X122214773Y-102650500D01*
X122214773Y-102650499D01*
X122339069Y-102614004D01*
X122448049Y-102543967D01*
X122532882Y-102446063D01*
X122586697Y-102328226D01*
X122605133Y-102200000D01*
X122601286Y-102173247D01*
X122611227Y-102104090D01*
X122636337Y-102067922D01*
X122912364Y-101791897D01*
X122950500Y-101699828D01*
X122950500Y-101600173D01*
X122950500Y-100155121D01*
X122970185Y-100088082D01*
X122986814Y-100067445D01*
X123954259Y-99100000D01*
X125444867Y-99100000D01*
X125463302Y-99228225D01*
X125516667Y-99345076D01*
X125517118Y-99346063D01*
X125601951Y-99443967D01*
X125710931Y-99514004D01*
X125835225Y-99550499D01*
X125835227Y-99550500D01*
X125944877Y-99550500D01*
X126011916Y-99570185D01*
X126032558Y-99586819D01*
X131737636Y-105291897D01*
X131808103Y-105362364D01*
X131900172Y-105400500D01*
X131900174Y-105400500D01*
X135999826Y-105400500D01*
X135999828Y-105400500D01*
X136091897Y-105362364D01*
X140567441Y-100886818D01*
X140628764Y-100853334D01*
X140655122Y-100850500D01*
X140764773Y-100850500D01*
X140764773Y-100850499D01*
X140889069Y-100814004D01*
X140998049Y-100743967D01*
X141082882Y-100646063D01*
X141136697Y-100528226D01*
X141155133Y-100400000D01*
X141136697Y-100271774D01*
X141082882Y-100153937D01*
X140998049Y-100056033D01*
X140889069Y-99985996D01*
X140889065Y-99985994D01*
X140889064Y-99985994D01*
X140764774Y-99949500D01*
X140764772Y-99949500D01*
X140635228Y-99949500D01*
X140635226Y-99949500D01*
X140510935Y-99985994D01*
X140510932Y-99985995D01*
X140510931Y-99985996D01*
X140459677Y-100018934D01*
X140401950Y-100056033D01*
X140317118Y-100153937D01*
X140317117Y-100153938D01*
X140263302Y-100271774D01*
X140244867Y-100400000D01*
X140244867Y-100400002D01*
X140248713Y-100426755D01*
X140238769Y-100495913D01*
X140213656Y-100532081D01*
X135882558Y-104863181D01*
X135821235Y-104896666D01*
X135794877Y-104899500D01*
X135478592Y-104899500D01*
X135411553Y-104879815D01*
X135365798Y-104827011D01*
X135355854Y-104757853D01*
X135365798Y-104723988D01*
X135368070Y-104719010D01*
X135386697Y-104678226D01*
X135405133Y-104550000D01*
X135386697Y-104421774D01*
X135332882Y-104303937D01*
X135248049Y-104206033D01*
X135248048Y-104206032D01*
X135248047Y-104206031D01*
X135243296Y-104201914D01*
X135205523Y-104143136D01*
X135200500Y-104108202D01*
X135200500Y-103134459D01*
X135211706Y-103082947D01*
X135226674Y-103050172D01*
X135236697Y-103028226D01*
X135255133Y-102900000D01*
X135236697Y-102771774D01*
X135182882Y-102653937D01*
X135098049Y-102556033D01*
X134989069Y-102485996D01*
X134989065Y-102485994D01*
X134989064Y-102485994D01*
X134864774Y-102449500D01*
X134864772Y-102449500D01*
X134735228Y-102449500D01*
X134735226Y-102449500D01*
X134610935Y-102485994D01*
X134610932Y-102485995D01*
X134610931Y-102485996D01*
X134570186Y-102512181D01*
X134501950Y-102556033D01*
X134417118Y-102653937D01*
X134417117Y-102653938D01*
X134363302Y-102771774D01*
X134344867Y-102900000D01*
X134363302Y-103028225D01*
X134417117Y-103146061D01*
X134417118Y-103146063D01*
X134501951Y-103243967D01*
X134610931Y-103314004D01*
X134610933Y-103314004D01*
X134610934Y-103314005D01*
X134619002Y-103317690D01*
X134618410Y-103318985D01*
X134669208Y-103351627D01*
X134698237Y-103415180D01*
X134699500Y-103432835D01*
X134699500Y-104108202D01*
X134679815Y-104175241D01*
X134656704Y-104201914D01*
X134651952Y-104206031D01*
X134567118Y-104303937D01*
X134567117Y-104303938D01*
X134513302Y-104421774D01*
X134494867Y-104550000D01*
X134513302Y-104678225D01*
X134534202Y-104723988D01*
X134544146Y-104793147D01*
X134515121Y-104856703D01*
X134456343Y-104894477D01*
X134421408Y-104899500D01*
X132105123Y-104899500D01*
X132038084Y-104879815D01*
X132017442Y-104863181D01*
X126711557Y-99557296D01*
X126678072Y-99495973D01*
X126683056Y-99426281D01*
X126724928Y-99370348D01*
X126764304Y-99350638D01*
X126833669Y-99330270D01*
X126889069Y-99314004D01*
X126998049Y-99243967D01*
X127082882Y-99146063D01*
X127136697Y-99028226D01*
X127155133Y-98900000D01*
X127151286Y-98873247D01*
X127161227Y-98804090D01*
X127186343Y-98767916D01*
X127267443Y-98686818D01*
X127328766Y-98653333D01*
X127355123Y-98650500D01*
X130044876Y-98650500D01*
X130111915Y-98670185D01*
X130132557Y-98686818D01*
X130213656Y-98767916D01*
X130247141Y-98829239D01*
X130248713Y-98873242D01*
X130244867Y-98899996D01*
X130244867Y-98899999D01*
X130263302Y-99028225D01*
X130304494Y-99118421D01*
X130317118Y-99146063D01*
X130379984Y-99218615D01*
X130400947Y-99242809D01*
X130401951Y-99243967D01*
X130510931Y-99314004D01*
X130620117Y-99346063D01*
X130635225Y-99350499D01*
X130635227Y-99350500D01*
X130635228Y-99350500D01*
X130764772Y-99350500D01*
X130849388Y-99325655D01*
X130919258Y-99325655D01*
X130978036Y-99363430D01*
X131007061Y-99426985D01*
X130997117Y-99496144D01*
X130972004Y-99532313D01*
X130535341Y-99968976D01*
X130482595Y-100000272D01*
X130360934Y-100035994D01*
X130251950Y-100106033D01*
X130167118Y-100203937D01*
X130167117Y-100203938D01*
X130113302Y-100321774D01*
X130094867Y-100450000D01*
X130113302Y-100578225D01*
X130162940Y-100686914D01*
X130167118Y-100696063D01*
X130251951Y-100793967D01*
X130360931Y-100864004D01*
X130485225Y-100900499D01*
X130485227Y-100900500D01*
X130485228Y-100900500D01*
X130614773Y-100900500D01*
X130614773Y-100900499D01*
X130616473Y-100900000D01*
X134294867Y-100900000D01*
X134313302Y-101028225D01*
X134346321Y-101100524D01*
X134367118Y-101146063D01*
X134451951Y-101243967D01*
X134560931Y-101314004D01*
X134685225Y-101350499D01*
X134685227Y-101350500D01*
X134685228Y-101350500D01*
X134814773Y-101350500D01*
X134814773Y-101350499D01*
X134939069Y-101314004D01*
X135048049Y-101243967D01*
X135132882Y-101146063D01*
X135186697Y-101028226D01*
X135197944Y-100950000D01*
X136344867Y-100950000D01*
X136363302Y-101078225D01*
X136417117Y-101196061D01*
X136417118Y-101196063D01*
X136501951Y-101293967D01*
X136610931Y-101364004D01*
X136735225Y-101400499D01*
X136735227Y-101400500D01*
X136735228Y-101400500D01*
X136864773Y-101400500D01*
X136864773Y-101400499D01*
X136989069Y-101364004D01*
X137098049Y-101293967D01*
X137182882Y-101196063D01*
X137236697Y-101078226D01*
X137255133Y-100950000D01*
X137255132Y-100949999D01*
X137256395Y-100941222D01*
X137257795Y-100941423D01*
X137274818Y-100883450D01*
X137291447Y-100862811D01*
X137399456Y-100754802D01*
X137399459Y-100754801D01*
X137416896Y-100737364D01*
X137416897Y-100737364D01*
X137487364Y-100666897D01*
X137497246Y-100643039D01*
X137501399Y-100633015D01*
X137524093Y-100578226D01*
X137525501Y-100574828D01*
X137525501Y-100475172D01*
X137525501Y-100465183D01*
X137525500Y-100465169D01*
X137525500Y-96580123D01*
X137545185Y-96513084D01*
X137561819Y-96492442D01*
X139672376Y-94381885D01*
X141797253Y-92257007D01*
X141858574Y-92223524D01*
X141928266Y-92228508D01*
X141984199Y-92270380D01*
X142008616Y-92335844D01*
X142003593Y-92380685D01*
X141963252Y-92513670D01*
X141944901Y-92700000D01*
X141963252Y-92886331D01*
X141963253Y-92886333D01*
X142017604Y-93065502D01*
X142105862Y-93230623D01*
X142105864Y-93230626D01*
X142224642Y-93375357D01*
X142369373Y-93494135D01*
X142369376Y-93494137D01*
X142450502Y-93537499D01*
X142534499Y-93582396D01*
X142561494Y-93590584D01*
X142619932Y-93628880D01*
X142648390Y-93692692D01*
X142649500Y-93709245D01*
X142649500Y-98499829D01*
X142687636Y-98591897D01*
X144363656Y-100267917D01*
X144397141Y-100329240D01*
X144398713Y-100373242D01*
X144394867Y-100399996D01*
X144394867Y-100399999D01*
X144413302Y-100528225D01*
X144465716Y-100642993D01*
X144467118Y-100646063D01*
X144517266Y-100703938D01*
X144546229Y-100737364D01*
X144551951Y-100743967D01*
X144660931Y-100814004D01*
X144785225Y-100850499D01*
X144785227Y-100850500D01*
X144785228Y-100850500D01*
X144914773Y-100850500D01*
X144914773Y-100850499D01*
X144957838Y-100837855D01*
X144990566Y-100828246D01*
X145060436Y-100828246D01*
X145119213Y-100866021D01*
X145148238Y-100929577D01*
X145149500Y-100947223D01*
X145149500Y-101694877D01*
X145129815Y-101761916D01*
X145113181Y-101782558D01*
X144882558Y-102013181D01*
X144821235Y-102046666D01*
X144794877Y-102049500D01*
X144735226Y-102049500D01*
X144610935Y-102085994D01*
X144610932Y-102085995D01*
X144610931Y-102085996D01*
X144570767Y-102111808D01*
X144501950Y-102156033D01*
X144417118Y-102253937D01*
X144417117Y-102253938D01*
X144363302Y-102371774D01*
X144344867Y-102500000D01*
X144363302Y-102628225D01*
X144395853Y-102699500D01*
X144417118Y-102746063D01*
X144501951Y-102843967D01*
X144610931Y-102914004D01*
X144735225Y-102950499D01*
X144735227Y-102950500D01*
X144735228Y-102950500D01*
X144864773Y-102950500D01*
X144864773Y-102950499D01*
X144989069Y-102914004D01*
X145098049Y-102843967D01*
X145182882Y-102746063D01*
X145236697Y-102628226D01*
X145255133Y-102500000D01*
X145245000Y-102429526D01*
X145254943Y-102360373D01*
X145280054Y-102324205D01*
X145612364Y-101991897D01*
X145650500Y-101899828D01*
X145650500Y-101800172D01*
X145650500Y-100122354D01*
X145612364Y-100030285D01*
X145541897Y-99959818D01*
X145534832Y-99952753D01*
X145534825Y-99952747D01*
X144736819Y-99154740D01*
X144703334Y-99093417D01*
X144700500Y-99067059D01*
X144700500Y-93326945D01*
X144720185Y-93259906D01*
X144772989Y-93214151D01*
X144842147Y-93204207D01*
X144905703Y-93233232D01*
X144920353Y-93248280D01*
X145024642Y-93375357D01*
X145169373Y-93494135D01*
X145169376Y-93494137D01*
X145334495Y-93582394D01*
X145334499Y-93582396D01*
X145513666Y-93636746D01*
X145513668Y-93636747D01*
X145530374Y-93638392D01*
X145700000Y-93655099D01*
X145886331Y-93636747D01*
X146065501Y-93582396D01*
X146230625Y-93494136D01*
X146257873Y-93471774D01*
X146296835Y-93439799D01*
X146361145Y-93412486D01*
X146430012Y-93424277D01*
X146481573Y-93471429D01*
X146499500Y-93535652D01*
X146499500Y-95277108D01*
X146479815Y-95344147D01*
X146463181Y-95364789D01*
X146390670Y-95437299D01*
X146390661Y-95437311D01*
X146337636Y-95490336D01*
X146299500Y-95582403D01*
X146299500Y-100149829D01*
X146337636Y-100241897D01*
X146408548Y-100312809D01*
X146442033Y-100374132D01*
X146444657Y-100398545D01*
X146463302Y-100528225D01*
X146515716Y-100642993D01*
X146517118Y-100646063D01*
X146567266Y-100703938D01*
X146596229Y-100737364D01*
X146601951Y-100743967D01*
X146710931Y-100814004D01*
X146835225Y-100850499D01*
X146835227Y-100850500D01*
X146835228Y-100850500D01*
X146964773Y-100850500D01*
X146964773Y-100850499D01*
X147089069Y-100814004D01*
X147198049Y-100743967D01*
X147282882Y-100646063D01*
X147336697Y-100528226D01*
X147355133Y-100400000D01*
X147336697Y-100271774D01*
X147282882Y-100153937D01*
X147198049Y-100056033D01*
X147089069Y-99985996D01*
X147089065Y-99985994D01*
X147089064Y-99985994D01*
X146964774Y-99949500D01*
X146964772Y-99949500D01*
X146924500Y-99949500D01*
X146857461Y-99929815D01*
X146811706Y-99877011D01*
X146800500Y-99825500D01*
X146800500Y-97521286D01*
X146820185Y-97454247D01*
X146872989Y-97408492D01*
X146942147Y-97398548D01*
X146997387Y-97420969D01*
X147013827Y-97432914D01*
X147224197Y-97540102D01*
X147448752Y-97613065D01*
X147448751Y-97613065D01*
X147681948Y-97650000D01*
X148300000Y-97650000D01*
X148300000Y-96650000D01*
X148800000Y-96650000D01*
X148800000Y-97650000D01*
X149418052Y-97650000D01*
X149651247Y-97613065D01*
X149875802Y-97540102D01*
X150086171Y-97432914D01*
X150212664Y-97341012D01*
X150278471Y-97317532D01*
X150346525Y-97333357D01*
X150395220Y-97383463D01*
X150409550Y-97441330D01*
X150409550Y-97834827D01*
X150389865Y-97901866D01*
X150373231Y-97922508D01*
X143832558Y-104463181D01*
X143771235Y-104496666D01*
X143744877Y-104499500D01*
X141135667Y-104499500D01*
X141068628Y-104479815D01*
X141041953Y-104456702D01*
X140998049Y-104406033D01*
X140889069Y-104335996D01*
X140889065Y-104335994D01*
X140889064Y-104335994D01*
X140764774Y-104299500D01*
X140764772Y-104299500D01*
X140635228Y-104299500D01*
X140635226Y-104299500D01*
X140510935Y-104335994D01*
X140510932Y-104335995D01*
X140510931Y-104335996D01*
X140459677Y-104368934D01*
X140401950Y-104406033D01*
X140317118Y-104503937D01*
X140317117Y-104503938D01*
X140263302Y-104621774D01*
X140244867Y-104750000D01*
X140263302Y-104878225D01*
X140301728Y-104962364D01*
X140317118Y-104996063D01*
X140401951Y-105093967D01*
X140510931Y-105164004D01*
X140635225Y-105200499D01*
X140635227Y-105200500D01*
X140635228Y-105200500D01*
X140764773Y-105200500D01*
X140764773Y-105200499D01*
X140889069Y-105164004D01*
X140998049Y-105093967D01*
X141041953Y-105043297D01*
X141100731Y-105005523D01*
X141135667Y-105000500D01*
X143949826Y-105000500D01*
X143949828Y-105000500D01*
X144041897Y-104962364D01*
X145887819Y-103116440D01*
X145949142Y-103082956D01*
X146018834Y-103087940D01*
X146074767Y-103129812D01*
X146099184Y-103195276D01*
X146099500Y-103204122D01*
X146099500Y-104927647D01*
X146137636Y-105019715D01*
X146530285Y-105412364D01*
X146622354Y-105450500D01*
X146622356Y-105450500D01*
X147177644Y-105450500D01*
X147177646Y-105450500D01*
X147269715Y-105412364D01*
X148784431Y-103897648D01*
X150549500Y-103897648D01*
X150549500Y-104102351D01*
X150581522Y-104304534D01*
X150644781Y-104499223D01*
X150670654Y-104550000D01*
X150735988Y-104678225D01*
X150737715Y-104681613D01*
X150858028Y-104847213D01*
X151002786Y-104991971D01*
X151143173Y-105093966D01*
X151168390Y-105112287D01*
X151269890Y-105164004D01*
X151350776Y-105205218D01*
X151350778Y-105205218D01*
X151350781Y-105205220D01*
X151455137Y-105239127D01*
X151545465Y-105268477D01*
X151646557Y-105284488D01*
X151747648Y-105300500D01*
X151747649Y-105300500D01*
X151952351Y-105300500D01*
X151952352Y-105300500D01*
X152154534Y-105268477D01*
X152349219Y-105205220D01*
X152531610Y-105112287D01*
X152626566Y-105043298D01*
X152697213Y-104991971D01*
X152697215Y-104991968D01*
X152697219Y-104991966D01*
X152841966Y-104847219D01*
X152841968Y-104847215D01*
X152841971Y-104847213D01*
X152912599Y-104750000D01*
X152962287Y-104681610D01*
X153055220Y-104499219D01*
X153118477Y-104304534D01*
X153150500Y-104102352D01*
X153150500Y-103897648D01*
X153118572Y-103696063D01*
X153118477Y-103695465D01*
X153055218Y-103500776D01*
X153011604Y-103415180D01*
X152962287Y-103318390D01*
X152954556Y-103307749D01*
X152841971Y-103152786D01*
X152697213Y-103008028D01*
X152531613Y-102887715D01*
X152531612Y-102887714D01*
X152531610Y-102887713D01*
X152445752Y-102843966D01*
X152349223Y-102794781D01*
X152154534Y-102731522D01*
X151979995Y-102703878D01*
X151952352Y-102699500D01*
X151747648Y-102699500D01*
X151723329Y-102703351D01*
X151545465Y-102731522D01*
X151350776Y-102794781D01*
X151168386Y-102887715D01*
X151002786Y-103008028D01*
X150858028Y-103152786D01*
X150737715Y-103318386D01*
X150644781Y-103500776D01*
X150581522Y-103695465D01*
X150549500Y-103897648D01*
X148784431Y-103897648D01*
X151732364Y-100949715D01*
X151770500Y-100857646D01*
X151770500Y-100757991D01*
X151770500Y-80061495D01*
X151790185Y-79994456D01*
X151842989Y-79948701D01*
X151858494Y-79942838D01*
X151904727Y-79928814D01*
X152078538Y-79835910D01*
X152230883Y-79710883D01*
X152355910Y-79558538D01*
X152448814Y-79384727D01*
X152506024Y-79196132D01*
X152525341Y-79000000D01*
X152506024Y-78803868D01*
X152448814Y-78615273D01*
X152448811Y-78615269D01*
X152448811Y-78615266D01*
X152355913Y-78441467D01*
X152355909Y-78441460D01*
X152230883Y-78289116D01*
X152078539Y-78164090D01*
X152078532Y-78164086D01*
X151904733Y-78071188D01*
X151904727Y-78071186D01*
X151716132Y-78013976D01*
X151716129Y-78013975D01*
X151520000Y-77994659D01*
X151323870Y-78013975D01*
X151135266Y-78071188D01*
X150961467Y-78164086D01*
X150961460Y-78164090D01*
X150809116Y-78289116D01*
X150684090Y-78441460D01*
X150684086Y-78441467D01*
X150591188Y-78615266D01*
X150533975Y-78803870D01*
X150514659Y-79000000D01*
X150533975Y-79196129D01*
X150591188Y-79384733D01*
X150684086Y-79558532D01*
X150684090Y-79558539D01*
X150809116Y-79710883D01*
X150961460Y-79835909D01*
X150961467Y-79835913D01*
X151097687Y-79908724D01*
X151135273Y-79928814D01*
X151181496Y-79942835D01*
X151239933Y-79981131D01*
X151268390Y-80044942D01*
X151269500Y-80061495D01*
X151269500Y-81503135D01*
X151249815Y-81570174D01*
X151197011Y-81615929D01*
X151127853Y-81625873D01*
X151064297Y-81596848D01*
X151057819Y-81590816D01*
X150104639Y-80637636D01*
X150012571Y-80599500D01*
X150012570Y-80599500D01*
X148940097Y-80599500D01*
X148873058Y-80579815D01*
X148852416Y-80563181D01*
X148375989Y-80086754D01*
X148342504Y-80025431D01*
X148347488Y-79955739D01*
X148389360Y-79899806D01*
X148454824Y-79875389D01*
X148522123Y-79889715D01*
X148557687Y-79908724D01*
X148595273Y-79928814D01*
X148783868Y-79986024D01*
X148980000Y-80005341D01*
X149176132Y-79986024D01*
X149364727Y-79928814D01*
X149402317Y-79908722D01*
X149479508Y-79867462D01*
X149538538Y-79835910D01*
X149690883Y-79710883D01*
X149815910Y-79558538D01*
X149908814Y-79384727D01*
X149966024Y-79196132D01*
X149985341Y-79000000D01*
X149966024Y-78803868D01*
X149908814Y-78615273D01*
X149908811Y-78615269D01*
X149908811Y-78615266D01*
X149815913Y-78441467D01*
X149815909Y-78441460D01*
X149690883Y-78289116D01*
X149538539Y-78164090D01*
X149538532Y-78164086D01*
X149364733Y-78071188D01*
X149364727Y-78071186D01*
X149176132Y-78013976D01*
X149176129Y-78013975D01*
X148980000Y-77994659D01*
X148783870Y-78013975D01*
X148595266Y-78071188D01*
X148421467Y-78164086D01*
X148421460Y-78164091D01*
X148281773Y-78278729D01*
X148217463Y-78306042D01*
X148148595Y-78294251D01*
X148115427Y-78270557D01*
X147182506Y-77337636D01*
X147090438Y-77299500D01*
X147090437Y-77299500D01*
X144919296Y-77299500D01*
X144919288Y-77299499D01*
X144904854Y-77299499D01*
X144805198Y-77299499D01*
X144805196Y-77299499D01*
X144805194Y-77299500D01*
X144740098Y-77326463D01*
X144740095Y-77326465D01*
X144713129Y-77337636D01*
X144713125Y-77337639D01*
X144437584Y-77613181D01*
X144376261Y-77646666D01*
X144349903Y-77649500D01*
X142750170Y-77649500D01*
X142658102Y-77687636D01*
X142587636Y-77758102D01*
X142549500Y-77850170D01*
X142549500Y-80149829D01*
X142587636Y-80241897D01*
X142587637Y-80241898D01*
X146463181Y-84117441D01*
X146496666Y-84178764D01*
X146499500Y-84205122D01*
X146499500Y-84643780D01*
X146479815Y-84710819D01*
X146427011Y-84756574D01*
X146357853Y-84766518D01*
X146323096Y-84756162D01*
X146146331Y-84673735D01*
X146146317Y-84673730D01*
X145926610Y-84614860D01*
X145926599Y-84614858D01*
X145700002Y-84595034D01*
X145699998Y-84595034D01*
X145473400Y-84614858D01*
X145473389Y-84614860D01*
X145253682Y-84673730D01*
X145253673Y-84673734D01*
X145047516Y-84769866D01*
X145047512Y-84769868D01*
X144974526Y-84820973D01*
X144974526Y-84820974D01*
X145653553Y-85500000D01*
X145647339Y-85500000D01*
X145545606Y-85527259D01*
X145454394Y-85579920D01*
X145379920Y-85654394D01*
X145327259Y-85745606D01*
X145300000Y-85847339D01*
X145300000Y-85853552D01*
X144620974Y-85174526D01*
X144620973Y-85174526D01*
X144569868Y-85247512D01*
X144569866Y-85247516D01*
X144473734Y-85453673D01*
X144473730Y-85453682D01*
X144414860Y-85673389D01*
X144414858Y-85673400D01*
X144395034Y-85899997D01*
X144395034Y-85900002D01*
X144414858Y-86126599D01*
X144414860Y-86126610D01*
X144473730Y-86346317D01*
X144473735Y-86346331D01*
X144569863Y-86552478D01*
X144620974Y-86625472D01*
X145300000Y-85946446D01*
X145300000Y-85952661D01*
X145327259Y-86054394D01*
X145379920Y-86145606D01*
X145454394Y-86220080D01*
X145545606Y-86272741D01*
X145647339Y-86300000D01*
X145653551Y-86300000D01*
X144935336Y-87018215D01*
X144874013Y-87051700D01*
X144871849Y-87052151D01*
X144841281Y-87058231D01*
X144841275Y-87058234D01*
X144791496Y-87091495D01*
X144791495Y-87091496D01*
X144758234Y-87141275D01*
X144758231Y-87141282D01*
X144749500Y-87185177D01*
X144749500Y-88544877D01*
X144729815Y-88611916D01*
X144713181Y-88632558D01*
X137062637Y-96283101D01*
X137062636Y-96283102D01*
X137024500Y-96375170D01*
X137024500Y-100369877D01*
X137004815Y-100436916D01*
X136988176Y-100457563D01*
X136979766Y-100465972D01*
X136918441Y-100499454D01*
X136873967Y-100497869D01*
X136873552Y-100500762D01*
X136864774Y-100499500D01*
X136864772Y-100499500D01*
X136735228Y-100499500D01*
X136735226Y-100499500D01*
X136610935Y-100535994D01*
X136610932Y-100535995D01*
X136610931Y-100535996D01*
X136579753Y-100556033D01*
X136501950Y-100606033D01*
X136417118Y-100703937D01*
X136417117Y-100703938D01*
X136363302Y-100821774D01*
X136344867Y-100950000D01*
X135197944Y-100950000D01*
X135205133Y-100900000D01*
X135205132Y-100899999D01*
X135206395Y-100891222D01*
X135207795Y-100891423D01*
X135224818Y-100833450D01*
X135241452Y-100812808D01*
X135338321Y-100715939D01*
X135487364Y-100566897D01*
X135525500Y-100474828D01*
X135525500Y-100375173D01*
X135525500Y-93680122D01*
X135545185Y-93613083D01*
X135561814Y-93592446D01*
X142363487Y-86790772D01*
X142424808Y-86757289D01*
X142494500Y-86762273D01*
X142509609Y-86769092D01*
X142534499Y-86782396D01*
X142713666Y-86836746D01*
X142713668Y-86836747D01*
X142730374Y-86838392D01*
X142900000Y-86855099D01*
X143086331Y-86836747D01*
X143265501Y-86782396D01*
X143430625Y-86694136D01*
X143575357Y-86575357D01*
X143694136Y-86430625D01*
X143782396Y-86265501D01*
X143836747Y-86086331D01*
X143855099Y-85900000D01*
X143836872Y-85714934D01*
X143836747Y-85713668D01*
X143836746Y-85713666D01*
X143828263Y-85685701D01*
X143782396Y-85534499D01*
X143727854Y-85432457D01*
X143694137Y-85369376D01*
X143694135Y-85369373D01*
X143575357Y-85224642D01*
X143430626Y-85105864D01*
X143430623Y-85105862D01*
X143265502Y-85017604D01*
X143086333Y-84963253D01*
X143086331Y-84963252D01*
X142900000Y-84944901D01*
X142713668Y-84963252D01*
X142713666Y-84963253D01*
X142534497Y-85017604D01*
X142369376Y-85105862D01*
X142369373Y-85105864D01*
X142224642Y-85224642D01*
X142105864Y-85369373D01*
X142105862Y-85369376D01*
X142017604Y-85534497D01*
X141963253Y-85713666D01*
X141963252Y-85713668D01*
X141944901Y-85900000D01*
X141963252Y-86086331D01*
X141963253Y-86086333D01*
X142017602Y-86265497D01*
X142017603Y-86265500D01*
X142030902Y-86290380D01*
X142045143Y-86358783D01*
X142020142Y-86424027D01*
X142009224Y-86436513D01*
X135133103Y-93312636D01*
X135062637Y-93383101D01*
X135062636Y-93383102D01*
X135024500Y-93475170D01*
X135024500Y-100269875D01*
X135004815Y-100336914D01*
X134988181Y-100357556D01*
X134929770Y-100415967D01*
X134868447Y-100449452D01*
X134823965Y-100447868D01*
X134823550Y-100450762D01*
X134814772Y-100449500D01*
X134685228Y-100449500D01*
X134685226Y-100449500D01*
X134560935Y-100485994D01*
X134560932Y-100485995D01*
X134560931Y-100485996D01*
X134511146Y-100517991D01*
X134451950Y-100556033D01*
X134367118Y-100653937D01*
X134367117Y-100653938D01*
X134313302Y-100771774D01*
X134294867Y-100900000D01*
X130616473Y-100900000D01*
X130739069Y-100864004D01*
X130848049Y-100793967D01*
X130932882Y-100696063D01*
X130986697Y-100578226D01*
X130992450Y-100538207D01*
X131021474Y-100474653D01*
X131027493Y-100468187D01*
X133164659Y-98331021D01*
X133217401Y-98299727D01*
X133339069Y-98264004D01*
X133448049Y-98193967D01*
X133532882Y-98096063D01*
X133586697Y-97978226D01*
X133605133Y-97850000D01*
X133586697Y-97721774D01*
X133532882Y-97603937D01*
X133448049Y-97506033D01*
X133339069Y-97435996D01*
X133339065Y-97435994D01*
X133339064Y-97435994D01*
X133214774Y-97399500D01*
X133214772Y-97399500D01*
X133085228Y-97399500D01*
X133085226Y-97399500D01*
X132960935Y-97435994D01*
X132960932Y-97435995D01*
X132960931Y-97435996D01*
X132932532Y-97454247D01*
X132851950Y-97506033D01*
X132767118Y-97603937D01*
X132767117Y-97603938D01*
X132713304Y-97721769D01*
X132713302Y-97721779D01*
X132707548Y-97761794D01*
X132678522Y-97825349D01*
X132672492Y-97831825D01*
X131337401Y-99166916D01*
X131276078Y-99200401D01*
X131206386Y-99195417D01*
X131150453Y-99153545D01*
X131126036Y-99088081D01*
X131135246Y-99037040D01*
X131134199Y-99036733D01*
X131136697Y-99028226D01*
X131137625Y-99021774D01*
X131155133Y-98900000D01*
X131136697Y-98771774D01*
X131082882Y-98653937D01*
X130998049Y-98556033D01*
X130889069Y-98485996D01*
X130889065Y-98485994D01*
X130889064Y-98485994D01*
X130764774Y-98449500D01*
X130764772Y-98449500D01*
X130655122Y-98449500D01*
X130588083Y-98429815D01*
X130567441Y-98413181D01*
X130475857Y-98321597D01*
X130341897Y-98187636D01*
X130314928Y-98176465D01*
X130249829Y-98149500D01*
X130249828Y-98149500D01*
X127264270Y-98149500D01*
X127264262Y-98149499D01*
X127249828Y-98149499D01*
X127150172Y-98149499D01*
X127150170Y-98149499D01*
X127150168Y-98149500D01*
X127085072Y-98176463D01*
X127085069Y-98176465D01*
X127058103Y-98187636D01*
X127058099Y-98187639D01*
X126832558Y-98413181D01*
X126771235Y-98446666D01*
X126744877Y-98449500D01*
X126635226Y-98449500D01*
X126510935Y-98485994D01*
X126510932Y-98485995D01*
X126510931Y-98485996D01*
X126466525Y-98514534D01*
X126401950Y-98556033D01*
X126317118Y-98653937D01*
X126317116Y-98653939D01*
X126313499Y-98661860D01*
X126267742Y-98714662D01*
X126200701Y-98734343D01*
X126133668Y-98714658D01*
X126089069Y-98685996D01*
X126089067Y-98685995D01*
X126089065Y-98685994D01*
X125964774Y-98649500D01*
X125964772Y-98649500D01*
X125835228Y-98649500D01*
X125835226Y-98649500D01*
X125710935Y-98685994D01*
X125710932Y-98685995D01*
X125710931Y-98685996D01*
X125682750Y-98704107D01*
X125601950Y-98756033D01*
X125517118Y-98853937D01*
X125517117Y-98853938D01*
X125463302Y-98971774D01*
X125444867Y-99100000D01*
X123954259Y-99100000D01*
X125841895Y-97212364D01*
X125841897Y-97212364D01*
X125912364Y-97141897D01*
X125928160Y-97103760D01*
X125950501Y-97049827D01*
X125950501Y-96950172D01*
X125950501Y-96940183D01*
X125950500Y-96940169D01*
X125950500Y-96741796D01*
X125970185Y-96674757D01*
X125993302Y-96648079D01*
X125998038Y-96643973D01*
X125998049Y-96643967D01*
X126076582Y-96553334D01*
X126082879Y-96546067D01*
X126082879Y-96546065D01*
X126082882Y-96546063D01*
X126136697Y-96428226D01*
X126155133Y-96300000D01*
X126136697Y-96171774D01*
X126134361Y-96166660D01*
X126561892Y-96166660D01*
X126561892Y-96166661D01*
X126575692Y-96175333D01*
X126575691Y-96175333D01*
X126745861Y-96234878D01*
X126924997Y-96255062D01*
X126925003Y-96255062D01*
X127104138Y-96234878D01*
X127104141Y-96234877D01*
X127274305Y-96175334D01*
X127274306Y-96175334D01*
X127288106Y-96166661D01*
X127288106Y-96166660D01*
X127836892Y-96166660D01*
X127836892Y-96166661D01*
X127850692Y-96175333D01*
X127850691Y-96175333D01*
X128020861Y-96234878D01*
X128199997Y-96255062D01*
X128200003Y-96255062D01*
X128379138Y-96234878D01*
X128379141Y-96234877D01*
X128549305Y-96175334D01*
X128549306Y-96175334D01*
X128563106Y-96166661D01*
X128563106Y-96166660D01*
X129111892Y-96166660D01*
X129111892Y-96166661D01*
X129125692Y-96175333D01*
X129125691Y-96175333D01*
X129295861Y-96234878D01*
X129474997Y-96255062D01*
X129475003Y-96255062D01*
X129654138Y-96234878D01*
X129654141Y-96234877D01*
X129824305Y-96175334D01*
X129824306Y-96175334D01*
X129838106Y-96166661D01*
X129838106Y-96166660D01*
X129475001Y-95803553D01*
X129475000Y-95803553D01*
X129111892Y-96166660D01*
X128563106Y-96166660D01*
X128200001Y-95803553D01*
X128200000Y-95803553D01*
X127836892Y-96166660D01*
X127288106Y-96166660D01*
X126925001Y-95803553D01*
X126925000Y-95803553D01*
X126561892Y-96166660D01*
X126134361Y-96166660D01*
X126082882Y-96053937D01*
X126082880Y-96053935D01*
X126082879Y-96053932D01*
X126045990Y-96011359D01*
X126043450Y-96005798D01*
X126042036Y-96005135D01*
X126030476Y-95993456D01*
X125998051Y-95956034D01*
X125954413Y-95927990D01*
X125889069Y-95885996D01*
X125889065Y-95885994D01*
X125889064Y-95885994D01*
X125764774Y-95849500D01*
X125764772Y-95849500D01*
X125635228Y-95849500D01*
X125635226Y-95849500D01*
X125510935Y-95885994D01*
X125510932Y-95885995D01*
X125510931Y-95885996D01*
X125459677Y-95918934D01*
X125401950Y-95956033D01*
X125317118Y-96053937D01*
X125317117Y-96053938D01*
X125263302Y-96171774D01*
X125244867Y-96300000D01*
X125263302Y-96428225D01*
X125317117Y-96546061D01*
X125317120Y-96546067D01*
X125377653Y-96615925D01*
X125401951Y-96643967D01*
X125401957Y-96643971D01*
X125406698Y-96648079D01*
X125444475Y-96706856D01*
X125449500Y-96741796D01*
X125449500Y-96844876D01*
X125429815Y-96911915D01*
X125413181Y-96932557D01*
X122540661Y-99805076D01*
X122540662Y-99805077D01*
X122487636Y-99858103D01*
X122449500Y-99950170D01*
X122449500Y-101494876D01*
X122429815Y-101561915D01*
X122413181Y-101582557D01*
X122282557Y-101713181D01*
X122221234Y-101746666D01*
X122194876Y-101749500D01*
X122085226Y-101749500D01*
X121960935Y-101785994D01*
X121960932Y-101785995D01*
X121960931Y-101785996D01*
X121938873Y-101800172D01*
X121851950Y-101856033D01*
X121767118Y-101953937D01*
X121767117Y-101953938D01*
X121713302Y-102071774D01*
X121694867Y-102200000D01*
X116999235Y-102200000D01*
X122612416Y-96586819D01*
X122673739Y-96553334D01*
X122700097Y-96550500D01*
X122877644Y-96550500D01*
X122877646Y-96550500D01*
X122969715Y-96512364D01*
X123362364Y-96119715D01*
X123400500Y-96027646D01*
X123400500Y-95927990D01*
X123400500Y-95586452D01*
X123400501Y-95586443D01*
X123400501Y-95472356D01*
X123400501Y-95472355D01*
X123391240Y-95449997D01*
X126119938Y-95449997D01*
X126119938Y-95450002D01*
X126140121Y-95629138D01*
X126199666Y-95799307D01*
X126208337Y-95813106D01*
X126208339Y-95813106D01*
X126571446Y-95450000D01*
X126571446Y-95449999D01*
X126536637Y-95415190D01*
X126750000Y-95415190D01*
X126750000Y-95484810D01*
X126776643Y-95549129D01*
X126825871Y-95598357D01*
X126890190Y-95625000D01*
X126959810Y-95625000D01*
X127024129Y-95598357D01*
X127073357Y-95549129D01*
X127100000Y-95484810D01*
X127100000Y-95415190D01*
X127073357Y-95350871D01*
X127024129Y-95301643D01*
X126959810Y-95275000D01*
X126890190Y-95275000D01*
X126825871Y-95301643D01*
X126776643Y-95350871D01*
X126750000Y-95415190D01*
X126536637Y-95415190D01*
X126208338Y-95086891D01*
X126208337Y-95086891D01*
X126199667Y-95100691D01*
X126199662Y-95100701D01*
X126140122Y-95270858D01*
X126140121Y-95270861D01*
X126119938Y-95449997D01*
X123391240Y-95449997D01*
X123363242Y-95382405D01*
X123362364Y-95380285D01*
X123291897Y-95309818D01*
X123284832Y-95302753D01*
X123284825Y-95302747D01*
X122891267Y-94909188D01*
X122857782Y-94847865D01*
X122862766Y-94778173D01*
X122904638Y-94722240D01*
X122911883Y-94717209D01*
X122948049Y-94693967D01*
X123032882Y-94596063D01*
X123086697Y-94478226D01*
X123105133Y-94350000D01*
X123101286Y-94323247D01*
X123111227Y-94254090D01*
X123136339Y-94217920D01*
X123179262Y-94174997D01*
X126119938Y-94174997D01*
X126119938Y-94175002D01*
X126140121Y-94354138D01*
X126199665Y-94524304D01*
X126208338Y-94538107D01*
X126571446Y-94175000D01*
X126571446Y-94174999D01*
X126536637Y-94140190D01*
X126750000Y-94140190D01*
X126750000Y-94209810D01*
X126776643Y-94274129D01*
X126825871Y-94323357D01*
X126890190Y-94350000D01*
X126959810Y-94350000D01*
X127024129Y-94323357D01*
X127073357Y-94274129D01*
X127100000Y-94209810D01*
X127100000Y-94140190D01*
X127073357Y-94075871D01*
X127024129Y-94026643D01*
X126959810Y-94000000D01*
X126890190Y-94000000D01*
X126825871Y-94026643D01*
X126776643Y-94075871D01*
X126750000Y-94140190D01*
X126536637Y-94140190D01*
X126208338Y-93811891D01*
X126208337Y-93811891D01*
X126199667Y-93825691D01*
X126199662Y-93825701D01*
X126140122Y-93995858D01*
X126140121Y-93995861D01*
X126119938Y-94174997D01*
X123179262Y-94174997D01*
X123816761Y-93537500D01*
X126641053Y-93537500D01*
X127190872Y-94087319D01*
X127224357Y-94148642D01*
X127219373Y-94218334D01*
X127190872Y-94262681D01*
X126641053Y-94812500D01*
X127562499Y-95733946D01*
X127881256Y-95415190D01*
X128025000Y-95415190D01*
X128025000Y-95484810D01*
X128051643Y-95549129D01*
X128100871Y-95598357D01*
X128165190Y-95625000D01*
X128234810Y-95625000D01*
X128299129Y-95598357D01*
X128348357Y-95549129D01*
X128375000Y-95484810D01*
X128375000Y-95415190D01*
X128348357Y-95350871D01*
X128299129Y-95301643D01*
X128234810Y-95275000D01*
X128165190Y-95275000D01*
X128100871Y-95301643D01*
X128051643Y-95350871D01*
X128025000Y-95415190D01*
X127881256Y-95415190D01*
X128112319Y-95184127D01*
X128173642Y-95150642D01*
X128243334Y-95155626D01*
X128287681Y-95184127D01*
X128837500Y-95733946D01*
X129156257Y-95415190D01*
X129300000Y-95415190D01*
X129300000Y-95484810D01*
X129326643Y-95549129D01*
X129375871Y-95598357D01*
X129440190Y-95625000D01*
X129509810Y-95625000D01*
X129574129Y-95598357D01*
X129623357Y-95549129D01*
X129650000Y-95484810D01*
X129650000Y-95450000D01*
X129828553Y-95450000D01*
X130191660Y-95813106D01*
X130191661Y-95813106D01*
X130200334Y-95799306D01*
X130200334Y-95799305D01*
X130259877Y-95629141D01*
X130259878Y-95629138D01*
X130280062Y-95450002D01*
X130280062Y-95449997D01*
X130259878Y-95270861D01*
X130200333Y-95100692D01*
X130191661Y-95086892D01*
X130191660Y-95086892D01*
X129828553Y-95450000D01*
X129650000Y-95450000D01*
X129650000Y-95415190D01*
X129623357Y-95350871D01*
X129574129Y-95301643D01*
X129509810Y-95275000D01*
X129440190Y-95275000D01*
X129375871Y-95301643D01*
X129326643Y-95350871D01*
X129300000Y-95415190D01*
X129156257Y-95415190D01*
X129475000Y-95096447D01*
X129758946Y-94812500D01*
X129209127Y-94262681D01*
X129175642Y-94201358D01*
X129180016Y-94140190D01*
X129300000Y-94140190D01*
X129300000Y-94209810D01*
X129326643Y-94274129D01*
X129375871Y-94323357D01*
X129440190Y-94350000D01*
X129509810Y-94350000D01*
X129574129Y-94323357D01*
X129623357Y-94274129D01*
X129650000Y-94209810D01*
X129650000Y-94175000D01*
X129828553Y-94175000D01*
X130191660Y-94538106D01*
X130191661Y-94538106D01*
X130200334Y-94524306D01*
X130200334Y-94524305D01*
X130259877Y-94354141D01*
X130259878Y-94354138D01*
X130280062Y-94175002D01*
X130280062Y-94174997D01*
X130259878Y-93995861D01*
X130200333Y-93825692D01*
X130191661Y-93811892D01*
X130191660Y-93811892D01*
X129828553Y-94175000D01*
X129650000Y-94175000D01*
X129650000Y-94140190D01*
X129623357Y-94075871D01*
X129574129Y-94026643D01*
X129509810Y-94000000D01*
X129440190Y-94000000D01*
X129375871Y-94026643D01*
X129326643Y-94075871D01*
X129300000Y-94140190D01*
X129180016Y-94140190D01*
X129180626Y-94131666D01*
X129209127Y-94087319D01*
X129475000Y-93821447D01*
X129758946Y-93537500D01*
X129758946Y-93537499D01*
X129086637Y-92865190D01*
X129300000Y-92865190D01*
X129300000Y-92934810D01*
X129326643Y-92999129D01*
X129375871Y-93048357D01*
X129440190Y-93075000D01*
X129509810Y-93075000D01*
X129574129Y-93048357D01*
X129623357Y-92999129D01*
X129650000Y-92934810D01*
X129650000Y-92900000D01*
X129828553Y-92900000D01*
X130191660Y-93263106D01*
X130191661Y-93263106D01*
X130200334Y-93249306D01*
X130200334Y-93249305D01*
X130259877Y-93079141D01*
X130259878Y-93079138D01*
X130280062Y-92900002D01*
X130280062Y-92899997D01*
X130259878Y-92720861D01*
X130200333Y-92550692D01*
X130191661Y-92536892D01*
X130191660Y-92536892D01*
X129828553Y-92900000D01*
X129650000Y-92900000D01*
X129650000Y-92865190D01*
X129623357Y-92800871D01*
X129574129Y-92751643D01*
X129509810Y-92725000D01*
X129440190Y-92725000D01*
X129375871Y-92751643D01*
X129326643Y-92800871D01*
X129300000Y-92865190D01*
X129086637Y-92865190D01*
X128837500Y-92616053D01*
X128287681Y-93165872D01*
X128226358Y-93199357D01*
X128156666Y-93194373D01*
X128112319Y-93165872D01*
X127811637Y-92865190D01*
X128025000Y-92865190D01*
X128025000Y-92934810D01*
X128051643Y-92999129D01*
X128100871Y-93048357D01*
X128165190Y-93075000D01*
X128234810Y-93075000D01*
X128299129Y-93048357D01*
X128348357Y-92999129D01*
X128375000Y-92934810D01*
X128375000Y-92865190D01*
X128348357Y-92800871D01*
X128299129Y-92751643D01*
X128234810Y-92725000D01*
X128165190Y-92725000D01*
X128100871Y-92751643D01*
X128051643Y-92800871D01*
X128025000Y-92865190D01*
X127811637Y-92865190D01*
X127562500Y-92616053D01*
X126641053Y-93537500D01*
X123816761Y-93537500D01*
X123912364Y-93441897D01*
X123950500Y-93349828D01*
X123950500Y-93250172D01*
X123950500Y-92899997D01*
X126119938Y-92899997D01*
X126119938Y-92900002D01*
X126140121Y-93079138D01*
X126199665Y-93249304D01*
X126208338Y-93263107D01*
X126571446Y-92900000D01*
X126571446Y-92899999D01*
X126536637Y-92865190D01*
X126750000Y-92865190D01*
X126750000Y-92934810D01*
X126776643Y-92999129D01*
X126825871Y-93048357D01*
X126890190Y-93075000D01*
X126959810Y-93075000D01*
X127024129Y-93048357D01*
X127073357Y-92999129D01*
X127100000Y-92934810D01*
X127100000Y-92865190D01*
X127073357Y-92800871D01*
X127024129Y-92751643D01*
X126959810Y-92725000D01*
X126890190Y-92725000D01*
X126825871Y-92751643D01*
X126776643Y-92800871D01*
X126750000Y-92865190D01*
X126536637Y-92865190D01*
X126208338Y-92536891D01*
X126208337Y-92536891D01*
X126199667Y-92550691D01*
X126199662Y-92550701D01*
X126140122Y-92720858D01*
X126140121Y-92720861D01*
X126119938Y-92899997D01*
X123950500Y-92899997D01*
X123950500Y-92183337D01*
X126561891Y-92183337D01*
X126561891Y-92183338D01*
X126925000Y-92546446D01*
X126925001Y-92546446D01*
X127288107Y-92183338D01*
X127288105Y-92183337D01*
X127836891Y-92183337D01*
X127836891Y-92183338D01*
X128200000Y-92546446D01*
X128200001Y-92546446D01*
X128563107Y-92183338D01*
X128563105Y-92183337D01*
X129111891Y-92183337D01*
X129111891Y-92183338D01*
X129475000Y-92546446D01*
X129475001Y-92546446D01*
X129838107Y-92183338D01*
X129824304Y-92174665D01*
X129654138Y-92115121D01*
X129475003Y-92094938D01*
X129474997Y-92094938D01*
X129295861Y-92115121D01*
X129295858Y-92115122D01*
X129125701Y-92174662D01*
X129125691Y-92174667D01*
X129111891Y-92183337D01*
X128563105Y-92183337D01*
X128549304Y-92174665D01*
X128379138Y-92115121D01*
X128200003Y-92094938D01*
X128199997Y-92094938D01*
X128020861Y-92115121D01*
X128020858Y-92115122D01*
X127850701Y-92174662D01*
X127850691Y-92174667D01*
X127836891Y-92183337D01*
X127288105Y-92183337D01*
X127274304Y-92174665D01*
X127104138Y-92115121D01*
X126925003Y-92094938D01*
X126924997Y-92094938D01*
X126745861Y-92115121D01*
X126745858Y-92115122D01*
X126575701Y-92174662D01*
X126575691Y-92174667D01*
X126561891Y-92183337D01*
X123950500Y-92183337D01*
X123950500Y-88629657D01*
X129437392Y-88629657D01*
X129455827Y-88757882D01*
X129509642Y-88875718D01*
X129509643Y-88875720D01*
X129594476Y-88973624D01*
X129703456Y-89043661D01*
X129803426Y-89073014D01*
X129827750Y-89080156D01*
X129827752Y-89080157D01*
X129937403Y-89080157D01*
X130004442Y-89099842D01*
X130025084Y-89116476D01*
X130543433Y-89634825D01*
X130543436Y-89634829D01*
X130550504Y-89641897D01*
X130620971Y-89712364D01*
X130655886Y-89726826D01*
X130702145Y-89760184D01*
X130774743Y-89843967D01*
X130883723Y-89914004D01*
X130968360Y-89938855D01*
X131008017Y-89950499D01*
X131008019Y-89950500D01*
X131008020Y-89950500D01*
X131137565Y-89950500D01*
X131137565Y-89950499D01*
X131261861Y-89914004D01*
X131370841Y-89843967D01*
X131455674Y-89746063D01*
X131455678Y-89746054D01*
X131460468Y-89738603D01*
X131462116Y-89739662D01*
X131500418Y-89695448D01*
X131567455Y-89675754D01*
X131602406Y-89680777D01*
X131734058Y-89719432D01*
X131734060Y-89719433D01*
X131734061Y-89719433D01*
X131863606Y-89719433D01*
X131863606Y-89719432D01*
X131987902Y-89682937D01*
X132096882Y-89612900D01*
X132181715Y-89514996D01*
X132235530Y-89397159D01*
X132253966Y-89268933D01*
X132235530Y-89140707D01*
X132181715Y-89022870D01*
X132096882Y-88924966D01*
X131987902Y-88854929D01*
X131987898Y-88854927D01*
X131987897Y-88854927D01*
X131863607Y-88818433D01*
X131863605Y-88818433D01*
X131753956Y-88818433D01*
X131691181Y-88800000D01*
X136344867Y-88800000D01*
X136363302Y-88928225D01*
X136406526Y-89022870D01*
X136417118Y-89046063D01*
X136501951Y-89143967D01*
X136610931Y-89214004D01*
X136735225Y-89250499D01*
X136735227Y-89250500D01*
X136735228Y-89250500D01*
X136864773Y-89250500D01*
X136864773Y-89250499D01*
X136989069Y-89214004D01*
X137098049Y-89143967D01*
X137182882Y-89046063D01*
X137236697Y-88928226D01*
X137255133Y-88800000D01*
X137245000Y-88729526D01*
X137254943Y-88660373D01*
X137280052Y-88624208D01*
X137467443Y-88436816D01*
X137528766Y-88403334D01*
X137555123Y-88400500D01*
X137814333Y-88400500D01*
X137881372Y-88420185D01*
X137908046Y-88443297D01*
X137951951Y-88493967D01*
X138060931Y-88564004D01*
X138170716Y-88596239D01*
X138185225Y-88600499D01*
X138185227Y-88600500D01*
X138185228Y-88600500D01*
X138314773Y-88600500D01*
X138314773Y-88600499D01*
X138439069Y-88564004D01*
X138548049Y-88493967D01*
X138632882Y-88396063D01*
X138686697Y-88278226D01*
X138705133Y-88150000D01*
X138686697Y-88021774D01*
X138632882Y-87903937D01*
X138548049Y-87806033D01*
X138439069Y-87735996D01*
X138439065Y-87735994D01*
X138439064Y-87735994D01*
X138314774Y-87699500D01*
X138314772Y-87699500D01*
X138185228Y-87699500D01*
X138185226Y-87699500D01*
X138060935Y-87735994D01*
X138060932Y-87735995D01*
X138060931Y-87735996D01*
X138030803Y-87755358D01*
X137951950Y-87806033D01*
X137908047Y-87856702D01*
X137849269Y-87894477D01*
X137814333Y-87899500D01*
X137350170Y-87899500D01*
X137258102Y-87937636D01*
X137258101Y-87937637D01*
X136882558Y-88313181D01*
X136821235Y-88346666D01*
X136794877Y-88349500D01*
X136735226Y-88349500D01*
X136610935Y-88385994D01*
X136610932Y-88385995D01*
X136610931Y-88385996D01*
X136559677Y-88418934D01*
X136501950Y-88456033D01*
X136417118Y-88553937D01*
X136417117Y-88553938D01*
X136363302Y-88671774D01*
X136344867Y-88800000D01*
X131691181Y-88800000D01*
X131686917Y-88798748D01*
X131666275Y-88782114D01*
X130878983Y-87994822D01*
X130853870Y-87958653D01*
X130844828Y-87938854D01*
X130805739Y-87853262D01*
X130720906Y-87755358D01*
X130611926Y-87685321D01*
X130611922Y-87685319D01*
X130611921Y-87685319D01*
X130487631Y-87648825D01*
X130487629Y-87648825D01*
X130358085Y-87648825D01*
X130358083Y-87648825D01*
X130233792Y-87685319D01*
X130233789Y-87685320D01*
X130233788Y-87685321D01*
X130211725Y-87699500D01*
X130124807Y-87755358D01*
X130039975Y-87853262D01*
X130039974Y-87853263D01*
X129986159Y-87971099D01*
X129971537Y-88072804D01*
X129942512Y-88136360D01*
X129883734Y-88174134D01*
X129848799Y-88179157D01*
X129827751Y-88179157D01*
X129703460Y-88215651D01*
X129703457Y-88215652D01*
X129703456Y-88215653D01*
X129674637Y-88234174D01*
X129594475Y-88285690D01*
X129509643Y-88383594D01*
X129509642Y-88383595D01*
X129455827Y-88501431D01*
X129437392Y-88629657D01*
X123950500Y-88629657D01*
X123950500Y-88350172D01*
X123912364Y-88258103D01*
X123841897Y-88187636D01*
X123834832Y-88180571D01*
X123834825Y-88180565D01*
X122511870Y-86857609D01*
X122478385Y-86796286D01*
X122475551Y-86769928D01*
X122475551Y-86697702D01*
X122495236Y-86630663D01*
X122511870Y-86610021D01*
X122629140Y-86492751D01*
X122759597Y-86362294D01*
X122797733Y-86270225D01*
X122797733Y-86170569D01*
X122797733Y-85714933D01*
X122759597Y-85622864D01*
X122689130Y-85552397D01*
X122682065Y-85545332D01*
X122682058Y-85545326D01*
X120151363Y-83014631D01*
X126151958Y-83014631D01*
X135083867Y-83014631D01*
X135083867Y-81015424D01*
X126151958Y-81015424D01*
X126151958Y-83014631D01*
X120151363Y-83014631D01*
X118303817Y-81167085D01*
X115168237Y-78031504D01*
X130460000Y-78031504D01*
X130460000Y-78430000D01*
X131160000Y-78430000D01*
X131160000Y-78930000D01*
X130460000Y-78930000D01*
X130460000Y-79328495D01*
X130498427Y-79521681D01*
X130498430Y-79521693D01*
X130573807Y-79703671D01*
X130573814Y-79703684D01*
X130683248Y-79867462D01*
X130683251Y-79867466D01*
X130822533Y-80006748D01*
X130822537Y-80006751D01*
X130986315Y-80116185D01*
X130986328Y-80116192D01*
X131168308Y-80191569D01*
X131210000Y-80199862D01*
X131210000Y-79396988D01*
X131219940Y-79414205D01*
X131275795Y-79470060D01*
X131344204Y-79509556D01*
X131420504Y-79530000D01*
X131499496Y-79530000D01*
X131575796Y-79509556D01*
X131644205Y-79470060D01*
X131700060Y-79414205D01*
X131710000Y-79396988D01*
X131710000Y-80199862D01*
X131751690Y-80191569D01*
X131751692Y-80191569D01*
X131933671Y-80116192D01*
X131933684Y-80116185D01*
X132097462Y-80006751D01*
X132097466Y-80006748D01*
X132236748Y-79867466D01*
X132236751Y-79867462D01*
X132346185Y-79703684D01*
X132346192Y-79703671D01*
X132421569Y-79521693D01*
X132421572Y-79521681D01*
X132459999Y-79328495D01*
X132460000Y-79328492D01*
X132460000Y-78781044D01*
X132479685Y-78714005D01*
X132532489Y-78668250D01*
X132601647Y-78658306D01*
X132646000Y-78673657D01*
X132667865Y-78686281D01*
X132814234Y-78725500D01*
X132814236Y-78725500D01*
X132965764Y-78725500D01*
X132965766Y-78725500D01*
X133112135Y-78686281D01*
X133243365Y-78610515D01*
X133350515Y-78503365D01*
X133426281Y-78372135D01*
X133465500Y-78225766D01*
X133465500Y-78100000D01*
X136594867Y-78100000D01*
X136613302Y-78228225D01*
X136667117Y-78346061D01*
X136667118Y-78346063D01*
X136751951Y-78443967D01*
X136860931Y-78514004D01*
X136985225Y-78550499D01*
X136985227Y-78550500D01*
X136985228Y-78550500D01*
X137114773Y-78550500D01*
X137114773Y-78550499D01*
X137239069Y-78514004D01*
X137348049Y-78443967D01*
X137432882Y-78346063D01*
X137486697Y-78228226D01*
X137504324Y-78105621D01*
X137518658Y-78074234D01*
X138094500Y-78074234D01*
X138094500Y-78225765D01*
X138133719Y-78372136D01*
X138171602Y-78437750D01*
X138209485Y-78503365D01*
X138316635Y-78610515D01*
X138447865Y-78686281D01*
X138594234Y-78725500D01*
X138594236Y-78725500D01*
X138745764Y-78725500D01*
X138745766Y-78725500D01*
X138892135Y-78686281D01*
X138913999Y-78673657D01*
X138981897Y-78657184D01*
X139047925Y-78680035D01*
X139091117Y-78734955D01*
X139100000Y-78781044D01*
X139100000Y-79328495D01*
X139138427Y-79521681D01*
X139138430Y-79521693D01*
X139213807Y-79703671D01*
X139213814Y-79703684D01*
X139323248Y-79867462D01*
X139323251Y-79867466D01*
X139462533Y-80006748D01*
X139462537Y-80006751D01*
X139626315Y-80116185D01*
X139626328Y-80116192D01*
X139808308Y-80191569D01*
X139850000Y-80199862D01*
X139850000Y-79396988D01*
X139859940Y-79414205D01*
X139915795Y-79470060D01*
X139984204Y-79509556D01*
X140060504Y-79530000D01*
X140139496Y-79530000D01*
X140215796Y-79509556D01*
X140284205Y-79470060D01*
X140340060Y-79414205D01*
X140350000Y-79396988D01*
X140350000Y-80199862D01*
X140391690Y-80191569D01*
X140391692Y-80191569D01*
X140573671Y-80116192D01*
X140573684Y-80116185D01*
X140737462Y-80006751D01*
X140737466Y-80006748D01*
X140876748Y-79867466D01*
X140876751Y-79867462D01*
X140986185Y-79703684D01*
X140986192Y-79703671D01*
X141061569Y-79521693D01*
X141061572Y-79521681D01*
X141099999Y-79328495D01*
X141100000Y-79328492D01*
X141100000Y-78930000D01*
X140400000Y-78930000D01*
X140400000Y-78430000D01*
X141100000Y-78430000D01*
X141100000Y-78031508D01*
X141099999Y-78031504D01*
X141061572Y-77838318D01*
X141061569Y-77838306D01*
X140986192Y-77656328D01*
X140986185Y-77656315D01*
X140876751Y-77492537D01*
X140876748Y-77492533D01*
X140737466Y-77353251D01*
X140737462Y-77353248D01*
X140573684Y-77243814D01*
X140573671Y-77243807D01*
X140391691Y-77168429D01*
X140391683Y-77168427D01*
X140350000Y-77160135D01*
X140350000Y-77963011D01*
X140340060Y-77945795D01*
X140284205Y-77889940D01*
X140215796Y-77850444D01*
X140139496Y-77830000D01*
X140060504Y-77830000D01*
X139984204Y-77850444D01*
X139915795Y-77889940D01*
X139859940Y-77945795D01*
X139850000Y-77963011D01*
X139850000Y-77160136D01*
X139849999Y-77160135D01*
X139808316Y-77168427D01*
X139808308Y-77168429D01*
X139626328Y-77243807D01*
X139626315Y-77243814D01*
X139462537Y-77353248D01*
X139462533Y-77353251D01*
X139323248Y-77492536D01*
X139210427Y-77661387D01*
X139209003Y-77660435D01*
X139165742Y-77704451D01*
X139097600Y-77719892D01*
X139031927Y-77696041D01*
X139029907Y-77694306D01*
X139029811Y-77694432D01*
X139023367Y-77689487D01*
X139023365Y-77689485D01*
X138917262Y-77628226D01*
X138892136Y-77613719D01*
X138818950Y-77594109D01*
X138745766Y-77574500D01*
X138594234Y-77574500D01*
X138447863Y-77613719D01*
X138316635Y-77689485D01*
X138316632Y-77689487D01*
X138209487Y-77796632D01*
X138209485Y-77796635D01*
X138133719Y-77927863D01*
X138094500Y-78074234D01*
X137518658Y-78074234D01*
X137533349Y-78042067D01*
X137539367Y-78035602D01*
X138738152Y-76836819D01*
X138799475Y-76803334D01*
X138825833Y-76800500D01*
X147894560Y-76800500D01*
X147894562Y-76800500D01*
X147970989Y-76780021D01*
X148039511Y-76740460D01*
X148095460Y-76684511D01*
X148477620Y-76302349D01*
X148538941Y-76268866D01*
X148608632Y-76273850D01*
X148614613Y-76276549D01*
X148614641Y-76276482D01*
X148620260Y-76278809D01*
X148620268Y-76278811D01*
X148620273Y-76278814D01*
X148808868Y-76336024D01*
X149005000Y-76355341D01*
X149201132Y-76336024D01*
X149389727Y-76278814D01*
X149389737Y-76278809D01*
X149499801Y-76219978D01*
X149563538Y-76185910D01*
X149715883Y-76060883D01*
X149840910Y-75908538D01*
X149920071Y-75760438D01*
X149933811Y-75734733D01*
X149933812Y-75734730D01*
X149933814Y-75734727D01*
X149975397Y-75597648D01*
X150549500Y-75597648D01*
X150549500Y-75802352D01*
X150551346Y-75814004D01*
X150581522Y-76004534D01*
X150644781Y-76199223D01*
X150697328Y-76302351D01*
X150724328Y-76355341D01*
X150737715Y-76381613D01*
X150858028Y-76547213D01*
X151002786Y-76691971D01*
X151152166Y-76800500D01*
X151168390Y-76812287D01*
X151258309Y-76858103D01*
X151350776Y-76905218D01*
X151350778Y-76905218D01*
X151350781Y-76905220D01*
X151455137Y-76939127D01*
X151545465Y-76968477D01*
X151646557Y-76984488D01*
X151747648Y-77000500D01*
X151747649Y-77000500D01*
X151952351Y-77000500D01*
X151952352Y-77000500D01*
X152154534Y-76968477D01*
X152349219Y-76905220D01*
X152531610Y-76812287D01*
X152630475Y-76740458D01*
X152697213Y-76691971D01*
X152697215Y-76691968D01*
X152697219Y-76691966D01*
X152841966Y-76547219D01*
X152841968Y-76547215D01*
X152841971Y-76547213D01*
X152894732Y-76474590D01*
X152962287Y-76381610D01*
X153055220Y-76199219D01*
X153118477Y-76004534D01*
X153150500Y-75802352D01*
X153150500Y-75597648D01*
X153144930Y-75562482D01*
X153118477Y-75395465D01*
X153055218Y-75200776D01*
X153021254Y-75134119D01*
X152962287Y-75018390D01*
X152938750Y-74985994D01*
X152841971Y-74852786D01*
X152697213Y-74708028D01*
X152531613Y-74587715D01*
X152531612Y-74587714D01*
X152531610Y-74587713D01*
X152447069Y-74544637D01*
X152349223Y-74494781D01*
X152154534Y-74431522D01*
X151979995Y-74403878D01*
X151952352Y-74399500D01*
X151747648Y-74399500D01*
X151723329Y-74403351D01*
X151545465Y-74431522D01*
X151350776Y-74494781D01*
X151168386Y-74587715D01*
X151002786Y-74708028D01*
X150858028Y-74852786D01*
X150737715Y-75018386D01*
X150644781Y-75200776D01*
X150581522Y-75395465D01*
X150555070Y-75562482D01*
X150549500Y-75597648D01*
X149975397Y-75597648D01*
X149991024Y-75546132D01*
X150010341Y-75350000D01*
X149991024Y-75153868D01*
X149933814Y-74965273D01*
X149933811Y-74965269D01*
X149933811Y-74965266D01*
X149840913Y-74791467D01*
X149840909Y-74791460D01*
X149715883Y-74639116D01*
X149563539Y-74514090D01*
X149563532Y-74514086D01*
X149389733Y-74421188D01*
X149389727Y-74421186D01*
X149201132Y-74363976D01*
X149201129Y-74363975D01*
X149005000Y-74344659D01*
X148808870Y-74363975D01*
X148620266Y-74421188D01*
X148446467Y-74514086D01*
X148446460Y-74514090D01*
X148294116Y-74639116D01*
X148169090Y-74791460D01*
X148169086Y-74791467D01*
X148076186Y-74965271D01*
X148034099Y-75104010D01*
X147995801Y-75162449D01*
X147931989Y-75190905D01*
X147862922Y-75180344D01*
X147810529Y-75134119D01*
X147795664Y-75100107D01*
X147738433Y-74886516D01*
X147738429Y-74886507D01*
X147638600Y-74672422D01*
X147638599Y-74672420D01*
X147503113Y-74478926D01*
X147503108Y-74478920D01*
X147336082Y-74311894D01*
X147142578Y-74176399D01*
X146928492Y-74076570D01*
X146928486Y-74076567D01*
X146715000Y-74019364D01*
X146715000Y-74916988D01*
X146657993Y-74884075D01*
X146530826Y-74850000D01*
X146399174Y-74850000D01*
X146272007Y-74884075D01*
X146215000Y-74916988D01*
X146215000Y-74019364D01*
X146214999Y-74019364D01*
X146001513Y-74076567D01*
X146001507Y-74076570D01*
X145787422Y-74176399D01*
X145787420Y-74176400D01*
X145593926Y-74311886D01*
X145593920Y-74311891D01*
X145426891Y-74478920D01*
X145426886Y-74478926D01*
X145291400Y-74672420D01*
X145291399Y-74672422D01*
X145191570Y-74886507D01*
X145191567Y-74886513D01*
X145169275Y-74969711D01*
X145132910Y-75029371D01*
X145070063Y-75059900D01*
X145000687Y-75051605D01*
X144946810Y-75007120D01*
X144925535Y-74940568D01*
X144925500Y-74937617D01*
X144925500Y-74485177D01*
X144916768Y-74441282D01*
X144916767Y-74441281D01*
X144916767Y-74441278D01*
X144883504Y-74391496D01*
X144883503Y-74391495D01*
X144833724Y-74358234D01*
X144833717Y-74358231D01*
X144789822Y-74349500D01*
X144789820Y-74349500D01*
X143060180Y-74349500D01*
X143060178Y-74349500D01*
X143016282Y-74358231D01*
X143016275Y-74358234D01*
X142966496Y-74391495D01*
X142966495Y-74391496D01*
X142933234Y-74441275D01*
X142933231Y-74441282D01*
X142924500Y-74485177D01*
X142924500Y-76075500D01*
X142904815Y-76142539D01*
X142852011Y-76188294D01*
X142800500Y-76199500D01*
X138610438Y-76199500D01*
X138534010Y-76219978D01*
X138465489Y-76259540D01*
X138465486Y-76259542D01*
X137111848Y-77613181D01*
X137050525Y-77646666D01*
X137024167Y-77649500D01*
X136985226Y-77649500D01*
X136860935Y-77685994D01*
X136860932Y-77685995D01*
X136860931Y-77685996D01*
X136820401Y-77712043D01*
X136751950Y-77756033D01*
X136667118Y-77853937D01*
X136667117Y-77853938D01*
X136613302Y-77971774D01*
X136594867Y-78100000D01*
X133465500Y-78100000D01*
X133465500Y-78074234D01*
X133426281Y-77927865D01*
X133418279Y-77914006D01*
X133382321Y-77851725D01*
X133350515Y-77796635D01*
X133243365Y-77689485D01*
X133137262Y-77628226D01*
X133112136Y-77613719D01*
X133038950Y-77594109D01*
X132965766Y-77574500D01*
X132814234Y-77574500D01*
X132667863Y-77613719D01*
X132536635Y-77689485D01*
X132530189Y-77694432D01*
X132528099Y-77691709D01*
X132480217Y-77717466D01*
X132410558Y-77712043D01*
X132354888Y-77669821D01*
X132349299Y-77660976D01*
X132236751Y-77492537D01*
X132236748Y-77492533D01*
X132097466Y-77353251D01*
X132097462Y-77353248D01*
X131933684Y-77243814D01*
X131933671Y-77243807D01*
X131751691Y-77168429D01*
X131751683Y-77168427D01*
X131710000Y-77160135D01*
X131710000Y-77963011D01*
X131700060Y-77945795D01*
X131644205Y-77889940D01*
X131575796Y-77850444D01*
X131499496Y-77830000D01*
X131420504Y-77830000D01*
X131344204Y-77850444D01*
X131275795Y-77889940D01*
X131219940Y-77945795D01*
X131210000Y-77963011D01*
X131210000Y-77160136D01*
X131209999Y-77160135D01*
X131168316Y-77168427D01*
X131168308Y-77168429D01*
X130986328Y-77243807D01*
X130986315Y-77243814D01*
X130822537Y-77353248D01*
X130822533Y-77353251D01*
X130683251Y-77492533D01*
X130683248Y-77492537D01*
X130573814Y-77656315D01*
X130573807Y-77656328D01*
X130498430Y-77838306D01*
X130498427Y-77838318D01*
X130460000Y-78031504D01*
X115168237Y-78031504D01*
X113924369Y-76787636D01*
X113897400Y-76776465D01*
X113832301Y-76749500D01*
X113832300Y-76749500D01*
X110164270Y-76749500D01*
X110164262Y-76749499D01*
X110149828Y-76749499D01*
X110050172Y-76749499D01*
X110050170Y-76749499D01*
X110050168Y-76749500D01*
X109985072Y-76776463D01*
X109985069Y-76776465D01*
X109958103Y-76787636D01*
X109958099Y-76787639D01*
X109908920Y-76836819D01*
X109887636Y-76858103D01*
X109887635Y-76858104D01*
X109840521Y-76905218D01*
X109718422Y-77027316D01*
X109657098Y-77060800D01*
X109595810Y-77058612D01*
X109564774Y-77049500D01*
X109564772Y-77049500D01*
X109435228Y-77049500D01*
X109435226Y-77049500D01*
X109310933Y-77085994D01*
X109310932Y-77085994D01*
X109241538Y-77130591D01*
X109174498Y-77150275D01*
X109107459Y-77130590D01*
X109061705Y-77077785D01*
X109050500Y-77026275D01*
X109050500Y-76405122D01*
X109070185Y-76338083D01*
X109086815Y-76317445D01*
X109367441Y-76036818D01*
X109428764Y-76003334D01*
X109455122Y-76000500D01*
X109564773Y-76000500D01*
X109564773Y-76000499D01*
X109689069Y-75964004D01*
X109798049Y-75893967D01*
X109882882Y-75796063D01*
X109936697Y-75678226D01*
X109955133Y-75550000D01*
X109936697Y-75421774D01*
X109926753Y-75400000D01*
X124494867Y-75400000D01*
X124513302Y-75528225D01*
X124565594Y-75642727D01*
X124567118Y-75646063D01*
X124651951Y-75743967D01*
X124760931Y-75814004D01*
X124885225Y-75850499D01*
X124885227Y-75850500D01*
X124885228Y-75850500D01*
X125014773Y-75850500D01*
X125014773Y-75850499D01*
X125139069Y-75814004D01*
X125139073Y-75814000D01*
X125144106Y-75811704D01*
X125195614Y-75800500D01*
X127202725Y-75800500D01*
X127202727Y-75800500D01*
X127304588Y-75773207D01*
X127395913Y-75720480D01*
X127614761Y-75501629D01*
X127667509Y-75470333D01*
X127689069Y-75464004D01*
X127689071Y-75464002D01*
X127689073Y-75464002D01*
X127788661Y-75400000D01*
X127798049Y-75393967D01*
X127882882Y-75296063D01*
X127936697Y-75178226D01*
X127955133Y-75050000D01*
X127936697Y-74921774D01*
X127882882Y-74803937D01*
X127798049Y-74706033D01*
X127689069Y-74635996D01*
X127689065Y-74635994D01*
X127689064Y-74635994D01*
X127564774Y-74599500D01*
X127564772Y-74599500D01*
X127435228Y-74599500D01*
X127435226Y-74599500D01*
X127310935Y-74635994D01*
X127310932Y-74635995D01*
X127310931Y-74635996D01*
X127306075Y-74639117D01*
X127201950Y-74706033D01*
X127117118Y-74803936D01*
X127073831Y-74898720D01*
X127048720Y-74934887D01*
X127020425Y-74963181D01*
X126959105Y-74996666D01*
X126932745Y-74999500D01*
X125195614Y-74999500D01*
X125144106Y-74988296D01*
X125139067Y-74985995D01*
X125014774Y-74949500D01*
X125014772Y-74949500D01*
X124885228Y-74949500D01*
X124885226Y-74949500D01*
X124760935Y-74985994D01*
X124760932Y-74985995D01*
X124760931Y-74985996D01*
X124718584Y-75013211D01*
X124651950Y-75056033D01*
X124567118Y-75153937D01*
X124567117Y-75153938D01*
X124513302Y-75271774D01*
X124494867Y-75400000D01*
X109926753Y-75400000D01*
X109882882Y-75303937D01*
X109798049Y-75206033D01*
X109689069Y-75135996D01*
X109689065Y-75135994D01*
X109689064Y-75135994D01*
X109564774Y-75099500D01*
X109564772Y-75099500D01*
X109435228Y-75099500D01*
X109435226Y-75099500D01*
X109310935Y-75135994D01*
X109310932Y-75135995D01*
X109310931Y-75135996D01*
X109283013Y-75153938D01*
X109201950Y-75206033D01*
X109117118Y-75303937D01*
X109117117Y-75303938D01*
X109063302Y-75421774D01*
X109044867Y-75550000D01*
X109044867Y-75550002D01*
X109048713Y-75576755D01*
X109038769Y-75645913D01*
X109013656Y-75682081D01*
X108658103Y-76037636D01*
X108587637Y-76108101D01*
X108587636Y-76108102D01*
X108549500Y-76200170D01*
X108549500Y-77744876D01*
X108529815Y-77811915D01*
X108513181Y-77832557D01*
X104910661Y-81435076D01*
X104910662Y-81435077D01*
X104857636Y-81488103D01*
X104819500Y-81580170D01*
X104819500Y-83159897D01*
X104819235Y-83168006D01*
X104815172Y-83229997D01*
X104819235Y-83291988D01*
X104819500Y-83300097D01*
X104819500Y-84008598D01*
X104819500Y-84108254D01*
X104857636Y-84200323D01*
X106099675Y-85442362D01*
X106191744Y-85480498D01*
X106291400Y-85480498D01*
X106999900Y-85480498D01*
X107008009Y-85480763D01*
X107070000Y-85484825D01*
X107131991Y-85480763D01*
X107140100Y-85480498D01*
X108755500Y-85480498D01*
X108822539Y-85500183D01*
X108868294Y-85552987D01*
X108879500Y-85604498D01*
X108879500Y-87064818D01*
X108879500Y-87064820D01*
X108879499Y-87064820D01*
X108888231Y-87108715D01*
X108888234Y-87108722D01*
X108921495Y-87158501D01*
X108921496Y-87158502D01*
X108971278Y-87191765D01*
X108971279Y-87191765D01*
X108980054Y-87197628D01*
X109024860Y-87251240D01*
X109033569Y-87320564D01*
X109003415Y-87383592D01*
X108998846Y-87388412D01*
X104599522Y-91787736D01*
X104599520Y-91787739D01*
X104546794Y-91879061D01*
X104546793Y-91879063D01*
X104546793Y-91879064D01*
X104539612Y-91905864D01*
X104539611Y-91905865D01*
X104519500Y-91980923D01*
X104519500Y-98825500D01*
X104499815Y-98892539D01*
X104447011Y-98938294D01*
X104395500Y-98949500D01*
X103728992Y-98949500D01*
X103661953Y-98929815D01*
X103635278Y-98906702D01*
X103548049Y-98806033D01*
X103544512Y-98803760D01*
X103439069Y-98735996D01*
X103439065Y-98735994D01*
X103439064Y-98735994D01*
X103314774Y-98699500D01*
X103314772Y-98699500D01*
X103185228Y-98699500D01*
X103185226Y-98699500D01*
X103060935Y-98735994D01*
X103060932Y-98735995D01*
X103060931Y-98735996D01*
X103029753Y-98756033D01*
X102951950Y-98806033D01*
X102867118Y-98903937D01*
X102867117Y-98903938D01*
X102813302Y-99021774D01*
X102794867Y-99150000D01*
X100150500Y-99150000D01*
X100150500Y-75803750D01*
X100150726Y-75796263D01*
X100157384Y-75686192D01*
X100162740Y-75597648D01*
X100949500Y-75597648D01*
X100949500Y-75802352D01*
X100951346Y-75814004D01*
X100981522Y-76004534D01*
X101044781Y-76199223D01*
X101097328Y-76302351D01*
X101124328Y-76355341D01*
X101137715Y-76381613D01*
X101258028Y-76547213D01*
X101402786Y-76691971D01*
X101552166Y-76800500D01*
X101568390Y-76812287D01*
X101658309Y-76858103D01*
X101750776Y-76905218D01*
X101750778Y-76905218D01*
X101750781Y-76905220D01*
X101855137Y-76939127D01*
X101945465Y-76968477D01*
X102046557Y-76984488D01*
X102147648Y-77000500D01*
X102147649Y-77000500D01*
X102352351Y-77000500D01*
X102352352Y-77000500D01*
X102554534Y-76968477D01*
X102749219Y-76905220D01*
X102931610Y-76812287D01*
X103030475Y-76740458D01*
X103097213Y-76691971D01*
X103097215Y-76691968D01*
X103097219Y-76691966D01*
X103241966Y-76547219D01*
X103241968Y-76547215D01*
X103241971Y-76547213D01*
X103294732Y-76474590D01*
X103362287Y-76381610D01*
X103455220Y-76199219D01*
X103518477Y-76004534D01*
X103550500Y-75802352D01*
X103550500Y-75597648D01*
X103544930Y-75562482D01*
X103518477Y-75395465D01*
X103455218Y-75200776D01*
X103421254Y-75134119D01*
X103362287Y-75018390D01*
X103338750Y-74985994D01*
X103241971Y-74852786D01*
X103097213Y-74708028D01*
X102931613Y-74587715D01*
X102931612Y-74587714D01*
X102931610Y-74587713D01*
X102847069Y-74544637D01*
X102749223Y-74494781D01*
X102554534Y-74431522D01*
X102379995Y-74403878D01*
X102352352Y-74399500D01*
X102147648Y-74399500D01*
X102123329Y-74403351D01*
X101945465Y-74431522D01*
X101750776Y-74494781D01*
X101568386Y-74587715D01*
X101402786Y-74708028D01*
X101258028Y-74852786D01*
X101137715Y-75018386D01*
X101044781Y-75200776D01*
X100981522Y-75395465D01*
X100955070Y-75562482D01*
X100949500Y-75597648D01*
X100162740Y-75597648D01*
X100166084Y-75542359D01*
X100167889Y-75527500D01*
X100169631Y-75517997D01*
X100213062Y-75280995D01*
X100216645Y-75266461D01*
X100291202Y-75027202D01*
X100296504Y-75013219D01*
X100399361Y-74784679D01*
X100406320Y-74771421D01*
X100535975Y-74556946D01*
X100544462Y-74544650D01*
X100699034Y-74347354D01*
X100708949Y-74336163D01*
X100886163Y-74158949D01*
X100897354Y-74149034D01*
X101094650Y-73994462D01*
X101106946Y-73985975D01*
X101321421Y-73856319D01*
X101334680Y-73849361D01*
X101563219Y-73746504D01*
X101577202Y-73741202D01*
X101816467Y-73666643D01*
X101830995Y-73663062D01*
X102077506Y-73617888D01*
X102092359Y-73616084D01*
X102346264Y-73600726D01*
X102353751Y-73600500D01*
X102397595Y-73600500D01*
X130440349Y-73600500D01*
X130507388Y-73620185D01*
G37*
G04 #@! TD.AperFunction*
M02*
