M48
; DRILL file {KiCad 8.0.4} date 2024-12-08T00:01:51+0200
; FORMAT={-:-/ absolute / inch / decimal}
; #@! TF.CreationDate,2024-12-08T00:01:51+02:00
; #@! TF.GenerationSoftware,Kicad,Pcbnew,8.0.4
; #@! TF.FileFunction,Plated,1,2,PTH
FMAT,2
INCH
; #@! TA.AperFunction,Plated,PTH,ViaDrill
T1C0.0138
; #@! TA.AperFunction,Plated,PTH,ComponentDrill
T2C0.0138
; #@! TA.AperFunction,Plated,PTH,ComponentDrill
T3C0.0236
; #@! TA.AperFunction,Plated,PTH,ComponentDrill
T4C0.0315
; #@! TA.AperFunction,Plated,PTH,ComponentDrill
T5C0.0362
; #@! TA.AperFunction,Plated,PTH,ComponentDrill
T6C0.0394
; #@! TA.AperFunction,Plated,PTH,ComponentDrill
T7C0.0906
%
G90
G05
T1
X4.065Y-3.9035
X4.1437Y-4.0728
X4.2205Y-3.0512
X4.2323Y-3.9961
X4.311Y-2.9744
X4.311Y-3.0512
X4.3996Y-3.0531
X4.5217Y-3.9154
X4.5965Y-3.065
X4.6083Y-3.6969
X4.6201Y-3.2382
X4.6555Y-3.7264
X4.6654Y-3.8189
X4.7205Y-3.3976
X4.7224Y-3.3677
X4.7264Y-3.9508
X4.7736Y-3.4547
X4.7795Y-3.3677
X4.7854Y-3.7697
X4.7933Y-3.0039
X4.803Y-3.3855
X4.8091Y-3.9528
X4.8091Y-4.0236
X4.811Y-3.7441
X4.8209Y-3.628
X4.8268Y-3.685
X4.8268Y-3.7697
X4.8287Y-3.7146
X4.831Y-3.6557
X4.8504Y-3.378
X4.8937Y-4.0217
X4.9055Y-3.5413
X4.9193Y-2.9685
X4.9213Y-3.1496
X4.9213Y-3.9075
X4.9488Y-3.7913
X4.9567Y-3.9016
X4.9843Y-3.8031
X4.9882Y-3.8937
X5.0177Y-3.0374
X5.0197Y-2.9547
X5.0236Y-3.4587
X5.0492Y-3.9055
X5.1122Y-2.9134
X5.1139Y-3.4894
X5.1339Y-3.7953
X5.1348Y-3.4685
X5.1398Y-3.9547
X5.1457Y-3.8937
X5.1603Y-3.5236
X5.1889Y-3.5145
X5.1988Y-3.5571
X5.2343Y-3.7126
X5.2362Y-3.6339
X5.2421Y-3.8524
X5.3041Y-3.8898
X5.3051Y-3.9724
X5.3071Y-4.0512
X5.313Y-4.1161
X5.3484Y-3.0689
X5.3829Y-3.8091
X5.3858Y-3.4961
X5.3858Y-3.9744
X5.3957Y-3.0748
X5.3957Y-3.2244
X5.4173Y-3.4016
X5.4331Y-4.1398
X5.4429Y-3.4705
X5.5039Y-3.3425
X5.5394Y-3.9528
X5.5394Y-4.124
X5.6575Y-3.748
X5.6693Y-3.5807
X5.7008Y-4.0354
X5.7028Y-3.9528
X5.7835Y-3.9528
X5.7835Y-4.0374
X5.7835Y-4.1201
X5.9114Y-3.9311
T2
X4.997Y-3.6575
X4.997Y-3.7077
X4.997Y-3.7579
X5.0472Y-3.6575
X5.0472Y-3.7077
X5.0472Y-3.7579
X5.0974Y-3.6575
X5.0974Y-3.7077
X5.0974Y-3.7579
T4
X5.626Y-3.3819
X5.626Y-3.6496
X5.7362Y-3.3819
X5.7362Y-3.4646
X5.7362Y-3.5669
X5.7362Y-3.6496
T5
X4.322Y-3.3976
X4.322Y-3.4961
X4.322Y-3.5748
X4.322Y-3.6732
X4.4252Y-3.3976
X4.4252Y-3.4961
X4.4252Y-3.5748
X4.4252Y-3.6732
T6
X4.363Y-3.9547
X4.463Y-3.9547
X4.563Y-3.9547
X5.6654Y-3.1102
X5.6663Y-2.9665
X5.7654Y-3.1102
X5.7663Y-2.9665
X5.8654Y-3.1102
X5.8663Y-2.9665
X5.9654Y-3.1102
T7
X4.2154Y-3.2768
X4.2154Y-3.7941
X4.439Y-3.2768
X4.439Y-3.7941
T3
G00X5.1756Y-2.9449
M15
G01X5.1756Y-2.9213
M16
G05
G00X5.1756Y-3.1193
M15
G01X5.1756Y-3.076
M16
G05
G00X5.5157Y-2.9449
M15
G01X5.5157Y-2.9213
M16
G05
G00X5.5157Y-3.1193
M15
G01X5.5157Y-3.076
M16
G05
T6
G00X5.8189Y-3.2461
M15
G01X5.878Y-3.2461
M16
G05
G00X5.8189Y-3.7854
M15
G01X5.878Y-3.7854
M16
G05
G00X5.8799Y-3.5551
M15
G01X5.8799Y-3.4764
M16
G05
M30
