G04 #@! TF.GenerationSoftware,KiCad,Pcbnew,8.0.4*
G04 #@! TF.CreationDate,2024-12-08T00:01:49+02:00*
G04 #@! TF.ProjectId,usb2ps2,75736232-7073-4322-9e6b-696361645f70,1.2*
G04 #@! TF.SameCoordinates,Original*
G04 #@! TF.FileFunction,Soldermask,Top*
G04 #@! TF.FilePolarity,Negative*
%FSLAX46Y46*%
G04 Gerber Fmt 4.6, Leading zero omitted, Abs format (unit mm)*
G04 Created by KiCad (PCBNEW 8.0.4) date 2024-12-08 00:01:49*
%MOMM*%
%LPD*%
G01*
G04 APERTURE LIST*
G04 Aperture macros list*
%AMRoundRect*
0 Rectangle with rounded corners*
0 $1 Rounding radius*
0 $2 $3 $4 $5 $6 $7 $8 $9 X,Y pos of 4 corners*
0 Add a 4 corners polygon primitive as box body*
4,1,4,$2,$3,$4,$5,$6,$7,$8,$9,$2,$3,0*
0 Add four circle primitives for the rounded corners*
1,1,$1+$1,$2,$3*
1,1,$1+$1,$4,$5*
1,1,$1+$1,$6,$7*
1,1,$1+$1,$8,$9*
0 Add four rect primitives between the rounded corners*
20,1,$1+$1,$2,$3,$4,$5,0*
20,1,$1+$1,$4,$5,$6,$7,0*
20,1,$1+$1,$6,$7,$8,$9,0*
20,1,$1+$1,$8,$9,$2,$3,0*%
G04 Aperture macros list end*
%ADD10RoundRect,0.250000X-0.450000X0.350000X-0.450000X-0.350000X0.450000X-0.350000X0.450000X0.350000X0*%
%ADD11RoundRect,0.250000X-0.350000X-0.450000X0.350000X-0.450000X0.350000X0.450000X-0.350000X0.450000X0*%
%ADD12RoundRect,0.250000X0.350000X0.450000X-0.350000X0.450000X-0.350000X-0.450000X0.350000X-0.450000X0*%
%ADD13RoundRect,0.250000X0.450000X-0.350000X0.450000X0.350000X-0.450000X0.350000X-0.450000X-0.350000X0*%
%ADD14RoundRect,0.250000X-0.450000X0.325000X-0.450000X-0.325000X0.450000X-0.325000X0.450000X0.325000X0*%
%ADD15RoundRect,0.250000X-0.325000X-0.450000X0.325000X-0.450000X0.325000X0.450000X-0.325000X0.450000X0*%
%ADD16C,2.100000*%
%ADD17RoundRect,0.250000X0.325000X0.450000X-0.325000X0.450000X-0.325000X-0.450000X0.325000X-0.450000X0*%
%ADD18RoundRect,0.250000X-0.475000X0.337500X-0.475000X-0.337500X0.475000X-0.337500X0.475000X0.337500X0*%
%ADD19RoundRect,0.250000X0.475000X-0.337500X0.475000X0.337500X-0.475000X0.337500X-0.475000X-0.337500X0*%
%ADD20RoundRect,0.250000X0.337500X0.475000X-0.337500X0.475000X-0.337500X-0.475000X0.337500X-0.475000X0*%
%ADD21RoundRect,0.250000X-0.337500X-0.475000X0.337500X-0.475000X0.337500X0.475000X-0.337500X0.475000X0*%
%ADD22R,1.700000X1.700000*%
%ADD23O,1.700000X1.700000*%
%ADD24R,1.500000X1.500000*%
%ADD25C,1.500000*%
%ADD26C,3.500000*%
%ADD27RoundRect,0.050000X-0.387500X-0.050000X0.387500X-0.050000X0.387500X0.050000X-0.387500X0.050000X0*%
%ADD28RoundRect,0.050000X-0.050000X-0.387500X0.050000X-0.387500X0.050000X0.387500X-0.050000X0.387500X0*%
%ADD29RoundRect,0.144000X-1.456000X-1.456000X1.456000X-1.456000X1.456000X1.456000X-1.456000X1.456000X0*%
%ADD30RoundRect,0.104987X0.295013X0.295013X-0.295013X0.295013X-0.295013X-0.295013X0.295013X-0.295013X0*%
%ADD31R,1.600000X1.600000*%
%ADD32C,1.600000*%
%ADD33O,3.500000X2.000000*%
%ADD34O,2.000000X4.000000*%
%ADD35R,1.400000X1.200000*%
%ADD36RoundRect,0.150000X-0.650000X-0.150000X0.650000X-0.150000X0.650000X0.150000X-0.650000X0.150000X0*%
%ADD37C,0.650000*%
%ADD38R,0.600000X1.450000*%
%ADD39R,0.300000X1.450000*%
%ADD40O,1.000000X2.100000*%
%ADD41O,1.000000X1.600000*%
%ADD42RoundRect,0.375000X0.625000X0.375000X-0.625000X0.375000X-0.625000X-0.375000X0.625000X-0.375000X0*%
%ADD43RoundRect,0.500000X0.500000X1.400000X-0.500000X1.400000X-0.500000X-1.400000X0.500000X-1.400000X0*%
%ADD44C,1.700000*%
G04 APERTURE END LIST*
D10*
X136750000Y-100950000D03*
X136750000Y-102950000D03*
X134750000Y-100950000D03*
X134750000Y-102950000D03*
D11*
X144850000Y-100400000D03*
X146850000Y-100400000D03*
X144800000Y-102500000D03*
X146800000Y-102500000D03*
D12*
X103250000Y-99200000D03*
X101250000Y-99200000D03*
D13*
X109450000Y-77550000D03*
X109450000Y-75550000D03*
X105250000Y-103450000D03*
X105250000Y-101450000D03*
X111700000Y-77550000D03*
X111700000Y-75550000D03*
D10*
X115725000Y-79222500D03*
X115725000Y-81222500D03*
D11*
X137600000Y-86400000D03*
X139600000Y-86400000D03*
X137650000Y-83250000D03*
X139650000Y-83250000D03*
D12*
X136725000Y-94800000D03*
X134725000Y-94800000D03*
D10*
X126575000Y-100425000D03*
X126575000Y-102425000D03*
D12*
X120500000Y-91000000D03*
X118500000Y-91000000D03*
D14*
X115700000Y-74975000D03*
X115700000Y-77025000D03*
D15*
X134700000Y-98800000D03*
X136750000Y-98800000D03*
D16*
X151850000Y-75700000D03*
X151850000Y-104000000D03*
X102250000Y-104000000D03*
X102250000Y-75700000D03*
D17*
X146850000Y-104650000D03*
X144800000Y-104650000D03*
D15*
X140650000Y-102600000D03*
X142700000Y-102600000D03*
X140650000Y-104750000D03*
X142700000Y-104750000D03*
X140650000Y-100400000D03*
X142700000Y-100400000D03*
D10*
X107500000Y-101437500D03*
X107500000Y-103437500D03*
X107200000Y-75512500D03*
X107200000Y-77512500D03*
D18*
X129700000Y-75062500D03*
X129700000Y-77137500D03*
X127500000Y-75062500D03*
X127500000Y-77137500D03*
X128525000Y-100400000D03*
X128525000Y-102475000D03*
D19*
X120025000Y-102462500D03*
X120025000Y-100387500D03*
X135400000Y-86537500D03*
X135400000Y-84462500D03*
X133400000Y-86537500D03*
X133400000Y-84462500D03*
D18*
X130525000Y-100400000D03*
X130525000Y-102475000D03*
D20*
X120537500Y-97000000D03*
X118462500Y-97000000D03*
X120537500Y-94990000D03*
X118462500Y-94990000D03*
D21*
X134687500Y-96800000D03*
X136762500Y-96800000D03*
X134687500Y-92800000D03*
X136762500Y-92800000D03*
D19*
X129400000Y-86537500D03*
X129400000Y-84462500D03*
X131400000Y-86537500D03*
X131400000Y-84462500D03*
X127400000Y-86537500D03*
X127400000Y-84462500D03*
D18*
X132525000Y-100400000D03*
X132525000Y-102475000D03*
D20*
X120537500Y-92990000D03*
X118462500Y-92990000D03*
D12*
X136725000Y-88800000D03*
X134725000Y-88800000D03*
X136725000Y-90800000D03*
X134725000Y-90800000D03*
D22*
X143900000Y-79000000D03*
D23*
X146440000Y-79000000D03*
X148980000Y-79000000D03*
X151520000Y-79000000D03*
D22*
X143925000Y-75350000D03*
D23*
X146465000Y-75350000D03*
X149005000Y-75350000D03*
D24*
X109780000Y-86299998D03*
D25*
X109780000Y-88799998D03*
X109780000Y-90799998D03*
X109780000Y-93299998D03*
X112400000Y-86299998D03*
X112400000Y-88799998D03*
X112400000Y-90799998D03*
X112400000Y-93299998D03*
D26*
X107070000Y-83229998D03*
X107070000Y-96369998D03*
X112750000Y-83229998D03*
X112750000Y-96369998D03*
D27*
X124762500Y-91575000D03*
X124762500Y-91975000D03*
X124762500Y-92375000D03*
X124762500Y-92775000D03*
X124762500Y-93175000D03*
X124762500Y-93575000D03*
X124762500Y-93975000D03*
X124762500Y-94375000D03*
X124762500Y-94775000D03*
X124762500Y-95175000D03*
X124762500Y-95575000D03*
X124762500Y-95975000D03*
X124762500Y-96375000D03*
X124762500Y-96775000D03*
D28*
X125600000Y-97612500D03*
X126000000Y-97612500D03*
X126400000Y-97612500D03*
X126800000Y-97612500D03*
X127200000Y-97612500D03*
X127600000Y-97612500D03*
X128000000Y-97612500D03*
X128400000Y-97612500D03*
X128800000Y-97612500D03*
X129200000Y-97612500D03*
X129600000Y-97612500D03*
X130000000Y-97612500D03*
X130400000Y-97612500D03*
X130800000Y-97612500D03*
D27*
X131637500Y-96775000D03*
X131637500Y-96375000D03*
X131637500Y-95975000D03*
X131637500Y-95575000D03*
X131637500Y-95175000D03*
X131637500Y-94775000D03*
X131637500Y-94375000D03*
X131637500Y-93975000D03*
X131637500Y-93575000D03*
X131637500Y-93175000D03*
X131637500Y-92775000D03*
X131637500Y-92375000D03*
X131637500Y-91975000D03*
X131637500Y-91575000D03*
D28*
X130800000Y-90737500D03*
X130400000Y-90737500D03*
X130000000Y-90737500D03*
X129600000Y-90737500D03*
X129200000Y-90737500D03*
X128800000Y-90737500D03*
X128400000Y-90737500D03*
X128000000Y-90737500D03*
X127600000Y-90737500D03*
X127200000Y-90737500D03*
X126800000Y-90737500D03*
X126400000Y-90737500D03*
X126000000Y-90737500D03*
X125600000Y-90737500D03*
D29*
X128200000Y-94175000D03*
D30*
X111295000Y-105305000D03*
X115505000Y-105305000D03*
X111295000Y-103050000D03*
X115505000Y-103050000D03*
D31*
X145700000Y-88000000D03*
D32*
X145700000Y-90600000D03*
D33*
X148550000Y-96150000D03*
D34*
X149350000Y-89300000D03*
D32*
X145700000Y-85900000D03*
D33*
X148550000Y-82450000D03*
D32*
X145700000Y-92700000D03*
X142900000Y-85900000D03*
X142900000Y-92700000D03*
D35*
X122125000Y-102175000D03*
X124325000Y-102175000D03*
X124325000Y-100475000D03*
X122125000Y-100475000D03*
D36*
X117100000Y-83895000D03*
X117100000Y-85165000D03*
X117100000Y-86435000D03*
X117100000Y-87705000D03*
X124300000Y-87705000D03*
X124300000Y-86435000D03*
X124300000Y-85165000D03*
X124300000Y-83895000D03*
D37*
X138670000Y-78150000D03*
X132890000Y-78150000D03*
D38*
X139005000Y-79595000D03*
X138230000Y-79595000D03*
D39*
X137530000Y-79595000D03*
X137030000Y-79595000D03*
X136530000Y-79595000D03*
X136030000Y-79595000D03*
X135530000Y-79595000D03*
X135030000Y-79595000D03*
X134530000Y-79595000D03*
X134030000Y-79595000D03*
D38*
X133330000Y-79595000D03*
X132555000Y-79595000D03*
D40*
X140100000Y-78680000D03*
D41*
X140100000Y-74500000D03*
D40*
X131460000Y-78680000D03*
D41*
X131460000Y-74500000D03*
D42*
X124950000Y-80000000D03*
X124950000Y-77700000D03*
D43*
X118650000Y-77700000D03*
D42*
X124950000Y-75400000D03*
D22*
X110820000Y-100450000D03*
D23*
X113360000Y-100450000D03*
D44*
X115900000Y-100450000D03*
M02*
